<svg width="181" height="196" viewBox="0 0 181 196" fill="none" xmlns="http://www.w3.org/2000/svg">
<path d="M40.0388 167.556C44.2976 173.66 55.5025 185.304 64.1255 186.483C72.7484 187.662 81.818 185.719 85.2564 179.44C88.5372 173.448 71.9988 157.001 71.9988 157.001L87.3661 139.178C87.3661 139.178 93.0544 144.6 102.5 171.5C108.081 187.392 135.394 179.055 143.885 173.755C151.578 168.953 156.953 161.723 150.632 153.141C144.88 145.332 130.42 149.225 130.42 149.225L115.345 121.637L61.1021 116.206C61.1021 116.206 61.607 120.513 55.0176 125.531C48.4281 130.548 40.9622 137.145 32.1608 147.059C25.9985 154 34.7153 159.926 40.0388 167.556Z" fill="#EB1B72"/>
<path d="M78.4805 122.374C80.9165 128.509 85.5762 135.184 87.5105 141.449C88.4771 144.58 91.4714 146.978 92.7787 150.056C95.8695 157.332 98.9274 164.748 102.355 171.893C108.599 184.908 125.98 180.107 136.927 178.235C145.372 176.79 152.661 170.006 153.47 161.933C154.346 153.182 150.222 150.049 142.067 149.232C137.296 148.754 133.077 153.059 129.069 148.33C125.954 144.655 121.698 133.346 119.94 128.918" stroke="black" stroke-width="4" stroke-linecap="round"/>
<path d="M86.5 140.5C86.169 143.82 74.6275 152.892 72 155C69.4597 157.038 74.3689 160.362 75.8947 161.422C78.4323 163.184 82.2319 166.638 83.5 169.5C85.671 174.4 86.7833 177.349 81.5395 181.407C75.6946 185.929 68.6423 188.202 61.2457 186.141C56.3326 184.772 52.6934 181.299 48.7007 178.416C44.0253 175.039 41.2551 172.524 38.203 167.514C34.4558 161.364 30.6602 155.941 30.6602 148.52C30.6602 143.992 36.7076 140.129 39.6493 138.127C45.1093 134.411 50.4419 130.602 53.2913 126.791C56.1406 122.981 57.5653 119.17 57.5653 119.17" stroke="black" stroke-width="4" stroke-linecap="round"/>
<path d="M31.9884 117.214L39.7693 75.1405L13.8384 73.6883L3.89575 35.0208L37.2119 19.253L69.399 12.0653L108.143 10.2924L145.014 20.6062L176.351 26.1836C176.351 26.1836 177.807 45.9442 176.351 60.9843C175.635 68.3858 170.719 77.555 170.719 77.555L146.315 70.2649L143.139 128.129L104.213 125.91L31.9884 117.214Z" fill="#F35415"/>
<path d="M38.602 75.8002C39.1635 88.0707 36.0936 100.412 32.6149 111.826C32.0676 113.622 28.4435 119.378 31.489 119.238C37.2013 118.977 40.6653 120.06 46.3482 120.834C54.5611 121.954 62.8881 120.803 71.0419 121.851C86.5705 123.848 102.227 123.404 117.763 125.388C122.686 126.016 130.256 127.28 135.185 127.054C137.609 126.943 143.448 128.325 143.278 124.614" stroke="black" stroke-width="4" stroke-linecap="round"/>
<path d="M143.276 122.406C142.499 105.436 148.158 89.1323 147.384 72.2154" stroke="black" stroke-width="4" stroke-linecap="round"/>
<path d="M38.3626 74.9462C32.1277 73.8898 20.6539 71.7508 14.3898 73.6852" stroke="black" stroke-width="4" stroke-linecap="round"/>
<path d="M13.706 73.8731C12.6012 66.692 11.1871 60.8804 8.85893 54.2117C6.5246 47.5253 4.70849 40.2974 2.16406 33.7988" stroke="black" stroke-width="4" stroke-linecap="round"/>
<path d="M2.1617 33.797C17.0322 32.3169 30.4919 22.7492 44.8888 19.2333" stroke="black" stroke-width="4" stroke-linecap="round"/>
<path d="M148.191 72.2402C155.211 71.919 163.903 74.7037 170.718 76.4479C172.578 76.924 175.689 65.4013 176.241 58.2201" stroke="black" stroke-width="4" stroke-linecap="round"/>
<path d="M175.688 27.2849C175.688 27.2849 178.595 43.3038 176.24 57.666" stroke="black" stroke-width="4" stroke-linecap="round"/>
<path d="M175.689 26.1818C164.413 26.3814 154.364 19.5899 143.098 20.1055" stroke="black" stroke-width="4" stroke-linecap="round"/>
<path d="M143.653 20.1061C133.751 19.4312 109.637 12.2723 99.7698 11.0055C89.0634 9.63093 78.8183 11.1049 68.3359 12.6445" stroke="black" stroke-width="4" stroke-linecap="round"/>
<path d="M45.3242 19.3242L66.8926 12.9237" stroke="black" stroke-width="4" stroke-linecap="round"/>
<path d="M70.2266 13.2178C70.3334 15.5529 73.8471 18.458 75.3723 19.6183C79.9002 23.0633 85.1777 24.4785 90.4864 24.2356C98.9607 23.8478 108.775 22.2933 114.806 14.4958" stroke="black" stroke-width="4" stroke-linecap="round"/>
<path d="M82.7519 106.463C75.2394 106.021 71.1517 101.86 70.0469 99.8347L81.0969 93.207L87.7256 95.4166C88.6462 94.6801 90.7085 93.207 91.5923 93.207C92.6971 93.207 98.221 95.969 97.6686 99.8347C97.1162 103.7 92.1425 107.016 82.7519 106.463Z" fill="#EB1B72"/>
<path d="M76.6818 94.4986C74.7011 95.3994 71.0644 97.349 70.6055 99.836C74.8599 99.836 79.0825 99.652 83.3486 99.652C87.4837 99.652 91.6017 99.6384 95.7284 99.4577C96.3975 99.4284 98.6432 99.67 98.1567 98.7113C97.2904 97.0041 96.489 95.0409 95.0747 93.6909C93.4982 92.186 91.3851 91.4282 89.471 92.8831C88.2256 93.8298 88.0392 94.9293 86.0724 94.4986C84.9766 94.2587 83.5311 92.9184 82.2057 92.8831C80.6971 92.8429 78.0515 93.8757 76.6818 94.4986Z" fill="#EB1B72" stroke="black" stroke-width="3" stroke-linecap="round"/>
<path d="M70.1758 99.8799C70.2408 101.115 70.9561 102.186 71.9923 102.8C73.702 103.813 75.5868 104.94 77.4611 105.615C81.3087 107 85.5296 107.612 89.6159 107.203C91.3802 107.027 93.322 106.293 94.9083 104.807C96.6364 103.531 96.6977 102.153 97.3577 101.116C97.9339 100.211 97.8453 100.289 98.2226 99.2832" stroke="black" stroke-width="3" stroke-linecap="round"/>
<path d="M104.522 89.6239C104.387 89.6219 103.403 89.7066 103.941 89.6239C104.451 89.5454 104.006 89.2716 104.522 89.2815C105.379 89.298 106.017 90.7558 105.378 91.431C104.556 92.2987 103.958 90.3723 103.941 89.8919C103.915 89.1801 104.068 89.573 104.179 89.7951" stroke="black" stroke-width="3" stroke-linecap="round"/>
<path d="M99.7148 50.5351C100.034 50.5031 100.37 50.2678 100.642 50.1282C102.416 49.2174 104.174 48.2779 105.984 47.4405C108.782 46.1462 111.778 45.2009 114.648 44.0658C115.852 43.5892 117.253 42.7641 118.562 42.6186C119.438 42.5213 120.334 42.5293 121.217 42.4385C122.685 42.2873 124.333 42.2438 125.792 42.4918C126.648 42.6374 127.536 42.972 128.406 42.972C129.407 42.972 130.407 42.972 131.408 42.972" stroke="black" stroke-width="4" stroke-linecap="round"/>
<path d="M78.7349 47.3648C76.5957 47.1703 74.5276 45.2038 72.7992 44.0701C70.9048 42.8275 68.9249 41.7349 66.8235 40.8822C64.9915 40.1387 63.1762 39.2791 61.2746 38.728C59.5821 38.2374 57.876 37.7691 56.1792 37.294C53.3553 36.5033 50.2814 37.0406 47.4023 37.0406" stroke="black" stroke-width="4" stroke-linecap="round"/>
<path d="M117.32 59.2118C104.136 58.157 98.2027 63.1672 96.8842 65.8041C96.4447 66.6833 97.939 69.1008 107.432 71.7377C119.298 75.0339 124.572 71.7377 130.505 66.4639C135.252 62.2448 138.196 56.7951 139.075 54.5977C137.317 56.5752 130.505 60.2666 117.32 59.2118Z" fill="white"/>
<path d="M114.683 49.3235C100.971 52.4878 95.7852 61.6292 94.9062 65.8043C102.817 57.2347 113.365 57.8931 121.935 59.2116C128.791 60.2664 136.218 56.5749 139.075 54.5974C136.658 51.5209 128.395 46.1592 114.683 49.3235Z" fill="url(#paint0_linear_121_2134)"/>
<ellipse cx="106.774" cy="65.8042" rx="7.91081" ry="5.9331" fill="#0199FF"/>
<path d="M108.092 58.5521C100.674 59.3329 96.6651 63.826 95.5664 65.8037C97.5441 69.0999 105.455 73.7145 117.321 73.7145C126.814 73.7145 136.659 60.3101 139.735 53.9375C128.528 62.5075 120.617 57.2337 108.092 58.5521Z" stroke="black" stroke-width="1.19342"/>
<path d="M96.7695 65.9867C96.8132 65.594 97.4249 65.1156 97.678 64.8559C98.1164 64.4063 98.4899 63.9087 98.9344 63.4642C99.5369 62.8617 100.341 62.8465 101.075 62.4205C101.955 61.9094 102.921 61.5564 103.81 61.0674C104.349 60.7712 104.884 60.5214 105.468 60.2943C106.82 59.7685 108.428 59.6708 109.836 59.3955C111.4 59.0894 112.954 59.4631 114.514 59.4631C116.446 59.4631 118.478 59.612 120.39 59.9415C122.04 60.226 123.772 60.4891 125.435 60.2024C126.698 59.9846 127.957 59.7283 129.213 59.4631C130.413 59.2098 131.536 58.7197 132.693 58.3517C134.034 57.925 135.499 57.4398 136.694 56.6797C137.364 56.2534 138.214 55.942 138.781 55.375" stroke="black" stroke-width="3" stroke-linecap="round"/>
<path d="M110.926 72.2151C117.002 73.3198 119.036 72.8422 119.305 72.8C121.521 72.4518 123.711 71.13 125.597 69.9924C128.483 68.2515 130.878 65.7507 133.13 63.2707C134.274 62.0118 135.482 60.7852 136.557 59.4677C136.979 58.9505 137.306 58.6239 137.397 57.9842C137.52 57.1252 138.11 56.0166 138.871 55.6357" stroke="black" stroke-width="3" stroke-linecap="round"/>
<path d="M98.2031 67.1211C98.2031 67.1211 102.776 69.9396 106.114 71.0765C109.452 72.2134 115.3 72.9435 115.3 72.9435" stroke="black" stroke-width="3" stroke-linecap="round"/>
<circle cx="105.455" cy="65.1449" r="3.9554" fill="black"/>
<path d="M65.0801 58.9461C78.0775 57.9063 83.9264 62.8453 85.2261 65.4448C85.6594 66.3115 84.1863 68.6947 74.8282 71.2942C63.1305 74.5435 57.9315 71.2942 52.0826 66.0952C47.4035 61.936 44.5008 56.5637 43.6343 54.3975C45.3673 56.3469 52.0826 59.9859 65.0801 58.9461Z" fill="white"/>
<ellipse cx="58.3883" cy="64.2971" rx="7.79847" ry="5.84886" fill="#0199FF"/>
<circle cx="57.0867" cy="63.6483" r="3.89924" fill="black"/>
<path d="M67.6796 49.1985C81.1969 52.3178 86.3093 61.3294 87.1758 65.4453C79.3773 56.9973 68.9793 57.6464 60.531 58.9461C53.7723 59.9859 46.4504 56.3469 43.6343 54.3974C46.0172 51.3647 54.1622 46.0791 67.6796 49.1985Z" fill="url(#paint1_linear_121_2134)"/>
<path d="M74.1759 58.2952C81.4879 59.0649 85.4403 63.4942 86.5234 65.4438C84.5738 68.6932 76.7753 73.2423 65.0776 73.2423C55.7195 73.2423 46.0147 60.0282 42.982 53.7461C54.0298 62.1944 61.8283 56.9955 74.1759 58.2952Z" stroke="black" stroke-width="1.17647"/>
<path d="M85.3359 65.6251C85.2929 65.238 84.6899 64.7663 84.4404 64.5104C84.0082 64.0671 83.64 63.5766 83.2018 63.1384C82.6078 62.5445 81.8149 62.5295 81.0915 62.1095C80.2238 61.6056 79.2716 61.2577 78.3953 60.7757C77.8644 60.4837 77.3372 60.2374 76.7614 60.0135C75.4286 59.4952 73.8426 59.3989 72.455 59.1274C70.9129 58.8257 69.3814 59.1941 67.8438 59.1941C65.9389 59.1941 63.9354 59.3409 62.0512 59.6657C60.4243 59.9462 58.7172 60.2056 57.0779 59.923C55.8324 59.7082 54.5909 59.4555 53.3527 59.1941C52.1699 58.9444 51.0631 58.4613 49.9229 58.0985C48.6011 57.6779 47.156 57.1995 45.9786 56.4503C45.3182 56.03 44.4797 55.7231 43.9207 55.1641" stroke="black" stroke-width="3" stroke-linecap="round"/>
<path d="M66.2148 72.3128C66.1415 72.6062 63.3883 72.3831 63.1232 72.3414C60.939 71.9982 58.7802 70.6952 56.9209 69.5737C54.0756 67.8575 51.7146 65.3922 49.4944 62.9475C48.3673 61.7064 47.1765 60.4972 46.117 59.1985C45.701 58.6886 45.3782 58.3666 45.2881 57.736C45.1671 56.8892 44.586 55.7963 43.8352 55.4209" stroke="black" stroke-width="3" stroke-linecap="round"/>
<path d="M83.9258 66.7451C83.9258 66.7451 79.4183 69.5236 76.1273 70.6444C72.8363 71.7651 67.0715 72.4848 67.0715 72.4848" stroke="black" stroke-width="3" stroke-linecap="round"/>
<defs>
<linearGradient id="paint0_linear_121_2134" x1="116.991" y1="48.3574" x2="116.991" y2="65.8043" gradientUnits="userSpaceOnUse">
<stop stop-color="#0123FF"/>
<stop offset="1" stop-color="#011599"/>
</linearGradient>
<linearGradient id="paint1_linear_121_2134" x1="65.405" y1="48.2461" x2="65.405" y2="65.4453" gradientUnits="userSpaceOnUse">
<stop stop-color="#0123FF"/>
<stop offset="1" stop-color="#011599"/>
</linearGradient>
</defs>
</svg>
