<svg width="184" height="205" viewBox="0 0 184 205" fill="none" xmlns="http://www.w3.org/2000/svg">
<path d="M22.3462 182.446H39.1015L47.0425 178.609C47.0425 178.609 34.5803 160.285 37.4399 148.695C40.7125 135.431 62.0465 123.958 62.0465 123.958C62.0465 123.958 61.9515 115.112 59.7988 108.757C53.6458 90.5921 60.8462 84.8394 64.7268 70.9671C67.9183 59.5582 56.8419 41.6802 56.8419 41.6802H48.2428C48.2428 41.6802 44.1385 60.9743 34.1729 67.1881C27.553 71.3158 22.1696 74.8611 14.6337 72.1833C8.48776 69.9995 6.02763 66.4183 3.61902 60.575C0.263071 52.4334 5.63284 38.2422 5.63284 38.2422C9.48189 28.6496 6.83317 22.1345 15.8356 15.2312C24.838 8.3279 46.9858 2.94594 46.9858 2.94594C46.9858 2.94594 60.9617 1.42741 68.6483 5.78015C76.7387 10.3615 83.4534 24.6749 83.4534 24.6749C83.4534 24.6749 93.1229 32.7004 99.2232 30.3433C102.757 28.9778 106.122 23.7302 106.122 23.7302C106.122 23.7302 116.586 9.37533 126.82 5.78015C136.217 2.47945 151.471 6.60208 151.471 6.60208C151.471 6.60208 172.722 25.2137 178.522 41.6802C182.602 53.2632 181.479 72.8566 181.479 72.8566L167.075 81.3877L153.432 77.5803C153.432 77.5803 134.666 41.6802 128.064 49.1724C126.381 51.0824 126.82 56.0757 126.82 56.0757C126.82 56.0757 141.035 79.9852 137.668 97.4954C136.432 103.925 126.82 115.37 126.82 115.37C126.82 115.37 150.871 146.969 150.871 167.104C150.871 175.025 143.576 184.336 143.576 184.336L158.673 186.088L175.115 176.778L183 181.501C183 181.501 182.877 203.213 173.144 210.788C163.936 217.955 143.068 214.851 143.068 214.851C101.657 218.878 29.3791 216.544 25.4367 214.276C20.5086 211.442 14.0336 182.446 22.3462 182.446Z" fill="#6D89DD"/>
<path d="M61.8083 118.278C61.8083 114.577 60.7632 111.663 58.8738 107.852C55.451 100.949 55.451 96.3468 56.6513 89.4435C58.7657 83.1381 61.4531 80.8903 62.6529 73.3358C63.7113 66.6718 65.1804 64.0487 64.1459 58.2091C63.3352 53.6331 61.4217 48.0462 58.8738 44.0499C56.8023 40.8007 52.9036 40.1883 49.2747 40.1883C46.676 40.1883 47.3567 44.8645 46.9371 46.6243C45.1499 54.1188 42.1879 63.5363 34.5029 67.2195C27.2442 70.6984 19.0343 74.2034 11.2263 70.4613C4.76891 67.3665 2.72132 61.6408 2.72132 54.9672C2.72132 51.8847 2.25373 48.2132 3.5171 45.3371C4.54204 43.0038 4.35132 40.2046 5.85472 38.043" stroke="black" stroke-width="4" stroke-linecap="round"/>
<path d="M5.85547 38.0416C5.85547 27.4312 13.9979 13.6375 24.7553 9.81854C29.7015 8.06258 34.4986 5.11689 39.8752 4.5744C42.3405 4.32565 44.7402 2.42907 47.2362 2.42907C49.9997 2.42907 53.0825 2 55.9899 2C65.786 2 73.2208 8.93925 78.1723 16.3976C82.4198 22.7953 86.4658 30.3184 95.3812 30.3184" stroke="black" stroke-width="4" stroke-linecap="round"/>
<path d="M95.3828 30.3183C98.3001 30.3183 100.293 30.2117 102.545 28.1729C104.863 26.0745 107.318 23.8687 109.035 21.3079C109.755 20.2353 110.585 19.2918 111.05 18.0661C111.605 16.6016 113.305 15.8879 113.736 14.4428C114.124 13.1388 115.796 12.0087 116.869 11.201C118.373 10.0686 119.082 8.61736 120.997 7.91149C127.137 5.64788 133.203 3.28711 139.922 3.28711C143.146 3.28711 150.215 4.56936 151.784 7.57777" stroke="black" stroke-width="4" stroke-linecap="round"/>
<path d="M151.777 7.58008C154.183 7.8107 157.649 11.5268 159.288 13.0626C161.153 14.8113 162.684 16.643 164.087 18.7358C166.458 22.2711 169.964 25.1757 172.368 28.6997C177.312 35.9476 178.931 43.6153 181.768 51.7739" stroke="black" stroke-width="4" stroke-linecap="round"/>
<path d="M181.774 51.7709C181.774 55.1954 181.774 58.62 181.774 62.0446C181.774 64.2914 182.388 67.7163 181.426 69.7916C180.299 72.2207 179.245 73.4328 177.049 75.155C174.552 77.1129 172.339 79.1724 169.24 80.4229C167.092 81.2901 163.305 81.3764 160.959 81.3764C158.167 81.3764 157.115 79.2788 154.916 78.0392C152.41 76.6264 150.477 73.2601 148.426 71.2934C145.522 68.5103 145.125 63.7473 142.83 60.4475C141.683 58.7975 139.94 57.3867 139.025 55.6324C138.123 53.9026 137.063 52.3579 135.444 51.1511C133.277 49.5354 129.753 48.2608 127.163 49.7209C125.118 50.8742 126.585 56.4309 126.939 57.9923C127.882 62.1504 129.869 63.5541 132.27 68.1563C137.071 76.2101 139.299 88.041 137.071 96.3447C135.186 103.37 128.204 108.849 125.82 115.702" stroke="black" stroke-width="4" stroke-linecap="round"/>
<path d="M61.8078 118.707C61.8078 120.487 61.8078 122.267 61.8078 124.047C61.8078 124.827 58.9815 125.523 58.2268 126.001C52.3737 129.706 47.2239 135.158 42.5846 140.16C40.4088 142.507 36.293 145.615 36.293 148.956C36.293 152.389 37.2966 154.542 38.183 157.752C41.2239 168.764 41.1113 168.634 47.6492 178.034" stroke="black" stroke-width="4" stroke-linecap="round"/>
<path d="M49.7228 180.061C44.7542 180.061 40.6783 183.922 35.5976 183.922C31.4518 183.922 28.2101 180.919 23.9841 180.919C13.1756 180.919 17.9133 198.209 19.7317 203.874C20.614 206.622 22.5809 212.962 25.6503 214.052C31.44 216.108 37.3446 216.102 43.456 216.102C51.5133 216.102 59.5706 216.102 67.6279 216.102" stroke="black" stroke-width="4" stroke-linecap="round"/>
<path d="M141.938 213.96C149.36 213.96 156.631 214.389 164.07 214.389C169.374 214.389 173.162 212.366 175.709 207.929C177.509 204.791 178.063 201.038 179.29 197.679C180.168 195.273 181.078 191.783 181.304 189.288C181.507 187.049 181.842 184.904 181.776 182.638C181.694 179.786 180.726 178.776 177.748 178.776C175.491 178.776 172.849 178.418 170.685 179.11C168.731 179.734 166.653 181.687 165.214 183.067C162.491 185.677 159.612 185.641 155.913 185.641C153.991 185.641 146.882 186.538 145.966 184.783" stroke="black" stroke-width="4" stroke-linecap="round"/>
<path d="M145.068 184.353C145.068 183.251 144.768 181.682 145.316 180.706C146.024 179.447 147.143 178.589 147.753 177.273C148.454 175.762 149.175 174.384 149.643 172.768C149.944 171.732 150.72 170.873 150.862 169.788C150.975 168.924 150.792 168.05 150.986 167.19C153.15 157.596 147.993 147.738 142.282 140.159C140.318 137.552 137.931 134.744 136.563 131.792C135.896 130.355 134.352 127.32 133.33 126.095C132.245 124.795 131.912 122.777 130.52 121.709C129.11 120.628 127.702 119.266 126.715 117.848" stroke="black" stroke-width="4" stroke-linecap="round"/>
<path d="M144.27 183.211C142.037 183.502 139.275 185.843 136.495 186.469C133.974 187.038 132.142 186.662 129.866 186.662C123.474 186.662 117.863 182.635 113.062 179.184C111.152 177.582 110.661 177.458 107.66 175.732C106.521 174.76 104.66 173.431 102.859 172.28C101.659 171.513 99.8583 169.979 98.2656 167.712C97.4576 167.103 96.8783 166.054 96.2573 164.802C95.9398 163.663 95.0282 161.733 94.4568 160.775C93.5745 159.295 92.6587 154.554 92.6587 152.646C92.6587 149.505 91.9051 146.937 93.8566 144.092C94.5831 143.033 95.8739 141.151 96.3991 139.918C96.8121 138.948 97.9979 137.858 98.658 137.189C100.362 135.46 102.027 135.463 104.115 135.463C106.615 135.463 107.66 136.613 108.921 140.153C109.249 141.866 110.444 143.814 111.198 145.315C112.031 146.974 112.561 149.161 113.728 150.407C115.427 152.22 118.808 153.282 120.955 153.282C122.195 153.282 127.102 152.771 127.786 154.555" stroke="black" stroke-width="4" stroke-linecap="round"/>
<path d="M49.4493 179.759C59.0519 182.635 67.1614 182.718 73.4558 178.608C75.366 177.007 76.9299 176.225 78.8572 174.582C79.9967 173.61 81.2579 172.28 83.0583 171.13C83.9518 170.871 85.9316 168.8 87.2595 167.678C88.3322 166.772 89.0343 165.479 89.6601 164.227C90.5223 162.501 90.8892 160.583 91.4606 159.624C92.3429 158.145 92.6633 154.554 92.6633 152.646C92.6633 149.505 92.8096 146.961 91.4606 144.092C90.8604 142.816 90.2603 141.791 89.06 140.065C88.647 139.095 87.6316 138.49 86.9715 137.82C84.8589 136.038 83.2954 135.463 81.2073 135.463C78.7069 135.463 77.5778 136.613 76.4009 140.153C75.8564 141.791 74.878 143.814 74.1241 145.315C73.2911 146.974 72.761 149.161 71.5944 150.407C69.8952 152.22 66.5142 153.282 64.3666 153.282C63.1269 153.282 58.2203 152.771 57.5364 154.555" stroke="black" stroke-width="4" stroke-linecap="round"/>
<path d="M96.19 109.131C96.6912 109.073 97.3149 108.831 97.3952 109.469" stroke="black" stroke-width="4.35706" stroke-linecap="round"/>
<path d="M80.0494 64.7052C81.1661 76.7449 88.6207 84.5991 98.2754 83.7764C107.93 82.9536 114.174 73.8685 113.058 61.8289C111.941 49.7892 103.886 40.5047 94.2315 41.3274C84.5768 42.1502 78.9328 52.6655 80.0494 64.7052Z" fill="white"/>
<ellipse cx="3.60094" cy="4.60223" rx="3.60094" ry="4.60223" transform="matrix(-0.999912 -0.013266 -0.0144385 0.999896 100.484 58.0371)" fill="black" stroke="black" stroke-width="2"/>
<path d="M62.6523 91.5823C63.3165 91.5823 63.9817 91.5925 64.6457 91.5823C65.3565 91.5713 65.9712 91.0519 66.5412 90.6876C67.8672 89.8403 68.6703 88.7486 69.37 87.4074C69.9232 86.3469 70.2639 85.2878 70.4819 84.1271C70.724 82.8377 70.43 81.7298 70.43 80.4492" stroke="black" stroke-width="3" stroke-linecap="round"/>
<path d="M122.595 74.4844C122.268 74.5541 122.012 75.3659 121.921 75.6275C121.7 76.2639 121.595 76.9089 121.455 77.5658C121.194 78.786 121.065 80.1402 121.581 81.321C122.494 83.4073 125.305 84.6018 127.469 85.1204" stroke="black" stroke-width="3" stroke-linecap="round"/>
<path d="M69.7982 87.1342C92.7352 103.624 113.943 90.2968 121.68 81.5723C127.141 93.3504 124.293 104.865 116.56 108.4C95.3983 118.074 78.6737 115.214 72.1881 106.437C67.5461 100.156 68.3191 90.624 69.7982 87.1342Z" fill="white" stroke="black" stroke-width="3.5"/>
<path d="M70.8477 104.405C72.71 103.311 74.6198 102.273 76.4879 101.18C77.8019 100.412 79.1674 99.5814 80.2212 98.4965C80.6743 98.0301 81.8868 96.2448 82.2923 95.741C82.4632 95.5287 82.922 95.1151 82.9376 94.8464C82.9703 94.2813 83.3329 96.0709 83.3581 96.1773C83.9015 98.4687 83.5269 102.12 84.1216 104.4C84.6099 106.272 85.1471 108.16 85.5504 110.049C85.6461 110.498 85.6843 110.972 85.7866 111.413C85.8115 111.521 85.9322 112.177 85.994 111.91C86.0877 111.506 86.502 111.013 86.7372 110.69C87.6072 109.496 88.467 108.284 89.3067 107.067C90.9863 104.634 92.6473 101.564 93.7601 98.8307C94.0123 98.2114 94.2665 97.5885 94.5149 96.9697C94.6064 96.7416 94.8029 96.536 94.8029 96.2959" stroke="black" stroke-width="3" stroke-linecap="round"/>
<path d="M94.8008 96.9492C95.3657 97.9338 96.1506 98.8013 96.7711 99.7546C97.7395 101.242 98.8642 102.602 99.9859 103.985C100.811 105.001 101.675 106.011 102.682 106.867C103.241 107.343 103.783 108.085 104.393 108.474C104.823 108.749 105.166 109.201 105.58 109.524C105.89 109.765 106.569 110.783 106.934 110.667" stroke="black" stroke-width="3" stroke-linecap="round"/>
<path d="M106.934 110.666C106.934 110.085 106.934 109.503 106.934 108.921C106.934 107.925 107.175 107.044 107.348 106.072C107.673 104.25 108.082 102.438 108.437 100.621C108.819 98.6704 109.201 96.805 109.371 94.8171C109.392 94.5635 109.579 92.1024 109.422 92.1775" stroke="black" stroke-width="3" stroke-linecap="round"/>
<path d="M109.426 92.1777C110.63 92.3317 111.788 93.5776 112.721 94.2431C113.979 95.1408 115.315 95.8217 116.622 96.6398C117.734 97.3364 118.904 97.9181 120.061 98.5395C120.679 98.871 121.364 99.1027 121.974 99.412C122.397 99.6266 122.491 99.8317 123.011 99.8317" stroke="black" stroke-width="3" stroke-linecap="round"/>
<path d="M94.8782 42.3131C94.03 42.3131 92.8781 42.1307 92.1182 42.5125C90.229 43.4616 88.1331 44.9357 86.6096 46.2965C85.4777 47.3075 84.6722 48.4699 83.928 49.7481C83.292 50.8405 82.2882 51.8012 81.7274 52.9532C80.3843 55.7124 80.5809 59.214 80.8547 62.1795C81.168 65.5717 81.9407 69.0532 82.9146 72.3393C84.5769 77.948 88.9355 81.4004 95.2841 82.4085C99.5874 83.0917 104.404 81.0068 107.014 78.04C107.828 77.1155 108.214 75.8837 108.851 74.8589C109.223 74.2604 109.285 73.5309 109.673 72.9465C110.034 72.4027 110.416 71.624 110.586 71.0161C111.13 69.0745 111.865 67.2602 111.865 65.2338C111.865 62.8212 111.461 60.5237 111.317 58.1373C111.167 55.6565 110.041 53.25 108.983 50.9956C107.812 48.5029 106.439 46.2107 103.93 44.597C101.234 42.8634 98.3081 42.3131 94.8782 42.3131ZM94.8782 42.3131C93.3204 42.3131 88.8688 41.119 82.267 52.0492" stroke="black" stroke-width="4" stroke-linecap="round"/>
</svg>
