<svg width="179" height="241" viewBox="0 0 179 241" fill="none" xmlns="http://www.w3.org/2000/svg">
<path d="M51.1611 182.116C65.463 169.244 78.2752 148.149 82.8935 139.21H95.4076L81.1057 168.261L70.8262 187.479C67.8466 191.501 60.7254 200.44 56.0773 204.016C51.4291 207.591 44.308 205.505 41.3285 204.016C38.6469 202.079 36.8591 194.988 51.1611 182.116Z" fill="#CBA2A3"/>
<path d="M92.2779 162.003C95.8534 157.355 96.7473 145.169 96.7473 139.657L123.563 138.763L118.647 149.489L115.519 160.663L113.284 174.518V196.417C113.284 196.417 115.012 212.016 111 220.552C108.585 225.69 104.602 231.491 104.602 231.491H98.792L96.1104 227.468L102.11 203.121L103.451 181.222L102.11 172.283L93.1717 192.395L82.4453 211.613L65.9087 220.552L60.5455 219.658C60.0985 218.168 59.2941 215.099 59.6516 214.742C60.0091 214.384 63.972 209.23 65.9087 206.697L73.9535 197.758L78.8698 186.138L83.3392 176.752C84.829 173.773 88.7024 166.651 92.2779 162.003Z" fill="#CBA2A3"/>
<path d="M122.227 159.77C124.73 152.619 131.315 142.488 134.295 138.317C139.36 137.87 149.49 138.317 143.68 144.574C138.473 150.181 133.698 162.898 131.613 168.261C131.166 172.284 130.272 181.58 130.272 186.586C130.272 192.843 135.635 197.759 139.657 206.698C142.875 213.849 140.998 224.575 139.657 229.045C138.168 231.577 135.099 236.732 134.741 237.09C134.294 237.536 126.696 239.771 124.462 239.771C122.227 239.771 122.227 232.62 124.462 230.385C126.696 228.151 127.59 223.234 127.59 220.553C127.59 218.408 125.504 208.635 124.462 204.016L119.546 182.116C119.397 177.647 119.725 166.921 122.227 159.77Z" fill="#CBA2A3"/>
<path d="M13.9152 136.528C-7.53908 105.689 6.31702 94.6647 18.8312 91.8341C18.8312 91.8341 55.0319 94.5157 58.6074 86.4709C62.1829 78.426 60.8434 66.8951 60.8434 61.8894C60.8434 56.8837 65.6107 37.159 67.9944 27.9223C70.0801 22.2611 80.5967 11.2963 95.2562 14.5142C109.916 17.7321 105.538 54.7384 110.453 56.5262C115.368 58.3139 122.074 56.5262 122.074 56.5262L128.778 24.7937C128.778 17.1958 133.694 2 153.359 2C173.024 2 174.365 25.8366 172.577 37.7549C174.663 55.0364 178.298 95.2308 176.153 117.756C174.008 140.282 153.359 139.656 130.565 139.656H50.5639L13.9152 136.528Z" fill="#CBA2A3"/>
<ellipse cx="144.5" cy="77.499" rx="18.5" ry="15.5" fill="white"/>
<ellipse cx="99.7111" cy="80.5646" rx="18.3244" ry="15.6428" fill="white"/>
<path d="M89.7104 65.8555C89.9928 65.6888 90.2646 65.5692 90.5 65.5692C91.1455 65.3651 91.8335 65.2163 92.5812 65.1124C95.4043 64.7203 98.3383 64.928 101.183 64.928C103.828 64.928 106.379 65.0407 108.88 65.9006C111.07 66.6533 113.039 68.1554 114.648 69.7908C116.494 71.6659 118.346 74.2267 118.388 76.9677C118.415 78.7375 118.52 80.5061 118.002 82.2078C117.28 84.5813 115.837 86.8923 114.456 88.9236C112.855 91.2767 111.019 92.499 108.578 93.7193C107.39 94.3132 106.217 94.6986 104.956 95.1111C103.16 95.6986 101.349 96.4022 99.4394 96.4609C97.2209 96.5292 94.7062 96.7437 92.5309 96.2346C91.252 95.9353 90.114 95.3374 88.9257 94.8093C87.422 94.141 85.9231 93.5176 84.4485 92.7803C83.377 92.2445 82.5626 91.7742 82.0171 90.6675C80.6309 87.8554 80.5079 84.8985 80.5079 81.8305C80.5079 80.2329 80.4966 78.5892 80.6924 77.0012C80.8484 75.7361 81.499 74.3963 82.0171 73.2451C82.9419 71.19 84.052 69.6978 85.79 68.2817C86.3132 67.8554 86.972 67.3593 87.6294 67.0383C88.2915 66.5464 88.9754 66.1581 89.7104 65.8555Z" fill="white"/>
<path d="M90.5 65.5692C89.8057 65.5692 88.7945 66.6094 88.1292 66.8312C87.3164 67.1021 86.4464 67.7468 85.79 68.2817C84.052 69.6978 82.9419 71.19 82.0171 73.2451C81.499 74.3963 80.8484 75.7361 80.6924 77.0012C80.4966 78.5892 80.5079 80.2329 80.5079 81.8305C80.5079 84.8985 80.6309 87.8554 82.0171 90.6675C82.5626 91.7742 83.377 92.2445 84.4485 92.7803C85.9231 93.5176 87.422 94.141 88.9257 94.8093C90.114 95.3374 91.252 95.9353 92.5309 96.2346C94.7062 96.7437 97.2209 96.5292 99.4394 96.4609C101.349 96.4022 103.16 95.6986 104.956 95.1111C106.217 94.6986 107.39 94.3132 108.578 93.7193C111.019 92.499 112.855 91.2767 114.456 88.9236C115.837 86.8923 117.28 84.5813 118.002 82.2078C118.52 80.5061 118.415 78.7375 118.388 76.9677C118.346 74.2267 116.494 71.6659 114.648 69.7908C113.039 68.1554 111.07 66.6533 108.88 65.9006C106.379 65.0407 103.828 64.928 101.183 64.928C98.3383 64.928 95.4043 64.7203 92.5812 65.1124C89.9952 65.4716 88.1218 66.369 86.2595 68.2314C85.3351 69.1557 84.713 70.2524 83.6772 71.1155" stroke="black" stroke-width="3" stroke-linecap="round"/>
<path d="M125.759 80.2093C125.556 79.2675 125.145 78.3569 125.145 77.3871C125.145 76.2869 125.205 75.3319 125.53 74.2682C126.04 72.6008 127.031 70.9036 128.196 69.6066C129.523 68.1305 131.087 66.5546 132.841 65.6074C136.414 63.6781 140.067 62.3963 144.126 62.0273C148.336 61.6446 152.706 61.9538 156.351 64.3246C157.768 65.247 159.118 66.2054 160.224 67.5022C161.028 68.4451 162.042 69.5706 162.488 70.7469C164.547 76.1759 162.089 81.2516 159 85.499C158.253 86.5262 156.659 87.6402 155.613 88.3956C153.485 89.9325 150.857 91.0383 148.268 91.4558C146.188 91.7914 143.851 92.1458 141.745 91.9086C139.158 91.6171 136.333 90.8325 133.906 89.9048C132.827 89.4922 131.775 88.8653 130.879 88.1357C130.162 87.5509 129.356 87.0559 128.61 86.499C128.327 86.2877 128.052 86.0675 127.794 85.83C126.342 84.4942 125.748 82.8315 125.748 80.8917C125.748 80.6644 125.752 80.4369 125.759 80.2093Z" fill="white"/>
<path d="M128.61 86.499C128.61 85.6349 127.277 84.8673 126.956 84.0861C126.481 82.9348 126.021 81.538 125.782 80.3216C125.589 79.3397 125.145 78.3954 125.145 77.3871C125.145 76.2869 125.205 75.3319 125.53 74.2682C126.04 72.6008 127.031 70.9036 128.196 69.6066C129.523 68.1305 131.087 66.5546 132.841 65.6074C136.414 63.6781 140.067 62.3963 144.126 62.0273C148.336 61.6446 152.706 61.9538 156.351 64.3246C157.768 65.247 159.118 66.2054 160.224 67.5022C161.028 68.4451 162.042 69.5706 162.488 70.7469C164.547 76.1759 162.089 81.2516 159 85.499C158.253 86.5262 156.659 87.6402 155.613 88.3956C153.485 89.9325 150.857 91.0383 148.268 91.4558C146.188 91.7914 143.851 92.1458 141.745 91.9086C139.158 91.6171 136.333 90.8325 133.906 89.9048C132.827 89.4922 131.775 88.8653 130.879 88.1357C129.889 87.329 128.732 86.6932 127.794 85.83C126.342 84.4942 125.748 82.8315 125.748 80.8917C125.748 78.0236 126.299 75.1202 127.417 72.4656C127.866 71.3972 128.349 70.3033 129.152 69.4557C129.556 69.0298 129.898 67.5022 130.5 67.5022" stroke="black" stroke-width="3" stroke-linecap="round"/>
<path d="M135.682 85.2669C134.477 83.7047 132.85 82.4217 132.095 80.5554C131.748 79.6967 131.711 78.8806 131.711 77.9648C131.711 76.6151 131.705 75.1895 132.508 74.0219C133.367 72.7718 134.719 71.7261 135.946 70.8548C137.322 69.8765 138.704 69.1961 140.422 69.1325C142.296 69.0631 144.291 68.9806 146.159 69.1538C147.652 69.2924 148.982 69.9841 150.415 70.3424C151.435 70.5975 152.594 71.0699 153.361 71.8156C154.734 73.1504 155.713 74.6842 156.179 76.5485C156.576 78.1361 156.773 80.2002 155.667 81.5518C154.157 83.3975 152.223 84.7067 149.966 85.459C148.309 86.0113 146.577 86.3943 144.892 86.8682C142.601 87.5124 139.026 87.8604 137.063 86.2348C134.281 83.931 132.662 79.8783 133.86 76.3278C134.82 73.4839 138.005 71.761 140.799 71.2463C143.623 70.7261 146.709 71.6211 149.148 72.9757C150.243 73.5841 151.58 74.3721 152.329 75.4026C153.038 76.378 153.603 77.5647 153.589 78.7049C153.541 82.5396 148.442 83.6577 145.418 83.8292C143.025 83.965 139.688 85.7988 138 83.8292C136.899 82.5449 135.848 79.8921 135.682 78.2139C135.547 76.8395 136.86 74.3509 138.33 73.6376C139.968 72.8424 142.162 72.8351 143.938 72.8618C145.538 72.8859 147.71 73.0609 148.842 74.392C150.511 76.3559 147.29 78.6597 145.675 79.1177C143.036 79.8656 140.666 77.2689 141.177 74.6197C141.403 73.4451 143.046 73.399 143.945 73.5878C145.567 73.9282 146.664 75.4786 146.863 77.068C147.01 78.2389 146.656 79.4891 145.646 80.1853C144.863 80.7253 142.864 81.1913 142.273 80.1284C140.941 77.7359 145.186 75.5585 146.166 77.6659C147.324 80.1564 143.567 82.0037 141.554 81.2528C140.444 80.8391 140.535 79.1983 141.105 78.3776C141.995 77.0964 144.401 76.6476 145.817 77.1534C146.697 77.4676 147.358 78.7509 146.949 79.6302C146.103 81.4462 142.142 82.354 140.422 82.0998C137.988 81.74 137.881 78.6847 139 76.9114C140.693 74.2271 145.185 72.646 148.251 73.4668C149.697 73.854 151.348 74.9821 151.596 76.5627C151.799 77.8516 151.238 79.0813 150.101 79.7298C149.098 80.3023 147.293 80.7372 146.365 79.7867C145.723 79.1293 145.575 77.7763 146.322 77.1534C147.666 76.0335 148.363 78.3922 147.126 79.0608C145.935 79.705 144.458 79.4557 143.803 78.2139C142.695 76.1136 143.765 73.6303 145.746 72.5273C146.924 71.8716 148.707 71.7158 149.817 72.6127C150.568 73.2199 150.784 74.3291 150.799 75.2461C150.818 76.4495 150.339 75.4968 150.294 74.8333C150.267 74.4424 150.368 74.0227 150.856 74.0504C151.758 74.1014 151.958 75.3589 151.952 76.0432C151.944 76.8794 151.594 77.6058 150.792 77.9434C150.338 78.1346 149.442 78.2768 149.148 77.7513C148.529 76.6471 149.23 75.4171 150.536 75.609C151.164 75.7015 151.359 76.1146 151.411 76.7122C151.516 77.9108 150.613 78.4851 149.546 78.7049C148.699 78.8795 147.604 78.9505 147.489 77.8651C147.358 76.6173 147.707 75.5415 148.884 74.9756C150.296 74.2968 151.902 74.464 151.667 76.2994C151.437 78.0983 148.961 78.3664 148.678 76.399C148.375 74.2951 149.18 72.0861 151.617 72.0861C152.866 72.0861 153.267 73.348 153.589 74.3493C153.792 74.983 153.085 75.4981 152.721 75.9151C152.461 76.2113 152.184 76.7219 151.824 76.9114C151.454 77.106 150.794 77.1061 150.393 77.2032C148.269 77.7181 146.117 78.2284 143.938 78.4487C142.831 78.5607 141.458 78.3513 141.02 77.1178C140.135 74.6241 143.406 73.8834 145.162 74.3351C148.281 75.1371 147.899 79.3269 147.489 82.0998C147.268 83.6007 147.574 84.1241 146.059 83.8008C144.489 83.4656 142.444 81.9542 142.045 80.3205C141.753 79.1253 141.85 77.8177 142.728 76.9399" stroke="black" stroke-width="3" stroke-linecap="round"/>
<path d="M98.2452 87.998C96.6169 87.998 93.4056 87.5014 92.1815 86.0928C91.8579 85.5027 91.7552 85.6375 91.6833 84.9826C91.5779 84.022 91.5109 83.044 91.4627 82.0788C91.3813 80.451 91.3918 78.7808 92.1815 77.3104C93.657 74.5629 96.8148 71.6825 100.039 71.4601C103.114 71.248 105.822 73.3767 106.544 76.3282C106.875 77.6842 107.113 79.2404 106.643 80.5984C106.32 81.5347 105.386 82.1821 104.587 82.698C102.592 83.9847 100.538 84.2424 98.1812 84.2424C96.0637 84.2424 94.1689 83.0181 94.1458 80.755C94.1258 78.7894 94.5073 75.0602 96.9357 74.9048C99.3128 72.998 101.946 78.2715 100.58 80.8404C100.04 81.8542 98.857 82.5205 97.7328 82.5556C96.0666 82.6077 95.6587 81.3148 96.2738 79.8796C97.1453 77.8461 99.7556 76.4705 101.911 76.4705C103.859 76.4705 104.14 78.6303 103.512 80.1145C102.802 81.7898 101.02 83.0766 99.2986 83.5449C97.2689 84.0971 97.5386 82.0787 98.2452 80.755C99.5054 78.3946 102.141 76.7794 104.764 76.4848C105.233 76.4322 106.068 76.3172 106.487 76.6414C107.17 77.1704 106.277 78.2959 105.917 78.684C104.438 80.2817 102.173 81.7556 99.9605 81.9649C98.3739 82.115 98.5268 80.5224 99.3128 79.5949C100.103 78.6627 101.958 77.9504 103.092 78.6484C104.522 79.5286 104.497 81.8959 103.74 83.1891C102.621 85.0991 100.026 86.0063 97.9179 85.9789C94.9325 85.9402 94.5447 83.0802 95.5977 80.7835C96.6786 78.4259 98.9366 75.9401 101.363 74.9048C102.732 74.3203 104.229 74.4537 104.821 75.9652C105.374 77.3757 105.77 79.7178 105.113 81.1465C104.506 82.4687 102.843 83.6121 101.391 83.7015C99.7312 83.8036 99.2032 82.7748 99.0993 81.2603C98.9389 78.9226 99.6224 76.7185 101.79 75.5596C103.27 74.7681 104.999 74.3781 106.672 74.3781C107.415 74.3781 107.771 74.5666 107.981 75.3033C108.18 75.9989 108.642 77.9105 107.64 78.2712C106.091 78.8288 104.09 77.9191 103.896 76.1716C103.76 74.9429 103.849 74.1746 105.163 74.0223C106.514 73.8656 107.341 74.0516 108.366 74.919C109.315 75.7219 109.98 76.9605 110.472 78.0861C111.177 79.6977 109.381 81.2819 108.722 82.577C107.214 85.537 104.226 86.835 101.071 87.381C100.305 87.5135 99.5486 87.7403 98.7648 87.6942C98.0181 87.6502 97.4769 87.1403 96.9357 86.6764C95.6581 85.5813 94.5973 84.2031 93.6334 82.8261C93.4145 82.5134 93.331 82.1465 93.0569 81.8724C92.7425 81.558 92.7832 81.8229 93.0071 82.0717C93.5035 82.6232 94.0526 83.1522 94.5942 83.6588C95.0726 84.1063 95.5126 84.6975 96.039 85.0822C96.7763 85.621 95.668 85.5234 95.2988 85.5234C94.4039 85.5234 93.9689 85.5054 93.2491 84.9398C92.2784 84.1771 90.9779 82.4531 90.9431 81.1678C90.9148 80.1187 90.6401 78.9763 91.0997 77.9651C91.7449 76.5458 92.475 75.2358 93.5053 74.065C95.3632 71.9538 97.6194 71.158 100.295 70.5349C101.671 70.2144 103.092 70.2787 104.494 70.2787C105.755 70.2787 106.792 70.9252 107.981 71.4604C110.587 72.6327 110.928 76.2547 110.928 78.6057C110.928 79.7655 111.158 81.2072 110.8 82.3208C110.17 84.2788 107.899 85.6808 105.989 86.0928C104.119 86.4961 101.631 86.8121 100.238 85.1961C99.2067 83.9997 98.8876 81.8813 98.7861 80.3707C98.6458 78.2816 98.5961 76.3855 99.7825 74.6059C100.347 73.7595 101.068 72.0194 102.288 72.2145C106.487 72.2145 105.195 74.0727 105.476 75.5169C105.654 76.4329 105.304 76.9587 104.394 76.7837C103.105 76.5357 102.547 74.0021 104.039 73.6664C107.227 72.949 107.648 77.7189 107.59 79.7515C107.508 82.619 105.972 86.2684 102.928 87.0607C101.412 87.4555 99.7831 87.6444 98.2168 87.5732C96.2563 87.484 96.3236 83.6419 96.3236 82.4489C96.3236 79.8892 96.7809 77.4094 99.5833 76.6342C100.562 76.3636 101.646 76.2184 102.658 76.1787C103.574 76.1428 104.708 75.9671 105.448 76.6129C106.922 77.9002 107.676 80.7658 107.462 82.6909C107.368 83.5357 106.301 82.1622 106.188 81.9364" stroke="black" stroke-width="3" stroke-linecap="round"/>
<path d="M149.858 78.2891C149.191 78.2891 148.505 78.4298 147.858 77.7231C147.338 77.3881 147.006 76.8505 146.748 76.3629C146.505 75.901 146.5 75.0077 146.5 74.4993C146.5 74.1808 147.404 74.2132 147.691 74.1016C148.275 73.8745 149.098 74.1451 149.554 74.5203C150.063 74.9385 149.968 75.7769 149.952 76.3629C149.943 76.6936 149.712 76.9878 149.533 77.2475C149.142 77.8172 148.408 77.2054 148.068 76.8654C147.214 76.0116 146.5 75.1965 146.5 74C146.5 73.5929 147.544 73.1944 147.858 73.2013C148.669 73.2189 149.477 74.3397 149.931 74.8972C150.286 75.3329 150.364 75.9019 150.324 76.4518C150.309 76.6569 150.224 77.3057 149.936 77.3417C149.146 77.4406 148.173 77.2528 147.597 76.6874C147.053 76.1538 147.031 75.7134 147.031 74.9914" stroke="white" stroke-width="3.5" stroke-linecap="round"/>
<path d="M104.779 78.7618C103.633 78.7618 101.41 79.061 101.219 77.4951C101.116 76.6452 101.008 75.2579 101.921 74.8569C103.107 74.3361 104.17 73.8562 105.5 73.9992C105.955 74.3567 106.778 74.3319 107 74.9992C107.411 76.2323 106.855 77.1968 105.983 77.999C105.504 78.4394 104.577 78.0159 104.365 77.0973C104.303 76.8266 104.132 75.7363 104.35 75.506C104.588 75.2547 105.313 75.5828 105.475 75.7625C105.583 75.8823 106.083 76.5937 105.983 76.7832C105.726 77.2711 104.504 77.3841 104.041 77.4375C103.908 77.4529 103.04 77.7002 103.198 77.3276C103.343 76.9856 103.841 76.9545 104.119 77.0659" stroke="white" stroke-width="3" stroke-linecap="round"/>
<path d="M61.6797 62.1867C61.6797 48.71 62.1885 30.967 72.3693 20.7861C78.7232 14.4322 88.2659 9.39468 96.778 14.8667C104.656 19.9311 106.612 31.64 106.806 40.3896C106.896 44.432 106.806 53.8449 110.452 55.6326" stroke="black" stroke-width="4" stroke-linecap="round"/>
<path d="M111.191 55.9181C113.633 55.9181 119.505 57.9686 121.08 55.2914C121.82 54.0332 123.275 53.2204 124.039 51.8442C125 50.1154 125.173 47.2121 125.606 45.2633C127.129 38.4098 127.215 31.3676 128.601 24.4411C129.756 18.6625 131.584 8.7755 137.549 6.0911C143.137 3.57678 151.417 1.87479 157.571 3.58407C164.709 5.56699 165.494 8.86238 168.225 15.179C171.095 21.8153 170.203 30.41 170.767 37.4637C171.109 41.7356 172.127 46.2463 172.574 50.2687C173.202 55.9181 174.362 59.1312 174.362 62.7829C174.362 67.1761 175.256 70.8278 175.256 73.9563C175.703 79.3196 175.256 85.2773 175.256 87.8114C175.256 100.202 177 101.713 177 114.172C177 120.212 174.12 129.888 168.991 133.636C163.55 137.612 157.553 138.65 150.711 138.65C136.69 138.65 122.67 138.65 108.649 138.65C87.1419 138.65 65.6349 138.65 44.1279 138.65C34.0847 138.65 25.7858 137.046 16.2373 134.924C9.14777 133.349 5.42011 124.907 3.38883 117.309C1.38984 113.311 1.69035 105.806 3.38884 101.985C4.79829 98.8134 7.65479 96.7501 11.0492 94.1502C14.4436 91.5503 18.2154 91.6432 21.2514 91.6432C26.3699 91.6432 31.4884 91.6432 36.6069 91.6432C40.8398 91.6432 45.7581 91.5086 49.7687 90.0763C52.6142 89.06 57.0906 87.6615 59.0308 85.2363C59.9218 84.1225 60.2008 81.1134 60.3932 79.7665C60.8402 76.638 61.6771 73.8013 61.6771 71.2747C61.6771 67.3093 61.6771 59.3604 61.6771 55.2914" stroke="black" stroke-width="4" stroke-linecap="round"/>
<path d="M102.582 122.238C114.213 122.238 125.844 122.238 137.475 122.238C140.42 122.238 143.379 121.735 146.309 121.907C150.004 122.124 153.832 122.16 157.571 120.913" stroke="black" stroke-width="4" stroke-linecap="round"/>
<path d="M82.3238 140.114C82.3238 142.34 81.4679 143.502 80.288 145.317C79.1522 147.064 77.9097 149.026 76.5866 150.643C74.862 152.751 73.0902 154.815 71.4253 156.956C66.7619 162.951 63.7174 169.563 58.3144 174.966C55.9955 177.285 54.7389 178.541 50.7165 182.564C47.9523 186.151 44.8526 187.258 43.2741 189.713C41.8314 191.957 39.7578 194.91 39.7578 197.671C39.7578 199.574 40.2049 203.758 42.1843 204.889C45.4567 206.759 50.3625 205.446 53.5352 204.148C58.608 202.073 63.2373 197.751 66.4901 193.414C67.9955 191.407 68.9491 189.127 70.3971 187.122C71.6196 185.429 73.2118 183.406 74.1807 181.57C76.1512 177.836 78.2156 174.24 80.103 170.466C83.1361 164.399 86.3614 158.186 88.6984 151.876C89.5997 149.443 90.9288 146.165 92.6877 144.186C93.7231 143.021 94.2797 140.429 95.6488 139.744" stroke="black" stroke-width="4" stroke-linecap="round"/>
<path d="M96.759 140.114C96.759 143.519 97.1521 147.19 96.3066 150.478C95.346 154.214 93.9332 157.709 92.6052 161.294C91.1056 165.343 88.1463 169.625 85.5726 173.057C82.7587 176.808 81.3299 181.432 79.1774 185.497C76.75 190.082 75.7458 194.184 72.6172 199.1C70.1064 203.046 69.7974 204.149 65.4662 207.145C61.0246 211.3 59.375 213.437 59.375 217.288C59.375 220.14 60.7882 220.434 63.4465 220.434C74.1565 220.434 83.2713 210.894 87.8757 201.927C88.9172 199.899 90.0843 198.068 91.0219 195.985C92.212 193.34 92.9746 190.473 94.1681 187.862C95.7277 184.451 97.3753 181.339 99.1444 178.053C102.485 171.85 103.241 164.278 105.642 157.675C106.856 154.337 107.349 150.591 108.418 147.167C109.048 145.151 110.454 142.569 110.454 140.484" stroke="black" stroke-width="4" stroke-linecap="round"/>
<path d="M110.452 140.484C110.452 150.659 105.192 159.997 104.18 170.116C103.856 173.363 103.42 176.612 103.42 179.884C103.42 182.685 103.618 186.26 102.864 188.973C102.202 191.358 102.143 194.45 101.96 196.931C101.748 199.792 101.958 202.606 101.958 205.5C103.415 218 96.5017 221 97.5017 227C98.3017 231.8 101.78 231.667 103.42 231C108.499 230 111.499 225 113.043 218.954C113.043 205.505 113.043 192.057 113.043 178.609C113.043 170.648 114.448 162.055 117.485 154.632C118.612 151.876 119.567 149.069 120.898 146.407C121.914 144.376 130.499 142.772 130.499 140.484" stroke="black" stroke-width="4" stroke-linecap="round"/>
<path d="M133.396 140.104C131.908 142.252 129.012 146.012 127.641 148.256C125.84 151.202 123.896 154.852 122.664 158.99C121.101 164.238 119.703 169.7 119.703 175.256C119.703 180.088 119.778 184.257 121.101 188.889C122.412 193.477 122.803 198.387 123.96 203.016C125.363 208.627 126.729 214.265 127.558 219.981C127.936 222.58 127.926 223.476 126.551 225.615C125.763 226.841 124.659 227.873 123.96 229.131C122.674 231.446 121.775 236.496 123.405 238.94" stroke="black" stroke-width="4" stroke-linecap="round"/>
<path d="M123.406 238.939C127.739 238.939 132.859 238.815 135.785 235.053C139.275 230.566 140.803 224.27 140.803 218.582C140.803 214.528 141.336 210.436 139.487 206.737C137.837 203.438 135.943 199.836 133.955 196.744C131.786 193.369 130.18 188.153 130.069 184.159C130.003 181.803 129.982 179.399 130.069 177.044C130.114 175.81 130.809 174.552 130.809 173.425" stroke="black" stroke-width="4" stroke-linecap="round"/>
<path d="M130.809 173.427C130.809 169.939 131.256 167.145 132.659 163.988C133.982 161.011 135.2 157.748 137.101 155.002C138.201 153.413 139.418 151.738 140.617 150.273C141.425 149.286 141.849 147.568 142.838 146.777C143.965 145.876 143.915 143.784 144.874 142.705C145.634 141.85 146.578 140.038 147.095 139.004" stroke="black" stroke-width="4" stroke-linecap="round"/>
<path d="M86.345 140.26C86.345 139.35 86.2273 136.642 85.633 135.899C85.2832 135.462 84.4345 135.802 84 135.464C83.8258 135.329 78.503 134.204 79.0017 134.426C79.6912 134.732 85.7804 134.962 86.345 135.464C87.0337 136.076 88.2519 136.871 88.471 137.857C88.5428 138.18 88.6401 139.705 88.3919 139.904C88.2073 140.052 88.1979 140.63 88.4809 139.993C88.7206 139.454 89.2674 139.032 89.6379 138.579C90.3828 137.669 92.1633 135.988 93.3758 135.988C93.7371 135.988 93.1191 136.344 92.9308 136.522C92.4435 136.984 91.8996 137.428 91.5068 137.986C91.2075 138.411 90.9047 138.923 90.6564 139.37C90.395 139.841 89.9487 140.146 89.6873 140.616C89.3505 141.222 89.7884 140.571 90.2609 140.22C90.8289 139.798 91.4916 139.287 92.0013 138.796C92.6821 138.142 93.6009 137.583 94.4932 137.274C95.9477 136.77 97.5711 136.311 98.9826 137.096C100.429 137.899 100.686 139.636 101.692 140.754C102.268 141.395 102.187 141.941 102.187 140.705C102.187 140.053 101.415 139.23 101.039 138.747C100.105 137.546 100.054 140.762 100.238 141.407C100.426 142.063 101.13 142.668 101.287 143.375C101.392 143.849 101.587 145.288 101.939 144.779C103.173 142.998 104.603 141.424 105.924 139.726C106.426 139.081 107.071 138.501 107.437 137.768C107.76 137.123 108.17 136.432 108.683 135.919C109.105 135.498 108.593 135.632 108.149 135.632C107.192 135.632 106.53 135.914 105.657 136.255C104.694 136.632 103.336 137.266 102.81 138.213C102.578 138.63 103.304 138.41 103.522 138.579C103.834 138.822 104.145 139.238 104.145 139.647C104.145 140.797 104.453 141.352 105.311 140.26C105.986 139.401 106.947 138.729 107.625 137.857C108.167 137.16 108.76 136.356 109.395 135.721C109.645 135.472 110.382 134.726 110.186 135.019C109.932 135.401 109.232 135.881 108.871 136.156C107.642 137.093 107.246 138.179 106.557 139.459C106.135 140.244 106.213 141.092 105.964 141.902C105.64 142.953 105.206 143.913 104.718 144.888C103.875 146.575 106.409 141.453 107.704 140.082C108.285 139.467 108.275 139.736 108.683 139C108.866 138.671 110.048 138.19 110.501 138.164C112.028 138.074 113.554 138.273 114.001 139.726C114.545 141.493 114.468 142.15 114.468 143.998C114.468 144.384 114.468 144.769 114.468 145.155C114.468 145.605 114.29 144.758 114.29 144.621C114.29 143.574 114.903 142.941 115.536 142.129C116.488 140.909 117.587 139.765 118.463 138.49C118.713 138.127 120.657 136.379 120.322 136.077C119.532 135.365 118.052 135.454 117.059 135.454C115.805 135.454 115.536 137.633 115.536 138.559C115.536 139.208 115.847 140.141 116.515 140.438C118.148 141.164 119.819 139.71 120.698 138.441C122.194 136.279 124.89 135.121 127.323 134.426C129.03 133.938 131.165 134.208 132.94 134.208C133.679 134.208 132.95 134.318 132.485 134.169C132.093 134.042 131.611 133.852 131.2 133.852C130.587 133.852 128.115 133.425 129.954 133.496C132.327 133.587 133.668 135.463 135.294 136.839C136.962 138.25 138.621 139.69 137.252 142C137.035 142.366 136.147 144.275 135.689 144.275C135.673 144.275 136.865 143.218 137.074 143.108C137.546 142.858 137.534 142.463 137.746 142.04C138.741 140.05 140.192 137.806 140.278 135.494C140.322 134.3 140.278 136.45 140.278 136.779C140.278 138.21 140.278 139.64 140.278 141.071C140.278 141.773 140.278 141.068 140.278 140.794" stroke="#CBA2A3" stroke-width="4" stroke-linecap="round"/>
<path d="M140.281 140.796C140.281 139.322 141.963 137.437 142.812 136.346C143.447 135.529 144.528 134.957 145.403 134.427C145.638 134.285 146.943 133.253 146.689 133.953C146.165 135.393 145.088 136.44 144.058 137.552C143.351 138.316 142.706 139.083 141.972 139.817C141.494 140.295 140.915 140.758 140.548 141.33C140.266 141.769 139.457 142.332 140.202 141.587C141.427 140.361 142.821 139.39 144.019 138.126C145.847 136.196 148.218 134.531 150.783 133.676" stroke="#CBA2A3" stroke-width="4" stroke-linecap="round"/>
<path d="M135.688 146C135.519 145.983 135.509 144.229 135.636 144.01C135.849 143.643 136 143.149 136 142.744C136 141.937 135.851 140.779 134.861 140.343C134.109 140.012 133.156 139.972 132.358 139.651C131.243 139.202 130.13 139.081 128.873 139.081C128.174 139.081 127.471 139 126.763 139C126.108 139 125.595 139.182 124.971 139.307C123.658 139.572 122.404 139.963 121.069 140.185C119.96 140.369 118.435 140.615 118 141.523" stroke="#CBA2A3" stroke-width="6" stroke-linecap="round"/>
<path d="M100.121 141.521C100.064 140.325 99.2586 138.593 97.911 138.531C96.6213 138.473 95.5206 138.356 94.2571 138.761C92.8644 139.208 91.5903 139.673 90.3477 140.486C89.4686 141.062 88.1826 141.942 87.7031 142.901" stroke="#CBA2A3" stroke-width="3" stroke-linecap="round"/>
<path d="M114.953 137.382C114.431 139.932 113.812 142.404 112.883 144.83C112.327 146.281 111.497 147.517 110.724 148.855C110.196 149.769 109.711 151.299 109.664 152.355C109.588 154.06 109.13 155.847 108.859 157.529C108.594 159.172 108.257 160.814 107.939 162.448C107.615 164.113 107.51 165.785 107.249 167.456C107.129 168.225 107.141 168.99 107.019 169.756C106.912 170.422 106.789 171.059 106.789 171.736C106.789 172.894 106.789 174.053 106.789 175.211C106.789 175.911 107.019 176.615 107.019 177.281" stroke="#CBA2A3" stroke-width="3" stroke-linecap="round"/>
<path d="M111.648 146.364C111.648 145.644 111.648 144.923 111.648 144.203C111.648 143.412 111.827 142.376 111.589 141.614C111.394 140.99 111.401 140.324 110.911 139.816C110.436 139.323 109.793 139.084 109.224 138.722C108.896 138.513 109.1 138.756 109.217 138.9C109.581 139.347 109.977 139.771 110.351 140.211C111.498 141.56 112.265 143.068 112.505 144.822C112.857 147.39 113.001 150.159 111.793 152.53C111.435 153.233 110.801 153.95 110.252 154.52C109.988 154.793 109.988 154.672 109.988 154.348C109.988 153.686 109.942 153.008 110.048 152.352C110.326 150.623 110.501 148.926 110.693 147.194C110.843 145.849 110.552 144.672 110.199 143.399C110.007 142.71 108.965 141.346 108.328 141.028" stroke="#CBA2A3" stroke-width="3" stroke-linecap="round"/>
<path d="M131.451 149.314C131.451 148.151 132.14 147.089 132.202 145.914C132.25 144.986 132.449 143.946 132.113 143.05C131.929 142.558 131.569 142.208 131.3 141.767C131.017 141.304 130.656 140.936 130.206 140.635C129.857 140.403 129.484 140.238 129.112 140.048C128.897 139.939 128.726 139.727 128.508 139.654" stroke="#CBA2A3" stroke-width="3" stroke-linecap="round"/>
<path d="M86.4932 140.825C86.4932 140.236 86.4932 139.646 86.4932 139.057C86.4932 138.379 85.9243 138.319 85.6089 137.782C85.1525 137.006 83.9934 136.219 83.3331 135.559C82.4999 134.725 81.3919 133.974 80.277 133.569C79.4755 133.277 78.6192 133.068 77.7801 132.919C76.8358 132.751 75.738 132.398 74.7891 132.398" stroke="#CBA2A3" stroke-width="3" stroke-linecap="round"/>
</svg>
