<svg width="136" height="167" viewBox="0 0 136 167" fill="none" xmlns="http://www.w3.org/2000/svg">
<path d="M112.074 163.312C100.589 166.184 87.7468 145.366 82.7617 134.598L105.494 129.214L109.681 139.384L113.271 142.973C116.062 141.776 122.124 139.384 124.039 139.384C125.953 139.384 128.425 141.776 129.422 142.973V147.759C128.425 151.747 123.56 160.441 112.074 163.312Z" fill="#A2C6CB"/>
<path d="M28.3211 127.419C31.3122 126.821 31.3122 121.437 31.3122 120.839L45.0717 129.812C43.6759 131.607 40.8842 135.675 40.8842 137.589C40.8842 139.982 33.7057 147.16 31.3122 147.16C28.9188 147.16 23.536 145.964 21.7414 144.169C19.9467 142.375 16.3575 143.571 15.161 147.16C13.9646 150.75 10.3747 151.946 5.589 151.348C0.803284 150.75 2.59793 135.196 3.19614 131.607C3.79436 128.017 6.78543 123.83 8.58007 123.232C10.0158 122.753 15.958 124.229 18.7497 125.026C20.9432 126.023 25.9283 127.898 28.3211 127.419Z" fill="#A2C6CB"/>
<path d="M133.999 68.0281C133.999 86.6079 129.115 103.838 119.565 116.371C110.061 128.844 95.8554 136.786 76.8342 136.786C57.5979 136.786 42.7403 130.889 32.6891 120.595C22.6306 110.293 17.1602 95.3566 17.1602 76.8466C17.1602 58.4612 24.651 39.6897 36.3351 25.5196C48.0309 11.3353 63.7157 2 79.9702 2C112.521 2 133.999 30.8746 133.999 68.0281Z" fill="#A2C6CB" stroke="black" stroke-width="4"/>
<circle cx="100.107" cy="52.6433" r="14.3571" fill="white"/>
<circle cx="58.2321" cy="49.0525" r="14.3571" fill="white"/>
<path d="M30.924 120.839C30.924 121.768 31.4003 124.308 30.804 125.081C30.1247 125.961 29.4212 126.759 28.5016 127.365C27.5983 127.96 27.3684 128.235 26.2832 128.235C25.2537 128.235 24.1971 127.547 23.4771 126.821C22.8893 126.229 21.8206 125.838 21.0428 125.576C19.6454 125.107 18.3177 124.446 16.9417 123.933C14.3131 122.952 11.5047 122.667 8.70336 123.232C5.35542 123.907 4.30877 128.519 3.2951 131.329C2.06652 134.734 2 138.798 2 142.375C2 144.719 2.75514 148.043 4.37436 149.771C5.83975 151.334 7.2446 151.946 9.33892 151.946C11.5436 151.946 13.6694 150.216 14.3035 148.139C15.0468 145.705 16.438 143.245 19.2201 143.245C20.956 143.245 21.8792 145.42 23.693 145.42C24.4788 145.42 25.1865 146.247 25.9594 146.29C26.8845 146.342 27.7516 146.508 28.7175 146.508C30.7324 146.508 32.4647 146.786 34.0538 145.541C35.7359 144.222 37.3403 141.85 38.4308 139.982C39.2173 138.634 40.2046 137.21 40.8531 135.74C41.274 134.785 41.9118 133.928 42.412 133.021C42.7845 132.345 43.875 131.397 43.875 130.628" stroke="black" stroke-width="4" stroke-linecap="round"/>
<path d="M84.5508 138.806C87.0858 141.408 89.0892 144.648 91.0932 147.667C92.3232 149.52 93.9843 151.091 95.1607 152.98C95.9399 154.232 97.1471 155.259 98.2597 156.228C99.6872 157.47 100.844 158.961 102.177 160.293C102.935 161.051 103.832 161.884 105.857 163.197C107.881 164.51 109.009 164.172 110.872 164.51C112.361 164.781 115.432 164.072 116.703 163.154C117.851 162.326 119.129 161.654 120.147 160.637C120.665 160.12 121.046 159.465 121.546 158.938C123.453 156.926 125.937 153.578 128.22 150.153C130.613 146.564 129.417 144.171 127.024 141.709C124.631 139.248 118.339 140.486 116.273 141.709C115.298 142.287 113.34 143.177 112.205 142.828C110.911 142.43 110.229 140.902 109.343 139.967C107.498 138.021 106.986 135.063 105.857 132.805" stroke="black" stroke-width="4" stroke-linecap="round"/>
<path d="M57.3944 62.654C55.9694 62.654 54.3326 62.1786 52.91 62.1092C51.8974 62.0599 50.9212 61.8337 49.9423 61.589C49.0249 61.3596 48.0806 61.3006 47.2018 60.9295C45.9819 60.4144 44.8465 58.8448 44.476 57.6321C43.8516 55.5888 43.8751 53.6491 43.8751 51.5356C43.8751 48.9391 44.4903 46.3468 45.5311 43.9736C46.0724 42.7396 46.6358 41.5606 47.407 40.4564C48.151 39.3911 48.8764 38.7407 49.913 37.9504C52.1825 36.2198 54.5076 35.0708 57.3944 34.8142C59.941 34.5878 62.2064 34.6333 64.6487 35.4077C66.4354 35.9742 68.1423 37.0548 69.4629 38.3754C70.0933 39.0058 70.781 39.7068 71.1042 40.559C71.4428 41.4515 71.5413 42.4072 71.7784 43.3214C72.7169 46.9416 72.7665 51.3164 70.4448 54.474C69.0726 56.3401 67.5734 58.1883 65.6379 59.4787C64.4832 60.2485 63.5104 61.156 62.2086 61.6623C61.1901 62.0584 60.0201 62.6125 58.9112 62.6442C57.9459 62.6717 56.9752 62.6442 56.0095 62.6442" stroke="black" stroke-width="4" stroke-linecap="round"/>
<path d="M89 63.999C90.5159 65.9288 87.4417 62.225 87.1376 61.8253C85.943 60.2553 85.2971 58.2927 85.0565 56.3443C84.8928 55.018 84.8953 53.7075 84.8953 52.3727C84.8953 51.1696 84.8524 50.0313 85.3936 48.9288C85.8203 48.0596 86.3669 47.2695 87.013 46.5474C87.9319 45.5204 88.7907 44.4048 89.7462 43.4185C91.3121 41.802 93.1737 39.7554 95.3151 38.9341C97.5698 38.0692 99.8854 37.9815 102.276 37.9815C104.766 37.9815 107.256 37.8091 109.399 39.3297C110.14 39.856 110.755 40.7447 111.274 41.4767C111.848 42.2855 112.627 43.093 113.055 43.9827C113.473 44.8503 113.949 45.6428 114.279 46.5547C114.692 47.6989 114.786 48.9093 114.902 50.1085C115.127 52.4498 114.982 54.84 113.78 56.9085C112.638 58.8756 111.668 60.8181 109.956 62.3748C108.458 63.7366 106.591 64.8654 104.804 65.8114C101.847 67.3772 98.6265 67.2623 95.3884 67.2623C94.2344 67.2623 92.4133 67.2216 91.4242 66.5369C90.642 65.9954 89.853 65.3505 89.2479 64.6244" stroke="black" stroke-width="4" stroke-linecap="round"/>
<path d="M98.9782 55.1804C98.9782 54.4246 98.7808 53.3273 98.9898 52.5958C99.1008 52.2072 101.748 52.4346 102.047 52.7343C104.054 54.7405 97.8093 56.6955 97.3282 54.0497C96.7909 51.0946 99.4272 50.2715 101.886 50.6227C102.704 50.7395 103.983 52.2358 103.501 53.1035C102.995 54.015 100.119 54.142 99.1859 54.142" stroke="black" stroke-width="4" stroke-linecap="round"/>
<path d="M57.3421 51.9224C55.3157 51.9224 53.3441 51.1821 52.3905 49.275C51.7453 47.9845 51.6271 45.8869 53.4691 45.7452C55.7177 45.5722 56.7444 44.6939 57.6853 47.4121C58.1456 48.742 58.7155 51.2202 56.4596 49.7162" stroke="black" stroke-width="4" stroke-linecap="round"/>
<path d="M44.543 57.6591C44.543 67.8284 55.4659 66.0424 62.8539 66.0424C65.0442 66.0424 66.1168 62.758 66.9475 61.1889C68.1922 58.8379 70.9788 57.7726 71.8991 55.0117" stroke="black" stroke-width="4" stroke-linecap="round"/>
<path d="M85.5 58.9837C85.5 61.1849 87.7754 64.7116 89.3277 66.2639C91.7301 68.6663 93.9272 69.1319 97.2698 69.1319C100.968 69.1319 103.81 68.7559 107.295 67.465C109.654 66.5915 113.661 63.0983 113.816 60.3073C113.857 59.5639 114.881 57.3932 113.375 58.9837C111.152 61.33 109.66 64.2706 107.197 66.46C104.296 69.0388 99.8672 69.5731 96.1422 69.5731C92.4277 69.5731 88.6133 69.3021 86.5578 65.6021C84.9964 62.7916 85.136 60.3447 85.136 57.2188" stroke="black" stroke-width="4" stroke-linecap="round"/>
<path d="M72 52.5C69 65.5 66.9818 64.5636 66 65C64.4004 65.7109 63.5 66.5 58.5 66.5" stroke="black" stroke-width="4" stroke-linecap="round"/>
<path d="M52.1562 97.012C57.8367 104.953 69.5417 106.537 80.0375 106.537C83.8065 106.537 85.953 106.443 88.9664 104.375C92.1368 102.199 97.7424 99.203 98.817 95.7695" stroke="black" stroke-width="4" stroke-linecap="round"/>
</svg>
