<svg width="163" height="433" viewBox="0 0 163 433" fill="none" xmlns="http://www.w3.org/2000/svg">
<path d="M152.484 140.131C140.049 159.097 134.984 156.592 130.984 173.631C130.492 175.729 146.19 211.792 148.984 259.999C151.778 308.181 145 359.999 150.5 384.499C153.981 400.007 139.5 380.999 135.5 387.999L102 375.499C107 352.999 104.424 349.035 107.5 327.999C123 221.999 100.17 175.67 97.8681 175.67C91.0026 175.67 60.3945 175.064 40.4844 171.631C20.5742 168.198 4.49764 135.164 1.75144 111.821C-0.994755 88.4777 17.5421 65.8229 52.5561 49.3458C87.5701 32.8686 118.701 42.7732 139.984 55.131C161.267 67.4889 166.594 118.61 152.484 140.131Z" fill="#E8D821"/>
<path d="M96.905 175.187C87.9986 175.187 79.0921 175.187 70.1857 175.187C58.031 175.187 43.5778 175.751 32.5946 169.474C21.5679 163.173 12.2359 148.337 7.44164 136.951C-4.69374 108.129 5.86004 73.618 32.5946 58.7279C58.0964 44.5243 81.9338 36.3147 111.462 42.5121C126.803 45.7316 148.094 54.6107 154.029 70.7976C159.451 85.5846 162.705 103.926 159.833 119.721C157.8 130.907 146.986 148.131 140.393 158.131C122.986 175.187 140.393 184.631 140.393 208.631" stroke="black" stroke-width="4" stroke-linecap="round"/>
<path d="M151 383C148 358.5 147.5 330.5 148 319.5C148 311.5 149.5 300 149.5 272C150.021 261.997 146 246.5 140.5 210.5" stroke="black" stroke-width="4" stroke-linecap="round"/>
<path d="M101 371C104.565 347.5 104 348.5 108.5 319.5C113 290.5 114 264 114 264C114.237 256.765 113.537 224.314 113.475 217.075C113.397 207.787 109.994 198.356 107.431 189.503C106.34 185.734 101.941 176.616 97.4844 175.131" stroke="black" stroke-width="4" stroke-linecap="round"/>
<path d="M149.679 46.8526C145.462 54.0825 131.669 52.7226 125.299 51.139C113.854 45.9619 89.7116 48.7938 84.0606 51.1831C65.0176 38.6762 61.2019 46.8975 52.4186 54.7133C43.6353 62.5291 33.7736 64.385 21.7378 61.695C9.7019 59.005 0.342207 49.6663 2.7456 37.9362C4.66831 28.5522 12.0565 24.7523 15.5102 24.0254C21.2146 22.419 33.1655 27.8791 24.3065 30.5752C16.2011 33.0419 17.473 37.4738 23.338 38.2171C29.203 38.9604 34.0866 32.9793 41.8554 22.3174C49.6242 11.6555 59.7279 7.88946 70.2497 8.05828C78.6671 8.19333 88.1821 14.8602 91.8873 18.1768C93.8856 16.8772 99.8286 14.8352 107.614 17.0642C117.346 19.8503 119.711 33.7376 127.993 37.1165C136.274 40.4953 137.951 34.4964 133.939 33.5997C129.927 32.7031 130.363 29.2643 134.714 27.4864C139.065 25.7085 144.688 28.3622 146.347 29.7372C148.007 31.1121 154.95 37.8153 149.679 46.8526Z" fill="black" stroke="black" stroke-width="1.70422"/>
<path d="M121.984 71.1426C109.184 71.1426 102.651 83.4759 100.984 89.6426C98.5314 95.6426 101.984 102.643 103.984 105.143C105.984 107.643 112.484 115.643 128.984 115.143C142.184 114.743 147.818 109.309 148.984 106.643C149.318 104.976 149.784 100.243 148.984 94.6426C148.184 89.0426 144.318 82.6426 142.484 80.1426C140.984 77.1426 134.784 71.1426 121.984 71.1426Z" fill="white"/>
<path d="M56.9844 73.6423C64.9844 80.0423 70.3177 91.309 71.9844 96.1423L66.4844 103.143L60.4844 110.143C57.4844 111.976 49.6844 115.943 42.4844 117.143C33.4844 118.643 29.4844 117.643 23.9844 114.643C19.5844 112.243 15.151 103.643 13.4844 99.6426C14.3177 97.6426 17.0844 91.8426 21.4844 84.6426C25.8844 77.4426 33.651 71.6424 36.9844 69.6423C40.3177 68.309 48.9844 67.2423 56.9844 73.6423Z" fill="white" stroke="black"/>
<path d="M13.4844 101.313C13.4844 100.064 13.4708 99.2187 14.1005 98.088C14.8428 96.7552 15.6863 95.5164 16.4018 94.1649C17.9372 91.2647 19.4744 88.4959 21.2944 85.766C22.5278 83.9159 23.6406 81.9505 24.9638 80.1576C26.3026 78.3439 27.9784 76.7261 29.5574 75.1291C30.9899 73.6804 32.5845 72.6541 34.3322 71.5684C35.7052 70.7155 37.1735 69.6304 38.7627 69.2218C45.7549 67.4238 53.8127 69.9561 59.0669 74.8211C60.2992 75.962 61.7204 77.0406 62.7273 78.3999C64.0306 80.1593 65.047 82.1487 66.1612 84.0264C67.5972 86.4463 68.7972 88.9022 69.9846 91.4468C70.4168 92.3728 70.7881 93.344 71.1987 94.2827C71.3506 94.6299 71.3626 95.2706 71.7061 95.4424" stroke="black" stroke-width="3.5" stroke-linecap="round"/>
<path d="M13.6484 100.662C13.6484 102.166 14.5763 103.295 15.4061 104.449C16.6365 106.161 17.8744 107.959 19.3564 109.469C21.4864 111.639 23.1644 114.106 25.59 115.992C27.1328 117.192 29.241 117.442 31.1349 117.587C33.3644 117.757 35.5463 117.45 37.7489 117.17C38.9979 117.011 40.2769 116.994 41.5361 116.971C43.442 116.935 45.5658 116.152 47.3348 115.494C50.5937 114.281 53.7743 112.736 56.9568 111.335C59.7294 110.115 62.3581 108.407 64.0329 105.79C64.7145 104.725 65.4884 103.734 66.3343 102.782C67.3742 101.612 68.804 100.793 69.9131 99.6836C70.9762 98.6205 71.707 97.4595 71.707 95.9326" stroke="black" stroke-width="3.5" stroke-linecap="round"/>
<path d="M100.086 92.5069C100.086 90.9323 100.22 89.7359 101.064 88.3482C102.044 86.739 102.997 85.0861 103.918 83.4556C104.847 81.8134 106.004 80.1961 107.262 78.7986C107.952 78.0321 108.49 77.1087 109.219 76.3795C109.837 75.7609 110.66 75.2857 111.339 74.7305C112.956 73.407 114.698 72.3572 116.395 71.1789C116.841 70.8685 117.245 70.8165 117.772 70.8165C119.317 70.8165 120.857 70.532 122.392 70.3635C126.687 69.8921 131.164 70.4973 134.823 72.9366C137.878 74.9732 140.513 77.7041 142.651 80.6741C143.897 82.4044 145.044 84.2718 146.085 86.1466C146.67 87.1998 147.387 88.3392 147.77 89.4898C148.115 90.5249 148.176 91.6811 148.432 92.7425C149.132 95.6419 148.849 98.7975 148.849 101.767C148.849 103.185 149.175 104.502 149.175 105.88" stroke="black" stroke-width="3.5" stroke-linecap="round"/>
<path d="M149.171 105.881C149.128 106.27 148.553 106.722 148.319 107.022C147.732 107.778 146.919 108.321 146.235 108.979C144.732 110.427 142.69 111.278 140.944 112.395C139.856 113.092 138.328 113.712 137.066 113.999C135.831 114.28 134.528 114.345 133.343 114.76C132.113 115.19 130.714 115.207 129.438 115.349C128.293 115.476 127.172 115.666 126.013 115.666C124.856 115.666 122.175 115.981 121.609 114.851" stroke="black" stroke-width="3.5" stroke-linecap="round"/>
<path d="M99.8516 91.3652C99.8516 92.6901 99.8516 94.0149 99.8516 95.3398C99.8516 97.1633 100.594 98.8577 101.481 100.461C102.341 102.015 102.937 103.675 104.121 105.055C105.457 106.613 107.012 108.404 108.735 109.59C112.147 111.938 115.862 113.764 119.995 114.677C122.891 115.317 125.885 115.365 128.852 115.365" stroke="black" stroke-width="3.5" stroke-linecap="round"/>
<path d="M61.6016 91.292C61.6016 100.681 54.1016 108.995 43.6016 111.292C27.6016 114.792 25.6016 104.681 25.6016 95.292C25.6016 85.9032 36.765 74.292 45.6016 74.292C54.4381 74.292 61.6016 81.9032 61.6016 91.292Z" fill="black"/>
<path d="M110.602 92.7797C110.602 101.494 115.49 108.66 124.824 110.792C139.046 114.041 142.102 100.592 142.102 94.292C142.102 85.5777 132.679 77.001 124.824 77.001C116.969 77.001 110.602 84.0653 110.602 92.7797Z" fill="black"/>
<path d="M136.79 95.6036C136.79 94.0504 136.735 92.6838 136.239 91.1956C135.712 89.6166 134.845 88.3891 133.924 87.008C133.105 85.7785 132.343 84.8165 131.28 83.8121C130.823 83.3812 130.076 82.8203 129.406 82.8203" stroke="white" stroke-width="4" stroke-linecap="round"/>
<path d="M54.5792 91.0858C54.5792 89.6048 54.5101 88.3022 53.8139 86.9532C53.4905 86.3266 53.2598 85.585 53.0364 84.9145C52.8186 84.2612 52.4208 83.8148 52.069 83.237C51.5072 82.314 50.8433 81.362 49.9997 80.6718C49.4513 80.2231 48.7685 79.902 48.1875 79.5146" stroke="white" stroke-width="4" stroke-linecap="round"/>
<path d="M83.4729 88.2061C83.4729 97.4513 81.5879 108.224 73.3793 113.696C66.7495 118.116 60.6929 122.375 55.0299 128.038C48.8544 134.214 38.3956 148.715 49.3051 155.728C55.1685 159.497 66.1993 158.034 73.0479 156.963C78.6693 156.085 85.9578 152.406 90.4029 148.949C94.3606 145.871 95.6823 142.613 98.6586 138.644" stroke="black" stroke-width="4" stroke-linecap="round"/>
<path d="M98.2305 158.096C102.024 158.096 107.473 159.228 109.729 155.468" stroke="black" stroke-width="4" stroke-linecap="round"/>
<path d="M123.253 375.124C122.314 374.972 123.448 368.965 123.137 364.592C122.826 360.219 125.224 342.651 124.418 339.875" stroke="black" stroke-width="3" stroke-linecap="round"/>
<path d="M119.901 409.036C124.634 404.957 121.873 390.035 119.901 383.083C119.901 374.555 127.263 374.278 130.945 375.204L144.5 376.065C147.655 374.984 153.663 373.629 151.454 380.302C148.694 388.644 151.06 392.815 152.638 402.084C153.9 409.499 153.164 420.004 152.638 424.329C148.825 426.029 139.78 429.427 134.1 429.427C128.42 429.427 121.479 426.647 118.718 425.256C117.14 421.549 115.168 413.114 119.901 409.036Z" fill="#D2855E"/>
<path d="M97.0207 423.403C103.331 425.257 112.272 421.704 115.953 419.695L119.503 411.817L123.052 403.475C121.79 396.801 123.315 381.075 123.052 376.132H115.953L98.204 371.961V378.913C98.4669 385.246 98.9928 398.377 98.9928 400.231C98.9928 402.085 93.208 406.256 90.3156 408.109L87.5547 411.817L88.3435 417.378C88.6065 418.614 90.71 421.549 97.0207 423.403Z" fill="#D2855E"/>
<path d="M151.5 375.743C149.618 378.167 151.603 395.472 152.327 401.418C153.023 407.133 154.337 413.419 153.674 419.209C153.52 420.547 153.423 423.036 152.384 423.785C147.929 426.998 141.236 428.939 136.12 429.799C131.174 430.631 124.773 430.083 120 428.429C116.5 427.216 116.011 424.131 115.5 419.939C114.852 414.618 118.838 411.915 121.448 407.872C123.832 404.178 122.721 399.607 122.721 394.11C122.721 386.42 122.826 379.879 122.322 375.742" stroke="black" stroke-width="4" stroke-linecap="round"/>
<path d="M115.5 420.545C111.435 423.492 100.275 423.884 95.7829 422.432C93.3994 421.661 91.389 421.946 89.9759 419.344C88.8958 417.356 87.6943 414.943 87.5209 412.567C87.3205 409.822 92.3819 406.572 93.9217 404.926C95.6033 403.128 97.7519 402.153 98.536 399.461C100.092 394.116 99.2103 378.444 98.5369 372.917" stroke="black" stroke-width="4" stroke-linecap="round"/>
<path d="M151.503 375.272C147.203 375.995 144.82 376.598 140.471 376.7C138.384 376.749 136.281 376.444 134.198 376.637C133.195 376.73 124.432 375.771 123.524 375.272" stroke="black" stroke-width="4" stroke-linecap="round"/>
<path d="M120.315 375.272C117.039 375.468 102.301 373.23 99.0688 372.445" stroke="black" stroke-width="4" stroke-linecap="round"/>
</svg>
