<svg width="244" height="282" viewBox="0 0 244 282" fill="none" xmlns="http://www.w3.org/2000/svg">
<path d="M18.8597 100.564C39.4487 90.9262 50.4367 100.199 53.3572 106.039L34.1916 165.726V184.891C27.8033 185.986 13.1649 186.863 5.7178 181.606C-1.72927 176.349 3.71001 164.083 7.36054 158.607C9.73338 155.687 14.3695 149.846 13.9315 149.846C13.4934 149.846 6.81296 148.021 3.52749 147.108L2.43233 139.99L8.45569 132.324L17.7645 124.11L9.55085 119.729L10.0984 109.325L18.8597 100.564Z" fill="#E8D821"/>
<path d="M35.2859 271.407C22.144 258.265 40.7624 246.766 54.4513 240.743C59.3802 236.937 45.5833 232.23 41.7503 227.849C37.9172 223.469 38.0812 217.407 37.3696 210.874C32.6904 167.915 37.0048 128.372 39.5602 125.452L43.9408 113.405C43.9408 113.405 58.4695 89.6112 67.5958 83.0403C76.7221 76.4693 90.0465 70.9935 99.2463 67.9562C109.342 64.6229 121.149 56.457 131.553 56.457C141.957 56.457 159.48 73.432 170.432 86.0263C179.193 96.1017 187.224 115.048 190.144 123.262L202.191 162.14L203.286 192.257L192.335 225.111C188.502 228.214 188.502 233.925 197.81 233.325C211.39 232.448 218.436 236.61 220.261 238.8C221.356 243.546 221.794 254.899 214.785 262.346C207.776 269.793 194.342 270.56 188.502 270.012L164.408 268.37L154.004 263.989C151.376 268.37 135.128 266.844 126.731 267.027L101.984 268.37C99.7939 268.552 100.998 267.522 93.8796 270.012C91.3986 270.88 84.7533 274.145 80.1901 276.336C75.6269 278.526 61.9375 280.534 57.7394 279.621C53.5413 278.708 50.8403 279.54 45.5836 278.226C40.3268 276.912 36.9285 272.32 35.2859 271.407Z" fill="#EBB85E"/>
<path d="M35.8359 206.795C36.9311 213.366 37.5775 220.699 41.3117 226.508C42.7239 228.705 50.073 241.292 68.1431 241.292" stroke="black" stroke-width="4" stroke-linecap="round"/>
<path d="M230.225 192.009C218.397 197.266 205.949 196.755 201.203 195.843C204.708 160.359 188.426 116.809 179.848 99.4687C183.681 97.4609 193.318 93.4453 201.203 93.4453C209.088 93.4453 210.695 103.302 210.512 108.23L206.131 119.182H215.988C221.281 119.547 231.758 122.138 231.32 129.586C230.882 137.033 222.741 142.18 218.726 143.823C218.726 144.37 220.588 146.889 228.035 152.584C237.343 159.702 240.081 164.083 240.629 166.273C241.176 168.464 245.01 185.439 230.225 192.009Z" fill="#E8D821"/>
<path d="M149.184 266.151C151.623 266.151 155.094 265.715 157.534 265.715C161.338 265.715 164.683 267.727 168.264 268.73C171.919 269.753 176.429 269.642 180.185 269.642C184.469 269.642 188.754 269.642 193.038 269.642C199.335 269.642 205.582 269.998 210.909 266.151C213.79 264.071 217.025 261.859 218.764 258.574C223.181 250.23 223.619 239.224 214.122 234.475C209.953 232.391 204.372 232.869 199.841 232.869C197.467 232.869 188.992 234.161 187.707 236.73" stroke="black" stroke-width="4" stroke-linecap="round"/>
<path d="M183.808 242.28C185.253 240.509 185.991 238.246 187.428 236.434C188.655 234.887 189.334 233.078 190.356 231.456C191.709 229.311 192.738 226.56 193.911 224.262C196.347 219.486 197.547 213.457 198.665 208.135C200.785 198.042 203.045 187.086 202.537 176.675" stroke="black" stroke-width="4" stroke-linecap="round"/>
<path d="M202.695 186.455C202.695 178.609 202.114 171.124 200.93 163.427C200.397 159.962 199.455 156.668 198.768 153.232C198.262 150.703 197.479 148.076 196.784 145.596C196.385 144.169 196.35 141.948 195.555 140.756" stroke="black" stroke-width="4" stroke-linecap="round"/>
<path d="M175.359 92.0518C177.452 95.9861 182.704 105.194 184.665 112.255C186.506 118.883 190.144 122.716 195.62 141.881" stroke="black" stroke-width="4" stroke-linecap="round"/>
<path d="M36.166 207.343C29.049 156.966 36.274 128.492 43.4707 116.502C50.6674 104.513 64.8594 78.6621 101.547 64.9727" stroke="black" stroke-width="4" stroke-linecap="round"/>
<path d="M96.6133 67.1612C96.8096 65.3946 101.661 65.826 102.97 65.0576C104.942 63.9002 107.085 63.0814 109.066 61.9723C111.431 60.6477 114.405 59.605 117.028 58.9492C119.679 58.2864 122.226 58.2332 124.916 57.8917C127.177 57.6045 129.346 57.2696 131.634 57.2696C132.702 57.2696 133.835 57.1682 134.893 57.3194C136.469 57.5445 138.1 58.2938 139.633 58.7377C141.884 59.3891 144.105 60.2989 146.152 61.4249C148.051 62.4694 149.462 63.9777 151.116 65.3313C154.393 68.0119 157.472 70.8797 160.248 74.0524C162.464 76.5849 164.412 79.4498 166.742 81.9026C169.472 84.7759 173.165 88.7649 176.998 94.7882" stroke="black" stroke-width="4" stroke-linecap="round"/>
<ellipse cx="123.262" cy="20.6178" rx="18.6177" ry="16.4274" fill="white"/>
<path d="M113.917 35.3637C109.315 35.3637 106.78 30.9805 104.938 27.1423C103.718 24.5984 103.447 21.32 103.583 18.5198C103.738 15.3386 105.373 12.7553 106.901 10.0867C109.39 5.74042 113.746 3.21857 118.493 2.37775C120.419 2.03663 122.313 2.07697 124.262 2.07697C126.444 2.07697 129.006 1.72611 131.094 2.52258C135.44 4.18088 139.882 8.11362 141.049 12.9052C141.693 15.5517 142.282 18.6311 141.526 21.316C140.918 23.4711 140.386 26.3087 139.086 28.1449C135.722 32.896 130.231 36.0428 124.642 37.2575C121.484 37.9437 117.71 38.5588 114.503 37.7699C113.644 37.5587 112.752 37.2765 112.009 36.7673C111.573 36.4689 111.548 35.9378 111.184 35.5642" stroke="black" stroke-width="4" stroke-linecap="round"/>
<path d="M123.807 22.1746C123.724 22.7467 120.313 22.3363 119.871 22.0712C117.676 20.7525 119.645 17.6888 120.892 16.3811C122.248 14.9585 123.376 14.7258 125.476 14.7258C128.117 14.7258 128.124 18.1415 128.1 19.6917C128.066 21.7864 126.084 23.6 123.568 23.6C122.176 23.6 121.187 22.6748 120.998 21.5079C120.718 19.7852 122.449 18.2817 124.151 17.6686C125.577 17.1552 128.49 16.6698 129.491 18.0594C130.546 19.5246 130.247 21.2336 128.789 22.3585C127.005 23.7337 122.135 25.0842 120.229 23.1632C116.756 19.6611 120.881 14.9911 125.238 14.1511C130.283 13.1783 133.634 19.1788 133.055 22.7953C132.529 26.0792 127.97 27.756 124.549 27.014C121.201 26.288 120.999 21.5698 121.528 19.2779C122.192 16.3949 125.383 14.7819 128.563 14.9443C130.068 15.021 130.816 16.0378 131.094 17.2548C131.594 19.4456 131.312 20.6195 129.292 21.9677" stroke="black" stroke-width="4" stroke-linecap="round"/>
<path d="M153.024 50.7347C153.024 59.5049 145.904 66.6145 136.41 66.6145C119.62 64.9718 123.268 59.5049 123.268 50.7347C123.268 41.9645 130.981 33.7598 138.239 33.7598C145.497 33.7598 153.024 41.9645 153.024 50.7347Z" fill="white"/>
<ellipse cx="107.932" cy="49.0928" rx="19.7128" ry="17.5225" fill="white"/>
<path d="M98.2613 66.3376C93.5278 66.3376 91.5403 60.5509 89.6459 56.7126C88.3903 54.1687 88.1115 50.8903 88.2517 48.0901C88.4109 44.9089 90.093 42.3256 91.6647 39.657C94.2245 35.3107 98.7054 32.7889 103.588 31.9481C105.569 31.6069 107.517 31.6473 109.522 31.6473C111.766 31.6473 114.402 31.2964 116.549 32.0929C121.019 33.7512 125.588 37.6839 126.788 42.4755C127.45 45.122 128.057 48.2014 127.279 50.8863C126.654 53.0414 126.106 55.879 124.769 57.7152C121.309 62.4663 115.662 65.6131 109.912 66.8278C106.664 67.514 102.782 68.1291 99.4835 67.3403C98.6001 67.129 97.6828 66.8468 96.9181 66.3376C96.47 66.0392 96.4445 65.5081 96.0704 65.1345" stroke="black" stroke-width="4" stroke-linecap="round"/>
<path d="M127.71 35.5699C128.024 35.5283 128.264 35.0281 128.513 34.8466C129.148 34.3834 129.982 34.4808 130.679 34.1933C132.302 33.5239 134.029 33.3076 135.738 32.9451C137.517 32.5675 140.097 32.5681 141.874 32.9451C144.096 33.4165 145.693 34.2792 147.306 35.9899C148.944 37.7276 150.2 39.9352 151.65 41.8578C152.59 43.1053 153.313 44.5076 153.64 46.0692C154.409 49.7396 153.435 53.3844 153.057 56.9886C152.776 59.6682 149.972 62.0996 148.34 63.9648C147.269 65.1881 146.728 65.8505 145.129 66.2746C144.065 66.5568 142.955 66.566 141.918 66.9046C140.584 67.3399 139.363 67.6979 137.959 67.6979C136.919 67.6979 135.876 67.7187 134.836 67.6979C134.086 67.6829 133.4 67.3216 132.659 67.2779C129.154 67.0714 125.058 65.5423 122.168 63.4982" stroke="black" stroke-width="4" stroke-linecap="round"/>
<path d="M110.283 50.6492C110.207 51.2213 107.058 50.8109 106.651 50.5458C104.624 49.2271 106.442 46.1634 107.593 44.8557C108.844 43.4331 109.886 43.2005 111.824 43.2005C114.263 43.2005 114.269 46.6161 114.246 48.1663C114.215 50.261 112.385 52.0746 110.063 52.0746C108.778 52.0746 107.865 51.1494 107.69 49.9825C107.433 48.2598 109.03 46.7563 110.601 46.1432C111.917 45.6298 114.606 45.1444 115.53 46.534C116.505 47.9992 116.229 49.7082 114.882 50.8331C113.236 52.2083 108.74 53.5588 106.981 51.6378C103.775 48.1357 107.582 43.4657 111.604 42.6257C116.262 41.6529 119.355 47.6534 118.82 51.27C118.335 54.5538 114.126 56.2307 110.968 55.4886C107.878 54.7626 107.692 50.0445 108.18 47.7525C108.793 44.8695 111.738 43.2565 114.674 43.4189C116.063 43.4957 116.754 44.5124 117.01 45.7294C117.471 47.9202 117.212 49.0941 115.347 50.4423" stroke="black" stroke-width="4" stroke-linecap="round"/>
<path d="M137.266 55.8172C136.719 54.6419 137.041 52.9906 137.041 51.7408C137.041 50.5575 136.96 49.5536 137.829 48.593C138.529 47.8191 140.104 47.8683 141.095 47.8683C143.061 47.8683 144.441 48.449 145.325 50.1103C147.237 53.7031 142.943 58.7093 138.617 57.7308C135.85 57.1049 135.464 54.092 135.464 51.9447C135.464 50.4744 135.706 48.4366 137.266 47.5739C138.402 46.9457 140.271 46.8348 141.533 47.1776C143.46 47.7006 143.489 50.5116 143.298 51.9447C142.976 54.3549 140.486 56.7223 137.716 56.7457C133.156 56.7843 133.927 51.3157 135.176 48.8081C136.339 46.4723 139.388 42.6645 142.772 43.8372C145.694 44.8497 146.444 49.2375 146.226 51.6955C146.009 54.1548 144.479 56.2253 141.671 56.7118C140.786 56.8652 138.333 57.2878 137.942 56.2249" stroke="black" stroke-width="4" stroke-linecap="round"/>
<path d="M51.6 103.505C49.4694 99.8251 46.6564 98.0625 42.5089 97.0257C38.1934 95.9468 30.7103 95.9573 26.4233 97.0921C20.9696 98.5357 14.9745 102.479 11.4676 106.863C8.92533 110.041 9.04144 112.521 9.04144 116.468C9.04144 121.599 12.7513 123.293 17.7157 123.614C19.8956 123.754 26.5629 122.957 21.2386 124.577C13.0634 127.065 2.46094 134.335 2.46094 143.721C2.46094 151.101 10.1318 148.772 15.0237 148.772C15.8502 148.772 13.8952 150.567 13.6943 150.833C11.6467 153.539 9.19239 156.082 7.37969 158.942C5.08582 162.561 2.46094 167.718 2.46094 172.103C2.46094 186.605 19.6845 184.068 29.9794 184.068" stroke="black" stroke-width="4" stroke-linecap="round"/>
<path d="M181.023 98.8815C183.871 96.5515 196.279 89.1336 202.588 93.6899C209.777 98.8815 211.259 104.734 209.577 111.461C208.308 116.537 202.306 118.649 209.777 118.649C216.853 118.649 224.093 118.498 229.133 124.659C235.724 132.714 225.03 139.862 218.812 143.359C214.882 145.57 219.64 145.569 221.458 146.504C225.247 148.453 229.691 152.042 232.69 155.04C242.639 164.99 245.684 182.6 232.19 191.331C226.522 194.999 219.097 195.831 212.472 195.924C209.765 195.962 204.049 197.049 202.588 194.127" stroke="black" stroke-width="4" stroke-linecap="round"/>
<path d="M67.8922 143.632C67.8922 152.518 67.8922 161.404 67.8922 170.29C67.8922 175.317 67.3959 181.289 69.7154 185.928C71.6349 189.767 77.1297 189.777 81.0187 189.534C90.1584 188.963 89.7697 178.526 89.7697 171.505C89.7697 166.89 91.2282 162.667 91.2282 158.217" stroke="black" stroke-width="4" stroke-linecap="round"/>
<path d="M172.366 150.925C172.366 154.949 172.366 158.974 172.366 162.998C172.366 167.499 173.394 174.717 170.746 178.636C166.773 184.515 165.459 185.938 158.875 183.012C154.714 181.162 154.509 173.983 153.77 170.29C152.731 165.096 154.211 156.872 151.218 152.383" stroke="black" stroke-width="4" stroke-linecap="round"/>
<path d="M139.95 50.5352C139.95 51.2681 140.111 52.2384 139.781 52.8977" stroke="black" stroke-width="4" stroke-linecap="round"/>
<path d="M124.422 19.9917C124.422 19.2537 124.907 20.5505 125.097 20.8355" stroke="black" stroke-width="4" stroke-linecap="round"/>
<path d="M112.438 47.667C112.04 47.6227 111.697 47.0945 111.426 46.8232" stroke="black" stroke-width="4" stroke-linecap="round"/>
<path d="M99.5195 87.4854C101.68 90.6281 107.226 85.7754 108.904 88.291C110.032 89.9839 111.592 95.5444 114.449 95.0684C116.037 94.8036 117.192 93.2021 118.311 92.201C119.74 90.9229 121.313 89.9863 123.145 89.4285C124.841 88.9125 126.578 89.1295 128.311 88.5517C130.31 87.8854 132.605 87.6476 134.709 87.9593C137.062 88.3078 138.627 90.2945 141.131 90.4949C143.247 90.6641 145.568 90.8841 147.293 92.1773" stroke="black" stroke-width="4" stroke-linecap="round"/>
<path d="M58.1598 242.018C57.1116 242.018 51.148 242.624 50.1117 242.754C48.8254 242.916 47.573 243.814 46.4257 244.301C43.8286 245.403 41.9198 247.156 39.516 248.482C37.4786 249.606 36.519 251.179 35.1957 252.82C33.9464 254.369 32.7516 255.861 32.3949 257.753C32.2347 258.602 31.71 259.414 31.6814 260.286C31.6511 261.211 31.6814 262.141 31.6814 263.066C31.6814 264.737 32.264 266.601 32.9762 268.155C33.8799 270.127 35.4785 271.288 37.3889 272.639C38.809 273.643 40.332 274.388 42.0394 275.004C44.5572 275.913 47.0003 277.067 49.6229 277.74C53.1445 278.643 56.0625 279.253 59.7562 279.253C62.6385 279.253 65.0638 278.538 67.8286 278.087C70.7062 277.618 73.4527 277.255 76.1519 276.237C79.3944 275.015 82.5058 273.713 85.6643 272.348C87.8759 271.392 90.2139 270.335 92.6797 269.971C94.1316 269.757 95.744 269.482 97.1321 269.119C98.3107 268.812 99.6432 268.761 100.871 268.761C101.836 268.761 150.233 266.342 151.04 265.885" stroke="black" stroke-width="4" stroke-linecap="round"/>
</svg>
