<svg width="174" height="286" viewBox="0 0 174 286" fill="none" xmlns="http://www.w3.org/2000/svg">
<path d="M35.2316 197.464C36.4971 190.176 48.6829 194.136 48.6829 186.733L66.9728 186.732C79.85 188.914 105.976 193.514 107.464 194.465C108.951 195.417 133.056 196.489 144.923 196.906C139.98 201.65 137.084 207.501 131.858 212.077C127.659 215.754 117.924 219.41 117.101 224.152C116.673 226.615 119.281 229.291 120.342 231.583C123.637 238.697 115.826 248.743 124.891 254.865C131.303 259.196 143.302 257.105 150.826 260.438C153.49 261.618 151.524 265.253 150.971 266.847C150.301 268.775 142.706 269.893 140.374 270.469C132.281 272.47 124.073 272.655 115.794 270.748C112.004 269.875 104.632 267 103.311 264.463C101.389 260.775 103.117 255.068 103.117 251.212C103.117 244.954 104.551 238 101.375 232.016C99.4031 228.3 97.6876 227 91.7464 227C85.9653 227 81.2134 227.59 75.779 228.951C69.9077 230.421 70.6097 235.283 69.3437 238.704C68.0812 242.114 66.0952 245.377 64.7954 248.704C63.1445 252.929 58.4238 255.812 58.6988 260.562C58.8605 263.357 63.5045 265.018 66.9728 266.042C74.0604 268.135 98.4213 279.027 81.295 282.451C75.6809 283.574 67.9671 282.73 62.1826 282.73C56.1856 282.73 47.364 282.228 43.4572 278.767L43.4059 278.722C38.4947 274.37 35.1832 271.437 35.1832 266.011C35.1832 259.715 42.2134 253.113 46.5055 247.62C50.99 241.881 56.8316 234.899 55.0214 228.239C53.8471 223.918 51.7322 220.314 48.6829 216.412C46.0847 213.087 41.379 210.498 37.9896 207.495C34.9525 204.804 34.674 200.674 35.2316 197.464Z" fill="#F35415" stroke="black" stroke-width="4" stroke-linecap="round"/>
<path d="M36.0825 16.4886C34.6475 39.9263 45.4496 58.541 51.03 64.9186C42.8988 69.2235 29.9792 86.9412 24 94.5146C13.4767 88.7748 8.1799 70.2998 7.38281 62.527V33.2298L15.1555 19.4781L36.0825 3.93262V16.4886Z" fill="#E8D821"/>
<path d="M166.421 44.5892C175.509 65.6354 159.047 89.6312 149.68 98.9983C149.68 80.8221 136.526 66.313 129.949 61.3305C146.212 37.4144 142.704 15.8899 138.918 8.11719C144.299 11.5053 157.333 23.5431 166.421 44.5892Z" fill="#E8D821" stroke="black" stroke-width="1.24098"/>
<path d="M52.4009 64.9741C49.2328 64.9741 46.8078 61.6486 45.4039 59.1919C41.9277 53.1085 39.3891 47.3845 37.9697 40.4848C37.1638 36.5675 35.9179 32.6162 35.5402 28.6289C35.0354 23.3005 35.5402 12.6452 37.9719 2.61426" stroke="black" stroke-width="4" stroke-linecap="round"/>
<path d="M30.094 98.2079C22.9089 98.2079 17.5368 89.5687 14.4481 83.8739C11.9584 79.2836 10.5111 74.4611 9.54049 69.3456C8.01332 61.297 6.64174 53.3659 6.50362 45.1478C6.37596 37.5521 7.27555 30.3453 11.314 23.744C14.523 18.4986 19.2135 14.9709 24.1417 11.4507C27.4455 9.09087 30.9395 7.037 34.2241 4.64815C35.401 3.79227 36.8614 2 38.4029 2" stroke="black" stroke-width="4" stroke-linecap="round"/>
<path d="M130.68 61.9125C135.197 58.1743 137.223 51.0623 139.183 45.732C141.447 39.5748 142.64 33.4806 142.463 26.9035C142.267 19.6671 139.796 9.80583 134.615 4.625" stroke="black" stroke-width="4" stroke-linecap="round"/>
<path d="M144.301 228.146L125.766 216.786C118.113 216.786 94.2762 232.331 83.3147 240.104C83.3147 240.104 76.3046 241.998 72.5525 240.104C67.1327 237.369 66.5734 225.754 66.5734 225.754H52.2238C43.0559 231.733 24.6007 243.691 14.5559 243.691C4.51119 243.691 2 234.524 2 229.94L13.3601 210.209L52.2238 174.335C52.2238 174.335 48.5622 166.506 52.2238 164.001C56.6604 160.966 59.9965 174.335 59.9965 174.335L65.3776 170.747L59.9965 136.069L49.8322 131.884L44.451 136.069L36.6783 134.275V122.915L34.5 109.017L27.7098 88.2369L42.0594 71.4956L65.3776 60.1355L83.3147 57.7443C91.486 56.5485 112.014 56.0702 128.755 63.7233C145.497 71.3765 150.08 96.4086 150.28 107.968L145.497 154.604L156.857 174.335L173 210.209L167.021 225.755L144.301 228.146Z" fill="#EA2F1E"/>
<path d="M149.044 100.395C153.091 92.7058 159.135 86.4224 162.576 78.3356C166.189 69.8454 167.895 61.1231 166.877 51.8541C165.794 42.0002 159.291 34.2536 154.535 26.0529C150.335 18.8127 144.661 14.3168 136.859 7.07227" stroke="black" stroke-width="4" stroke-linecap="round"/>
<path d="M36.5399 134.247C36.5399 122.515 36.5399 110.783 36.5399 99.0504C36.5399 93.666 35.7975 87.677 36.8284 82.3752C37.8885 76.923 41.9304 71.6007 45.8872 67.8637C48.8993 65.0189 53.6976 64.2018 57.4272 62.5841C61.3654 60.876 65.5025 59.7236 69.8038 59.4972C80.2895 58.9453 90.8523 58.497 101.337 59.3529C105.885 59.7242 110.4 59.7523 114.954 60.2473C119.461 60.7371 123.559 61.9641 127.936 63.1034C137.265 65.5313 143.537 75.8027 146.083 84.3947C149.918 97.3387 150.057 111.114 147.929 124.352C146.961 130.378 145.649 136.433 145.593 142.556C145.568 145.208 145.374 147.997 145.708 150.634C145.84 151.673 146.494 152.698 146.112 153.461" stroke="black" stroke-width="4" stroke-linecap="round"/>
<path d="M146.111 153.463C146.111 161.102 150.852 166.501 154.477 172.763C158.922 180.441 162.175 188.67 166.363 196.449C167.623 198.789 168.794 201.307 169.71 203.806C170.495 205.947 171.066 208.595 171.297 211.047C171.527 213.5 171.794 217.534 171.527 219.529C170 222.5 166.46 223.825 165.729 224.463C160 228.5 151.405 227.789 145.591 227.723C139.59 227.654 136.835 223.865 132 221C114.583 210.679 98.9429 229.709 85.8721 237.993C81.8832 240.521 76.1731 245.392 71.9087 240.417C68.8297 236.824 70.384 231.7 67.5812 227.838C65.1067 224.429 60.2915 224.416 56.5029 224.665C49.261 225.139 43.3548 231.112 37.5773 234.964C31.3903 239.089 23.4452 242.811 16.1707 244.513C11.9983 245.49 10.1428 244.214 7.40028 241.167C3.51622 236.851 1.70827 233.56 3.01509 227.607C4.76323 219.643 11.342 212.358 16.4592 206.258C22.1217 199.509 28.7579 193.959 34.952 187.765C39.9737 182.744 45.3611 178.392 51.5984 175.273" stroke="black" stroke-width="4" stroke-linecap="round"/>
<path d="M36.5 133C37.5 136.023 39.4914 135.714 42.0784 135.578C45.5142 135.397 46.6448 130.051 50.5227 130.42C53.627 130.716 53.7335 136.825 56.1362 136.825C59.0149 136.825 59.4133 131.081 61.9417 130.828C64.2559 130.596 65.9338 128.343 68.083 130.492C70.4561 132.865 70.6851 134.898 74.2003 132.555C76.1847 131.232 76.7175 128.124 78.7823 127.037C81.3711 125.675 83.4613 129.486 84.6357 130.828C86.5912 133.063 87.6777 130.516 89.1458 128.477C90.902 126.037 93.4307 122.175 96.9184 123.919C98.2817 124.6 99.76 129.484 101.045 129.484C103.029 129.484 106.888 121.259 108.673 122.383C109.366 122.82 113.115 127.491 113.855 126.989C115.261 126.035 117.308 119.217 119.157 119.217C120.344 119.217 121.774 122.024 122.155 122.863C123.692 126.244 124.09 130.366 124.122 134.042C124.189 141.536 124.554 149.074 124.554 156.544C124.554 158.812 123.906 162.477 122.155 163.909C119.738 165.887 119 163.37 117.213 161.678C115.899 160.433 113.664 168.001 113.231 168.827C111.859 171.448 108.608 169.27 107.474 167.724C106.629 166.571 105.767 164.215 104.019 164.533C100.993 165.083 99.6858 170.302 97.5901 172.282C96.811 173.017 95.6012 172.69 94.8553 172.09C93.4019 170.92 94.2972 169.466 93.6318 167.987C92.2512 164.92 87.8807 164.011 85.0676 165.229C82.1073 166.51 78.0795 168.974 76.3834 171.85C76.0276 172.453 75.2656 174.713 74.3682 174.681C71.0273 174.561 69.9313 165.222 67.4833 166.548C65.3704 167.693 63.8097 171.246 61.9417 172.713C60.7385 173.659 60.347 169.777 59.7826 168.731C58.773 166.86 58.3697 164.879 56.8559 163.309C55.7641 162.177 54.7834 162.531 53.3534 162.134C50.4614 161.331 49.0908 161.583 49.6591 164.749C50.1794 167.648 51.3081 170.117 52.5378 172.713C53.7652 175.304 53.5865 179.979 56.3281 181.35" stroke="black" stroke-width="4.5" stroke-linecap="round"/>
<path d="M62.3931 171.347C67.1763 160.824 60.4001 141.85 56.4141 133.679L62.3931 130.091L68.97 133.081L74.3511 131.885L78.5364 127.7L83.9176 133.679L94.6798 123.514L101.855 130.091L107.236 121.721L113.215 127.7L118.596 121.721L123.379 131.885L122 164.172L118.596 162.976L110 170.5L103.648 164.172L94.6798 171.347C94.6798 171.347 92.5243 165.844 89.5 164.172C83.0288 160.593 74.3511 175.532 74.3511 175.532L68.97 169.553L62.3931 171.347Z" fill="black" stroke="black" stroke-width="1.24098"/>
<path d="M68.485 97.2543C66.1678 108.511 55.1642 115.757 43.9079 113.44C28.5 109.517 25.405 100.119 27.7222 88.8629C30.0395 77.6065 41.043 70.3599 52.2994 72.6772C63.5557 74.9944 70.8023 85.998 68.485 97.2543Z" fill="white"/>
<path d="M42.7217 104.715C43.4023 101.409 43.594 100.937 46.963 101.63M46.963 101.63C49.4498 102.142 51.5571 104.095 50.9972 106.815C50.5822 108.831 42.3722 108.127 41.5082 106.815C42.7215 104.121 43.9 101.996 46.963 101.63Z" stroke="black" stroke-width="12.1948" stroke-linecap="round"/>
<path d="M53.0007 114.015C42.509 111.856 25.0183 111.766 26.3929 96.9268C27.4686 85.3135 35.4744 71.5888 48.4996 74.015C51.72 74.6149 54.8769 75.0025 58 76.0156C62 77.3132 63.8676 82.1149 65.6171 84.7715C68.9379 89.814 68.6062 95.4602 67.4601 101.027C65.6234 109.949 61.0007 113.515 52.0007 113.819" stroke="black" stroke-width="4" stroke-linecap="round"/>
<path d="M117.456 80.3425C115.139 91.5988 104.135 98.8454 92.8789 96.5281C81.6225 94.2109 74.376 83.2073 76.6932 71.951C79.0105 60.6946 91.2438 52.6841 102.5 55.0013C113.756 57.3185 120.498 61.5012 117.456 80.3425Z" fill="white"/>
<path d="M107.993 56.093C105.103 53.7035 94.5275 54.681 94.0201 55.1299M94.0201 55.1299C88.9789 57.6296 85.3189 59.7796 81.6294 63.7924C77.4197 68.371 74.6271 77.9562 76.9367 84.024C79.8813 91.7599 93.5749 100.763 102.1 98.0877C104.173 97.4371 105.707 95.4816 107.525 94.8067C109.216 94.1785 109.443 91.5772 111.501 90.8755C115.967 89.3521 118.503 79.383 118.236 75.4622C117.904 70.5842 117.214 60.6156 112.364 57.6296C108.925 55.5127 99.3195 52.2392 94.0201 55.1299Z" stroke="black" stroke-width="4" stroke-linecap="round"/>
<path d="M99.9913 88.0051C99.3985 87.8038 98.9173 78.317 104.26 84.574C107.951 88.8965 98.4859 91.4722 99.5445 86.3299" stroke="black" stroke-width="12.1948" stroke-linecap="round"/>
</svg>
