<svg width="365" height="340" viewBox="0 0 365 340" fill="none" xmlns="http://www.w3.org/2000/svg">
<path d="M225.137 168.846C222.524 167.843 229.489 158.277 222.651 162.555C218.103 161.412 204.528 162.5 201.891 165.228C198.595 168.638 195.797 186.09 210.958 183.085C214.223 189.874 222.875 194.758 230.549 196.467C239.456 198.451 250.267 200.762 259.059 195.845C261.322 194.579 262.254 193.702 263.246 191.484C264.958 187.659 267.313 185.996 270.432 183.261C273.61 180.474 278.658 179.474 282.512 177.731C285.559 176.352 288.885 175.273 292.265 174.934C297.783 174.381 300.583 176.477 305.001 179.784L305.015 179.794C308.987 182.768 308.852 185.548 315.026 184.929C318.943 184.536 321.74 180.49 324.101 177.843C325.402 176.384 324.355 171.043 324.185 169.34C323.687 164.379 323.095 163.899 320.816 159.492C319.565 157.072 319.197 156.505 317.347 154.535C312.241 149.099 303.082 146.714 295.512 145.963C287.673 145.185 276.4 145.936 270.603 151.605C266.692 155.429 264.343 159.805 259.272 162.555C254.03 165.397 248.524 167.49 242.506 168.29C237.908 168.901 229.56 170.542 225.137 168.846Z" fill="#2BD968"/>
<path d="M150.134 258.927C149.131 245.946 170.62 227.578 176.813 237.926C176.813 237.926 181.148 244.069 185.105 252.091C189.156 260.303 198.627 275.672 198.627 275.672L214.472 282.086L245.124 272.756L263.732 253.873L260.183 236.028C260.183 236.028 253.938 231.941 249.658 232.572C243.598 233.466 239.098 244.17 239.098 244.17C239.098 244.17 232.265 260.696 223.563 260.194C214.486 259.672 215.917 249.002 212.094 240.849C202.102 219.539 209.902 218.991 203.835 195.857C202.126 189.342 208.042 187.872 211.192 181.999C214.522 175.791 208.467 165.358 215.147 165.358C230.108 165.358 241.297 161.553 249.658 149.571C254.026 143.312 253.276 138.603 258.084 132.164C265.367 122.409 283.756 118.305 283.756 118.305C283.756 118.305 299.351 123.167 304.709 118.305C310.84 112.74 309.429 103.716 303.466 97.9725C299.732 94.3771 288.255 93.1738 288.255 93.1738L246.272 107.298C246.272 107.298 236.881 113.101 244.699 100.892C238.422 93.2905 239.841 102.967 236.617 100.892C228.68 95.7821 233.121 94.8239 226.671 101.657C221.531 107.101 220.097 91.9224 220.097 91.9224L207.687 100.892C207.687 100.892 202.667 89.7682 202.122 82.1541C201.402 72.097 208.376 67.2859 207.687 56.9423C207.161 49.0461 202.122 40.1497 202.122 40.1497C202.122 40.1497 192.169 39.0653 186.592 40.1502C176.882 42.0387 165.731 52.9742 165.731 52.9742C165.731 52.9742 159.802 61.9382 160.024 68.3332C160.325 77.0439 164.861 80.8489 169.806 88.0258C175.169 95.8074 190.284 100.912 185.105 109.163C182.655 113.067 176.349 112.619 176.349 112.619C176.349 112.619 167.799 111.938 162.39 112.619C156.434 113.37 153.784 118.649 147.549 116.623C139.901 114.138 139.201 102.182 131.177 101.657C123.135 101.13 117.538 105.518 113.677 112.592C109.665 119.943 114.433 134.022 114.433 134.022L126.592 146.037L150.65 143.43C150.65 143.43 162.026 145.821 165.731 152.679C171.489 163.338 154.46 181.439 154.46 181.439L162.39 200.012L147.549 208.961L132.079 231.644L121.648 256.559L133.095 279.71C133.095 279.71 111.153 289.135 100.473 298.686C94.1809 304.313 87.6497 315.64 87.6497 315.64C87.6497 315.64 96.1973 323.769 103.163 325.523C113.854 328.216 130.461 318.324 130.461 318.324L153.431 297.757C152.75 290.222 151.136 271.908 150.134 258.927Z" fill="#2BD968"/>
<path d="M131.786 281.177C127.165 282.961 119.175 287.945 114.554 289.729C108.208 292.18 101.16 297.067 96.3456 301.601C92.8949 304.851 90.1615 308.469 89.0415 313.816C89.5771 319.148 92.2983 321.397 94.1869 323.684C101.117 330.486 112.689 324.304 121.342 320.963C126.797 318.856 130.968 315.951 135.708 312.613C138.922 310.35 141.214 307.117 144.274 304.806C149.602 300.782 152.684 293.708 153.582 287.271C154.55 280.327 151.56 273.713 150.267 266.94C149.006 260.336 149.122 251.798 153.66 246.6C157.003 242.771 163.002 233.148 168.587 233.681" stroke="black" stroke-width="4" stroke-linecap="round"/>
<path d="M182.243 115.381C188.46 103.57 177.603 94.4192 171.977 89.727C166.161 84.8755 164.188 81.1214 160.971 73.9454C159.124 69.8267 158.151 67.3405 159.792 62.1944C161.032 58.3042 162.629 55.068 164.49 52.9766C166.237 51.0143 168.858 48.7531 170.799 47.3452C178.37 41.8527 183.415 39.227 191.816 37.9586C194.334 37.5784 198.163 38.5878 200.409 39.5822C203.618 41.0032 204.256 43.5286 205.442 46.6002C208.701 55.0388 207.413 64.0575 203.31 72.0219C200.847 76.8037 199.826 81.2709 199.961 86.555C200.056 90.2845 202.808 93.7901 204.315 96.9701C206.892 102.409 215.294 97.2295 219.113 95.7547" stroke="black" stroke-width="4" stroke-linecap="round"/>
<path d="M187.146 133.949C186.436 132.11 186.747 129.476 185.947 127.405C185.092 125.19 184.237 122.976 183.382 120.761C181.168 115.028 179.357 113.799 173.623 111.917C163.865 108.713 152.526 124.117 143.86 114.301C141.845 112.018 141.053 109.133 139.969 106.326C138.815 103.338 137.634 102.984 134.557 102.625C128.454 101.914 121.016 102.819 117.28 108.117C111.031 116.977 113.1 135.274 121.046 142.509C129.952 150.62 144.491 143.049 154.993 144.373C164.718 145.599 165.593 152.281 164.111 161.104C162.387 171.37 149.245 180.711 162.39 200.012" stroke="black" stroke-width="4" stroke-linecap="round"/>
<path d="M163.903 200.972C158.139 203.198 151.769 204.804 147.019 208.82C142.62 212.538 140.239 217.135 136.632 221.46C133.574 225.127 130.407 230.277 128.425 234.587C126.645 238.459 125.161 239.981 123.638 245.876C122.345 250.885 122.566 251.489 122.938 255.2C123.434 260.149 124.02 262.717 125.177 265.713C126.293 268.603 128.334 270.766 129.505 273.483C130.417 275.6 131.48 278.084 132.347 280.496" stroke="black" stroke-width="4" stroke-linecap="round"/>
<path d="M164.624 234.777C167.087 233.826 170.146 232.812 172.665 233.971C175.352 235.208 178.399 237.3 179.935 239.859C183.362 245.565 183.695 254.735 197.687 274.605C202.397 281.294 218.931 283.227 227.154 280.052C237.861 275.917 246.782 272.174 255.717 264.956C260.889 260.778 263.343 258.545 264.179 251.916C264.83 246.747 262.943 239.683 259.905 235.311C256.072 229.791 251.411 230.262 245.75 233.512C242.431 235.417 240.71 239.646 238.626 244.192C237.634 246.355 236.692 249.421 234.181 252.546C233.295 254.403 223.714 259.825 221.8 260.647C220.115 261.37 218.945 258.794 218.365 257.289C216.961 253.655 216.032 248.993 213.618 243.612C211.741 239.427 209.235 233.423 209.097 223.447C208.967 214.008 205.753 208.788 204.823 199.509C205.681 195.665 204.635 191.404 210.386 186.456" stroke="black" stroke-width="4" stroke-linecap="round"/>
<path d="M227.248 167.557C225.162 162.156 236.993 159.811 240.64 158.403C247.281 155.838 253.839 149.975 254.562 142.405C255.281 134.871 259.679 127.817 266.659 125.121C277.048 121.109 286.195 118.144 297.329 117.925C300.058 117.871 302.653 119.917 305.396 118.092C308.559 115.987 308.893 105.999 307.772 102.755C306.386 98.7463 305.63 97.3896 301.711 95.654C298.37 94.1746 294.986 92.8521 291.314 93.6574C285.325 94.9707 279.941 96.7583 274.16 98.9909C269.872 100.647 264.569 102.766 260.919 105.579C259.429 106.728 253.505 110.174 251.631 108.649C250.144 107.439 247.203 104.058 246.545 102.353" stroke="black" stroke-width="4" stroke-linecap="round"/>
<path d="M226.809 168.235C231.232 169.932 237.906 168.902 242.504 168.291C248.523 167.491 254.029 165.398 259.271 162.555C264.342 159.806 266.69 155.43 270.601 151.606C276.398 145.936 287.672 145.186 295.511 145.963C303.081 146.714 312.239 149.1 317.345 154.536C319.195 156.506 319.563 157.073 320.815 159.493C323.093 163.9 323.686 164.38 324.183 169.341C324.354 171.044 325.224 174.935 324.099 177.844C322.29 182.523 318.941 184.537 315.024 184.93C308.851 185.549 308.985 182.768 305.013 179.795C300.587 176.482 297.787 174.381 292.263 174.935C288.883 175.274 285.558 176.353 282.51 177.731C278.656 179.475 273.609 180.475 270.43 183.262C267.312 185.996 264.956 187.66 263.244 191.485C262.252 193.702 261.321 194.579 259.057 195.845C250.265 200.763 239.454 198.452 230.548 196.468C222.873 194.759 214.724 191.72 211.458 184.931" stroke="black" stroke-width="4" stroke-linecap="round"/>
<path d="M223.16 102.354C213.905 103.282 210.166 113.308 200.911 114.235C198.464 114.481 195.641 114.918 198.324 117.953C202.554 122.737 210.6 123.497 216.487 123.751C219.163 123.866 223.826 122.557 226.224 123.829" stroke="black" stroke-width="3.17659" stroke-linecap="round"/>
<path d="M222.907 142.3C236.33 142.3 235.907 133.078 238.816 132.786" stroke="black" stroke-width="3" stroke-linecap="round"/>
<path d="M261.235 104.346L202.219 77.5491C193.761 93.5403 200.408 100.462 208.889 104.224C214.284 106.617 221.888 102.539 225.55 99.6938C225.087 101.02 224.581 104.678 226.272 108.706C228.384 113.74 235.671 117.469 243.542 117.359C249.839 117.272 257.961 108.647 261.235 104.346Z" fill="white" stroke="black" stroke-width="3.96805"/>
<path d="M227.197 97.2863C225.217 100.09 221.34 100.758 218.536 98.7777C215.733 96.7979 215.065 92.9202 217.045 90.1166C219.025 87.3131 222.902 86.6453 225.706 88.6252C228.509 90.6051 234.3 89.6229 227.197 97.2863Z" fill="black"/>
<path d="M256.258 110.387C254.33 113.116 250.554 113.766 247.824 111.839C245.095 109.911 244.445 106.135 246.372 103.406C248.3 100.676 252.076 100.026 254.805 101.953C257.535 103.881 260.524 104.346 256.258 110.387Z" fill="black"/>
</svg>
