<svg width="239" height="220" viewBox="0 0 239 220" fill="none" xmlns="http://www.w3.org/2000/svg">
<path d="M49.6474 112.128C47.4921 98.0307 60.0475 74.0881 66.5947 63.8789L80.0992 36.1271C80.8127 34.3279 82.739 30.0216 84.7361 27.1906C87.2326 23.6518 95.9691 15.404 106.793 10.9509C115.451 7.38843 126.8 6.70414 131.392 6.8073C137.732 8.54065 151.13 12.3233 154.002 13.5871C157.592 15.1669 172.331 31.1625 177.089 44.7615C180.895 55.6408 178.023 71.9403 176.111 78.7301L160.697 107.755L153.359 123.897C154.887 123.982 160.056 125.834 168.508 132.559C176.96 139.284 176.168 149.078 174.715 153.135L164.397 173.249C159.583 177.118 149.609 186.124 148.222 191.196C146.489 197.536 149.799 195.882 156.419 200.849C163.038 205.817 160.592 208.439 157.714 210.577C154.836 212.715 144.625 214.444 143.25 214.367C141.875 214.29 135.916 213.957 119.239 207.969C105.897 203.178 106.553 196.379 108.548 193.579L127.88 176.727C130.793 173.978 137.065 167.033 138.86 161.248C140.654 155.463 137.572 151.368 135.807 150.043C134.169 149.185 130.323 147.806 128.041 149.15C125.759 150.493 110.148 151.216 102.627 151.409L92.6718 148.554C88.9104 152.788 81.3416 162.082 81.1573 165.382C80.927 169.507 89.1259 170.885 92.232 172.897C95.338 174.91 96.0243 179.086 90.7778 182.471C86.5806 185.179 81.2363 185.923 79.0889 185.956C75.0907 186.193 64.5687 185.789 54.4656 182.283C41.8368 177.899 41.0504 167.281 43.063 164.175C44.673 161.69 49.2355 157.929 51.3155 156.359L62.6275 134.922C59.1989 133.198 51.8027 126.226 49.6474 112.128Z" fill="#D2855E"/>
<path d="M133.938 101.203C130.332 99.8979 130.655 94.1228 131.267 91.3983L144.1 92.115L142.392 97.9966C141.076 99.609 137.543 102.507 133.938 101.203Z" fill="#FF71C1"/>
<path d="M116.503 67.5862C107.621 68.5615 107.119 54.4951 107.978 47.34C114.66 46.2419 127.194 49.0261 132.626 50.5555C130.953 55.826 125.385 66.611 116.503 67.5862Z" fill="white"/>
<path d="M146.402 74.2074C137.743 75.1841 137.268 61.2249 138.113 54.1232C144.627 53.0268 156.841 55.7774 162.135 57.2898C160.498 62.5221 155.06 73.2307 146.402 74.2074Z" fill="white"/>
<path d="M26.0277 36.4218C37.7105 40.7865 59.1212 57.4071 68.3662 65.1718L83.9002 45.4687L67.1333 36.6456C58.759 32.9758 41.2765 25.4225 38.3407 24.5677C34.6709 23.4993 33.2247 14.2366 28.2944 11.6242C24.3501 9.53428 20.1517 9.646 18.5455 9.96311C18.15 10.8334 17.6636 13.1226 18.8825 15.317C20.1014 17.5113 23.3284 21.9583 24.7896 23.9074C20.1092 24.4701 10.6992 26.364 10.5024 29.4383C10.2565 33.2811 11.4242 30.9658 26.0277 36.4218Z" fill="#D2855E"/>
<path d="M65.8479 64.7015C64.1793 66.9249 61.2028 74.2172 59.3904 76.2969C57.3918 78.5903 56.5339 82.3559 55.5875 85.214C53.5886 91.2511 50.2471 97.6399 49.8898 104.039C49.716 107.15 48.8008 111.198 49.7645 114.192C50.6266 116.87 51.2961 119.373 52.7264 121.802C55.2658 126.114 57.1481 131.517 61.7553 134.151" stroke="black" stroke-width="4" stroke-linecap="round"/>
<path d="M163.506 104.002C163.371 106.417 156.208 119.03 155.023 121.102C153.551 123.676 152.125 126.176 150.56 128.657C149.619 130.148 148.868 131.22 147.55 132.465C139.509 143.002 131.209 153.902 94.0089 149.502" stroke="black" stroke-width="4" stroke-linecap="round"/>
<path d="M164.981 99.7987C165.68 98.7197 165.946 97.2873 166.527 96.1383C167.19 94.828 168.249 93.5399 168.649 92.1175C169.201 90.1573 171.09 88.4744 171.904 86.5728C175.016 79.3041 177.757 71.4194 178.199 63.4951" stroke="black" stroke-width="4" stroke-linecap="round"/>
<path d="M178.366 65.8589C178.69 60.0456 180.443 53.7597 178.028 48.17C177.373 46.6548 176.791 45.1586 176.137 43.6469C175.495 42.1602 174.696 40.7941 174.107 39.2796C173.486 37.6824 172.446 36.1689 171.936 34.5117C171.406 32.7928 169.971 31.8401 169.226 30.3028C168.733 29.2858 167.553 28.0898 166.853 27.0781C166.238 26.1891 166.044 25.0817 165.309 24.2595C163.485 22.2197 161.765 20.1582 159.973 18.1533C158.817 16.8609 157.963 15.9174 156.54 14.8694C155.465 14.0772 154.262 13.7394 153.189 13.0625C152.347 12.531 150.012 11.0007 147.512 10.5C145.512 10.001 141.012 7.99993 138.011 7.99927" stroke="black" stroke-width="4" stroke-linecap="round"/>
<path d="M143.008 9C138.508 7.59105 132.335 6.7466 129.547 6.59088C128.329 6.52287 127.111 6.45487 125.893 6.38686C124.106 6.28705 122.994 6.7097 121.281 6.94736C117.922 7.41322 114.542 8.42054 111.294 9.40017C105.03 11.29 98.3002 14.4494 93.3743 18.8543C90.3223 21.5835 86.9961 24.3131 84.9146 27.9532C83.8251 29.8587 78.2618 40.0046 78.1341 42.2901" stroke="black" stroke-width="4" stroke-linecap="round"/>
<path d="M171.679 105.205L157.555 99.4404L169.161 81.7685L175.341 85.5343L188.295 94.605L197.539 97.4361L206.894 98.0213L218.738 95.7585L231.341 98.4242L233.771 103.457L230.188 108.114L223.134 108.424L216.935 105.032L211.551 105.447L211.439 107.692L217.136 114.432L219.214 119.818L212.198 119.379L202.935 116.923L195.178 111.181L184.245 108.62L171.679 105.205Z" fill="#D2855E"/>
<path d="M75.8337 114.027C75.6042 118.136 72.8773 121.244 70.2561 124.252C68.1147 126.709 66.7035 130.064 65.0633 132.863C63.7341 135.13 62.0231 137.415 60.5633 139.614C59.3422 141.454 58.6248 143.677 57.2922 145.452C54.6037 149.035 52.8806 153.233 50.1776 156.835C48.7286 158.766 46.7701 159.944 44.9731 161.551C43.2421 163.099 43.0464 163.908 42.3658 166.052C41.2556 169.548 42.6097 172.944 45.0054 175.623C45.6872 176.386 46.6233 176.979 47.378 177.67C48.1225 178.352 49.1305 178.716 49.7996 179.425C51.4431 181.166 54.0531 181.372 56.111 182.428C59.5913 184.213 63.9736 184.298 67.7433 185.074C71.2597 185.797 75.2462 185.558 78.8307 185.758C81.3309 185.898 83.6331 186.231 85.9912 185.275C89.0982 184.014 93.4241 181.151 94.9967 178.12C97.3779 173.531 87.6143 170.521 84.5894 169.359C82.1742 168.431 80.7586 168.228 80.9115 165.488C81.0306 163.357 82.9069 162.135 84.1352 160.498C88.4431 154.758 92.6115 148.915 96.6668 142.939C98.7444 139.877 100.903 136.882 103.063 133.872C103.954 132.63 105.43 131.652 105.857 130.134C106.323 128.478 107.41 127.13 108.171 125.617C109.807 122.362 112.073 119.41 112.907 115.803C113.664 112.527 114.132 109.238 113.396 105.882C112.862 103.448 111.251 101.172 109.947 99.0798C108.483 96.731 105.782 95.636 103.437 94.3642C97.6916 91.2482 91.1525 91.3222 84.7785 90.9662C80.6002 90.7329 76.6358 92.2786 72.643 92.0556" stroke="black" stroke-width="4" stroke-linecap="round"/>
<path d="M129.729 148.899C132.906 149.076 137.655 150.303 138.949 153.481C140.524 157.352 139.572 161.794 136.907 164.852C135.299 166.697 133.667 168.664 132.452 170.788C131.779 171.965 131.042 173.144 130.184 174.196C129.066 175.565 128.01 177.271 126.708 178.435C123.912 180.935 121.034 183.266 118.234 185.734C115.582 188.07 113.094 190.616 110.1 192.511C106.505 194.788 106.841 198.915 109.902 201.335C113.77 204.393 118.336 206.414 122.696 208.676C124.909 209.825 127.251 210.704 129.664 211.339C131.912 211.931 134.325 212.712 136.648 212.842C142.139 213.148 148.463 215.517 153.774 213.504C155.949 212.679 158.303 210.513 159.501 208.522C160.752 206.442 161.174 205.42 159.943 203.246C157.691 199.272 152.187 199.043 148.739 196.73C144.408 193.826 151.979 186.363 154.386 184.088C156.573 182.02 158.404 179.719 160.226 177.362C160.899 176.492 161.672 175.48 162.438 174.671C163.625 173.418 164.29 171.859 165.431 170.585C167.988 167.731 169.277 163.587 171.32 160.36C173.005 157.697 174.639 154.668 175.07 151.506C175.521 148.197 175.991 145.121 174.64 141.927C173.505 139.245 172.486 135.988 170.205 134.022C167.811 131.958 165.634 128.592 162.395 127.68C160.293 127.088 157.907 125.654 156.246 124.408" stroke="black" stroke-width="4" stroke-linecap="round"/>
<path d="M164.172 103.71C168.334 103.971 173.256 104.991 177.161 106.609C178.965 107.357 180.803 107.853 182.688 108.3C184.536 108.738 186.872 108.683 188.579 109.574C189.774 110.198 192.676 110.435 194.021 110.519C195.545 110.614 197.286 111.99 198.558 112.889C201.016 114.626 203.556 118.343 206.648 118.72C209.819 119.107 213.009 119.829 216.296 119.818C217.774 119.813 218.146 118.104 218.215 116.726C218.326 114.502 217.972 114.569 216.719 113.311C214.624 111.209 212.485 110.245 211.292 107.152C209.975 103.738 216.577 104.636 217.893 105.479C220.339 107.046 221.761 108.795 224.776 108.984C228.104 109.192 231.229 109.16 232.984 105.545C237.185 96.8921 223.368 96.5432 219.234 96.2845C215.956 96.0795 213.077 96.477 209.951 96.6921C208.513 96.791 207.153 97.9994 205.432 97.8917C202.267 97.6937 199.09 98.1181 195.88 97.7883C193.846 97.5792 191.119 95.6378 189.348 94.6346C187.143 93.3854 185.106 91.4515 182.936 90.061C180.272 88.3544 175.762 87.0376 174.437 83.6001" stroke="black" stroke-width="4" stroke-linecap="round"/>
<path d="M78.0035 42.9666C73.8971 42.7665 73.2333 41.8538 70.0032 39.6368C68.2057 38.4031 65.9806 35.9218 63.9062 35.1341C58.0327 32.9036 52.9404 29.5554 46.8241 27.5814C44.0263 26.6784 39.552 26.1108 37.6225 24.2281C36.275 22.9133 35.7258 22.0575 34.8882 20.3662C34.4081 19.3967 33.0507 17.7338 32.9822 16.7613C32.8023 14.2044 29.3357 12.0428 27.0948 10.9248C25.5193 10.1387 17.8482 8.66247 17.6649 11.5275C17.4702 14.57 19.1413 15.1312 21.0561 17.546C21.8486 18.5454 26.5576 22.7187 24.8119 24.0808C24.0795 24.6523 20.1322 24.456 19.06 24.6677C17.3741 25.0006 15.6511 25.4679 14.0508 26.0712C12.207 26.7664 11.4304 27.5607 10.5025 29.1068C9.45177 30.8575 10.5879 30.7581 12.1115 31.9167C14.419 33.6713 18.1715 34.3806 21.089 34.8905C24.1239 35.4209 28.842 37.3497 31.0925 39.3017C32.2175 40.2776 33.9719 41.1283 35.4138 41.6585C37.4229 42.3972 38.9658 43.996 40.9292 44.7671C42.8964 45.5398 45.0262 47.6394 46.8048 48.8472C48.7871 50.1932 50.6723 51.3811 52.3515 53.0196C55.8031 56.3876 62.0051 60.3812 65.0078 64.001" stroke="black" stroke-width="4" stroke-linecap="round"/>
<path d="M125.706 34.5426C124.011 34.448 122.316 34.3407 120.621 34.2587C118.254 34.1442 115.904 34.9538 113.853 36.0883C112.385 36.9 110.863 37.8382 109.806 39.1708C109.08 40.0855 108.723 41.1161 108.383 42.2091C107.43 45.2717 107.481 48.6675 107.303 51.84C107.23 53.159 107.207 54.466 107.28 55.7849C107.327 56.6308 107.48 57.5018 107.433 58.3443" stroke="black" stroke-width="4.5" stroke-linecap="round"/>
<path d="M107.511 58.5009C107.445 59.6841 107.496 61.2221 107.815 62.3819C108.089 63.3792 108.657 64.1265 109.405 64.8747C111.241 66.7111 113.752 67.8921 116.433 68.0418C117.945 68.1263 119.767 67.733 121.14 67.1327C121.786 66.8506 122.44 66.5888 123.064 66.2685C123.836 65.8726 124.369 65.2766 124.958 64.6814C126.503 63.1216 127.788 61.3567 128.904 59.5428" stroke="black" stroke-width="4.5" stroke-linecap="round"/>
<path d="M129.008 59.4994C131.508 55.4994 133.18 47.9442 133.509 45.9996C133.842 42.6664 131.108 35.3 125.508 34.5" stroke="black" stroke-width="4.5" stroke-linecap="round"/>
<path d="M106.544 46.3739C102.512 46.1487 114.609 46.8242 118.641 47.0494C120.738 47.1665 122.904 47.1406 124.957 47.5832C126.574 47.9319 128.009 48.3872 129.674 48.4802C130.096 48.5038 132.102 48.8656 132.281 48.4448" stroke="black" stroke-width="4.5" stroke-linecap="round"/>
<path d="M136.007 58.5C136.244 54.2598 138.557 49.0866 140.892 45.6116C142.942 42.5612 145.742 39.8345 148.966 38.1299C150.82 37.1492 153.05 36.6013 155.106 37.334C156.961 37.9953 158.896 39.1868 159.927 40.9424C161.41 43.467 161.366 46.2109 161.321 49.0683C161.286 51.344 161.59 53.6782 161.214 55.9442C160.87 58.0078 159.841 59.7355 159.106 61.6632C158.766 62.5556 158.261 63.3437 157.943 64.2552C157.769 64.7533 157.529 65.2754 157.275 65.7253" stroke="black" stroke-width="4.5" stroke-linecap="round"/>
<path d="M158.068 64.2958C158.044 64.7312 157.732 65.0559 157.556 65.4413C157.288 66.0289 156.941 66.578 156.615 67.1363C156.028 68.1413 155.331 69.0284 154.611 69.9407C153.44 71.4242 152.257 73.1183 150.744 74.3075C149.35 75.4032 148 75.3229 146.285 75.2271C143.027 74.1514 135.512 74 136.012 59.5" stroke="black" stroke-width="4.5" stroke-linecap="round"/>
<path d="M140.365 51.9531C141.585 52.0212 142.806 52.0894 144.026 52.1575C146.023 52.269 148.216 52.1987 150.163 52.7115C152.304 53.2752 154.555 53.1073 156.61 53.948C157.569 54.3403 158.696 54.6876 159.739 54.7458" stroke="black" stroke-width="4.5" stroke-linecap="round"/>
<path d="M147.997 56.0137C146.877 55.9512 145.727 55.8059 144.862 56.6819C144.454 57.0956 144.146 57.4896 143.86 57.9888C143.622 58.4045 143.667 58.9411 143.648 59.4085C143.547 61.9678 147.37 62.8966 149.332 62.2212C150.336 61.8757 151.443 61.3097 152.001 60.3847C152.56 59.4569 151.995 58.0368 151.048 57.5567C150.184 57.1188 149.349 56.9464 148.389 56.918C147.389 56.8884 146.454 57.4276 145.443 57.3712" stroke="black" stroke-width="4.8981" stroke-linecap="round"/>
<path d="M119.187 50.7247C118.131 50.6658 117.163 50.8149 116.383 51.7534C116.179 51.9992 115.63 52.5563 115.577 52.8936C115.487 53.4768 115.42 54.0507 115.387 54.6417C115.32 55.8537 115.555 56.737 116.507 57.4514C117.438 58.151 118.509 58.1865 119.48 57.6448C120.288 57.1944 121.277 56.4391 121.668 55.4839C122.072 54.4969 121.589 53.3493 121.023 52.6187C120.059 51.376 118.245 51.5045 117.086 52.377" stroke="black" stroke-width="4.8981" stroke-linecap="round"/>
<path d="M118.637 54.7148L118.978 54.7339" stroke="black" stroke-width="4.5" stroke-linecap="round"/>
<path d="M146.109 58.9863L148.496 59.1196" stroke="black" stroke-width="4.8981" stroke-linecap="round"/>
<path d="M121.41 86.7119C123.281 86.9463 127.411 88.798 129.164 89.4414C132.946 90.8293 136.91 91.7501 140.936 91.9749C141.262 91.9932 145.139 92.388 143.975 91.7225" stroke="black" stroke-width="4.8981" stroke-linecap="round"/>
<path d="M131.265 91.3999C131.22 92.2124 130.332 98.4571 131.721 99.7013C133.11 100.945 134.801 102.172 137.093 102.3C139.843 102.454 143.799 94.7821 143.916 92.6883" stroke="black" stroke-width="4.8981" stroke-linecap="round"/>
</svg>
