<svg width="259" height="280" viewBox="0 0 259 280" fill="none" xmlns="http://www.w3.org/2000/svg">
<path d="M4.34873 226.462L10.1956 224.214L248.117 224.663L255.763 226.912V220.165L249.466 207.572V200.376L255.763 203.524L253.514 196.328L250.366 182.386L254.414 183.285V179.238L248.117 168.893L240.471 159.448L244.969 160.348L249.466 158.099L239.572 141.008L242.72 141.458H249.466V135.161L242.72 129.315C240.171 126.766 235.524 121.849 237.323 122.568C239.122 123.288 244.669 122.868 247.217 122.568L246.318 118.071L235.974 107.726L241.82 104.578L239.122 98.7311L233.275 91.9847L237.323 89.736C235.524 86.1379 228.777 79.5415 225.629 76.693L229.677 75.7935L227.428 71.2959L215.285 58.253L220.682 54.6549C218.133 51.5066 212.316 44.5804 209.438 42.0617C206.559 39.5431 198.944 35.9151 195.495 34.4159L203.141 33.5164L201.342 30.3681L189.199 24.0715L182.902 20.4734C180.504 17.9249 175.166 12.8279 173.008 12.8279C170.849 12.8279 165.811 10.1293 163.563 8.78007C165.212 6.6812 167.79 2.39352 164.912 2.03372C162.033 1.67391 152.019 4.2825 147.371 5.63177L129.381 13.2776L126.683 12.8279L119.486 11.4786C116.038 8.33031 107.433 2.03372 100.597 2.03372C93.7604 2.03372 86.0546 6.53129 83.0562 8.78007L80.3576 13.2776C81.557 14.0272 81.9768 15.8862 74.061 17.3254C66.1453 18.7647 59.6688 26.6204 57.42 30.3684C61.0181 30.6682 66.685 31.8076 60.5683 33.9665C54.4516 36.1253 44.8269 45.96 40.779 50.6075C39.4298 51.8068 37.3609 54.2055 39.8795 54.2055C43.0278 54.2055 43.0278 56.904 39.8795 60.9519C37.3609 64.1901 31.3341 71.2963 28.6356 74.4446H34.4824L24.138 84.789L20.9897 89.2865C23.2385 89.5864 27.5562 90.1861 26.8366 90.1861C26.117 90.1861 19.3406 98.8814 16.0424 103.229L23.2385 105.478L13.7936 113.573L11.0951 121.219H20.9897L13.3439 129.765L7.94679 138.31L11.0951 140.559L20.0902 137.411L10.1956 152.702V158.099H16.9419L4.34873 181.037H7.94679V190.482L3.44922 202.176L10.1956 199.477L7.94679 207.123L3.44922 221.065L4.34873 226.462Z" fill="#6D89DD"/>
<path d="M119.332 10.9243C119.066 10.9243 118.909 10.8166 118.686 10.663C117.869 10.0995 117.06 9.52392 116.244 8.95745C115.181 8.21923 114.05 7.56413 112.937 6.90506C111.863 6.26875 110.822 5.57216 109.688 5.0427C104.398 2.57419 98.4931 1.8763 92.8648 3.48441C90.0609 4.28552 87.5265 5.99652 85.2301 7.74122C83.2914 9.21412 81.5975 10.8607 79.8805 12.5776C79.8521 12.6061 79.3378 13.0312 79.5005 13.1288C79.7036 13.2506 80.1348 13.1723 80.3746 13.2475C80.8588 13.3994 81.3268 13.6782 81.7714 13.9174C82.6109 14.369 83.3155 14.9648 84.0803 15.5232C84.3066 15.6884 84.6066 15.8668 84.698 16.1408" stroke="black" stroke-width="4.25" stroke-linecap="round"/>
<path d="M84.694 16.1395C82.074 16.1395 79.3625 15.9279 76.779 16.4055C70.653 17.538 65.3569 21.465 61.1295 25.8693C59.7647 27.2912 58.5077 28.8471 57.4143 30.4872C57.3145 30.637 56.7506 31.234 57.1293 31.0573C58.3092 30.5067 59.8208 30.5543 61.082 30.6392C61.9461 30.6974 63.431 30.636 64.1701 31.1903" stroke="black" stroke-width="4.25" stroke-linecap="round"/>
<path d="M44.6765 56.4185C42.4261 56.4185 40.5298 55.1473 38.3673 54.6607C38.3033 54.6463 37.526 54.528 37.6214 54.4516C37.737 54.3591 37.8207 54.0805 37.8922 53.9576C38.4951 52.9205 39.1915 51.9456 39.9446 51.012C42.7224 47.5679 45.9385 44.3827 49.1756 41.3724C52.0866 38.6653 55.3392 36.6111 58.8817 34.8399C60.5544 34.0036 62.2032 33.3291 64.0887 33.3291" stroke="black" stroke-width="4.25" stroke-linecap="round"/>
<path d="M45.103 57.3594C43.9134 57.3594 42.946 58.0924 42.0434 58.8132C40.2751 60.2252 38.7397 61.9996 37.1927 63.6448C35.8924 65.0277 34.6642 66.4754 33.3445 67.8399C32.0499 69.1783 30.7915 70.7499 29.9001 72.3913C29.586 72.9695 29.073 73.8563 29.1114 74.5482C29.1199 74.7005 30.8111 74.7049 30.9975 74.7192C32.8544 74.862 34.6894 74.8902 36.5513 74.8902" stroke="black" stroke-width="4.25" stroke-linecap="round"/>
<path d="M35.0976 75.7441C34.1744 75.7441 33.2422 76.2756 32.4466 76.6943C31.1073 77.3993 29.6919 78.2943 28.5984 79.3501C27.0829 80.8133 25.8334 82.5221 24.5791 84.2055C23.617 85.4968 22.6436 86.7273 21.8521 88.1345C21.6897 88.4233 21.5984 88.818 21.586 89.1512C21.5713 89.5496 23.0561 89.3412 23.3154 89.3412C25.0516 89.3412 27.0594 89.8543 28.7694 89.4268" stroke="black" stroke-width="4.25" stroke-linecap="round"/>
<path d="M27.2326 90.8818C26.2435 91.3764 25.3533 92.0658 24.5151 92.7822C23.299 93.8216 22.115 94.915 20.9092 95.9701C19.2246 97.444 17.3146 99.4688 16.8852 101.742C16.7447 102.486 16.7997 103.26 16.7997 104.013C16.7997 104.655 17.3675 104.362 17.9256 104.446C19.4591 104.676 20.9919 105.312 22.4247 105.88C22.994 106.106 23.73 106.277 24.2396 106.617" stroke="black" stroke-width="4.25" stroke-linecap="round"/>
<path d="M22.6953 107.044C22.1924 107.09 21.618 107.734 21.2415 108.023C20.3121 108.734 19.4121 109.511 18.524 110.275C16.9431 111.633 15.5504 113.024 14.2482 114.655C13.5777 115.494 13.0092 116.412 12.3858 117.287C12.0674 117.734 11.7081 118.243 11.5117 118.76C11.2307 119.499 11.2615 120.44 11.3216 121.221C11.3459 121.537 13.2973 121.618 13.545 121.667C14.8203 121.922 16.2094 121.926 17.4978 121.753C19.2293 121.52 20.8825 120.901 22.4863 120.232C23.0175 120.011 23.5486 119.806 24.0636 119.548C24.2322 119.464 24.386 119.358 24.5767 119.358" stroke="black" stroke-width="4.25" stroke-linecap="round"/>
<path d="M21.8394 122.182C21.2871 122.182 20.7188 122.857 20.3334 123.179C19.1829 124.141 18.0688 125.176 16.9697 126.196C15.6199 127.45 14.3085 128.792 13.0407 130.13C11.5311 131.723 9.78307 133.391 9.35403 135.627C9.21009 136.377 9.01127 137.115 8.88844 137.869C8.84626 138.128 8.70071 138.547 8.76016 138.815C8.81887 139.079 9.30614 139.416 9.48705 139.584C10.0604 140.118 10.6593 140.45 11.4539 140.477C13.6572 140.555 15.8437 139.15 17.8011 138.278C18.7713 137.845 19.7098 137.357 20.6422 136.89" stroke="black" stroke-width="4.25" stroke-linecap="round"/>
<path d="M19.8748 138.684C18.7136 139.974 17.7929 141.592 16.9244 143.083C15.6635 145.247 14.3125 147.39 12.9479 149.492C12.1571 150.71 11.2508 151.827 10.639 153.155C10.114 154.294 9.80878 155.555 9.63179 156.794C9.42889 158.214 12.1681 158.384 13.0715 158.476C14.5073 158.622 15.4582 158.257 16.6916 157.583C17.1208 157.348 17.5392 157.109 17.9364 156.823C18.0788 156.72 18.1602 156.642 18.3355 156.642" stroke="black" stroke-width="4.25" stroke-linecap="round"/>
<path d="M17.879 159.271C15.2928 161.623 13.2878 164.569 11.3532 167.457C8.99502 170.978 6.47677 174.309 4.56957 178.124C3.93403 179.395 3.28173 180.598 4.65014 181.459C6.24608 182.464 8.3733 179.883 9.61297 179.139" stroke="black" stroke-width="4.25" stroke-linecap="round"/>
<path d="M8.74441 180.589C8.74441 187.59 4.86267 193.869 3.52377 200.634C3.39816 201.268 3.15629 201.973 3.23373 202.632C3.30158 203.208 5.46429 201.931 5.62652 201.834C7.13876 200.927 8.65941 199.421 10.3396 198.861" stroke="black" stroke-width="4.25" stroke-linecap="round"/>
<path d="M10.3648 198.881C10.3648 203.483 8.08434 207.895 6.23687 212.01C4.7792 215.257 4.13128 218.435 3.49099 221.921C3.29784 222.972 3 223.994 3 225.067C3 225.798 3.95243 225.558 4.47296 225.558C6.90023 225.558 8.91964 225.039 10.6921 223.267" stroke="black" stroke-width="4.25" stroke-linecap="round"/>
<path d="M214.327 57.8082C216.578 57.8082 218.474 56.5369 220.637 56.0503C220.701 56.0359 221.478 55.9176 221.383 55.8413C221.267 55.7488 221.183 55.4701 221.112 55.3472C220.509 54.3102 219.812 53.3353 219.059 52.4016C216.281 48.9576 213.065 45.7723 209.828 42.762C206.917 40.055 203.665 38.0008 200.122 36.2295C198.45 35.3932 196.801 34.7188 194.915 34.7188" stroke="black" stroke-width="4.25" stroke-linecap="round"/>
<path d="M213.901 58.748C215.09 58.748 216.058 59.4811 216.961 60.2018C218.729 61.6138 220.264 63.3883 221.811 65.0335C223.111 66.4163 224.34 67.8641 225.659 69.2286C226.954 70.567 228.212 72.1386 229.104 73.7799C229.418 74.3582 229.931 75.245 229.892 75.9368C229.884 76.0892 228.193 76.0935 228.006 76.1079C226.15 76.2507 224.314 76.2789 222.453 76.2789" stroke="black" stroke-width="4.25" stroke-linecap="round"/>
<path d="M223.902 77.1357C224.826 77.1357 225.758 77.6672 226.553 78.0859C227.893 78.7909 229.308 79.6859 230.402 80.7417C231.917 82.2049 233.167 83.9137 234.421 85.5971C235.383 86.8884 236.356 88.119 237.148 89.5261C237.31 89.8149 237.402 90.2096 237.414 90.5428C237.429 90.9412 235.944 90.7328 235.685 90.7328C233.948 90.7328 231.941 91.2459 230.231 90.8184" stroke="black" stroke-width="4.25" stroke-linecap="round"/>
<path d="M231.771 92.2715C232.76 92.766 233.651 93.4555 234.489 94.1718C235.705 95.2113 236.889 96.3047 238.095 97.3597C239.779 98.8337 241.689 100.858 242.119 103.132C242.259 103.876 242.204 104.649 242.204 105.403C242.204 106.045 241.636 105.752 241.078 105.835C239.545 106.065 238.012 106.701 236.579 107.27C236.01 107.496 235.274 107.667 234.764 108.006" stroke="black" stroke-width="4.25" stroke-linecap="round"/>
<path d="M236.305 108.434C236.808 108.479 237.382 109.124 237.758 109.412C238.688 110.124 239.588 110.901 240.476 111.664C242.057 113.023 243.45 114.414 244.752 116.045C245.422 116.884 245.991 117.802 246.614 118.677C246.933 119.123 247.292 119.633 247.488 120.149C247.769 120.888 247.738 121.829 247.678 122.61C247.654 122.927 245.703 123.007 245.455 123.057C244.18 123.312 242.791 123.315 241.502 123.142C239.771 122.91 238.118 122.29 236.514 121.622C235.982 121.401 235.451 121.195 234.936 120.938C234.768 120.854 234.614 120.748 234.423 120.748" stroke="black" stroke-width="4.25" stroke-linecap="round"/>
<path d="M237.161 123.571C237.713 123.571 238.281 124.247 238.667 124.569C239.817 125.53 240.931 126.565 242.03 127.586C243.38 128.839 244.691 130.181 245.959 131.52C247.469 133.113 249.217 134.781 249.646 137.016C249.79 137.766 249.989 138.504 250.112 139.259C250.154 139.518 250.299 139.937 250.24 140.204C250.181 140.468 249.694 140.805 249.513 140.974C248.94 141.508 248.341 141.839 247.546 141.867C245.343 141.944 243.156 140.54 241.199 139.667C240.229 139.235 239.29 138.746 238.358 138.28" stroke="black" stroke-width="4.25" stroke-linecap="round"/>
<path d="M239.129 140.075C240.29 141.365 241.211 142.984 242.079 144.475C243.34 146.639 244.691 148.782 246.056 150.884C246.847 152.101 247.753 153.219 248.365 154.546C248.89 155.686 249.195 156.947 249.372 158.186C249.575 159.606 246.836 159.776 245.932 159.867C244.497 160.013 243.546 159.648 242.312 158.974C241.883 158.74 241.465 158.5 241.068 158.214C240.925 158.112 240.844 158.034 240.668 158.034" stroke="black" stroke-width="4.25" stroke-linecap="round"/>
<path d="M241.125 160.66C243.711 163.011 245.716 165.957 247.651 168.846C250.009 172.366 252.527 175.698 254.434 179.512C255.07 180.784 255.722 181.986 254.354 182.848C252.758 183.853 250.631 181.271 249.391 180.528" stroke="black" stroke-width="4.25" stroke-linecap="round"/>
<path d="M250.259 181.978C250.259 188.978 254.141 195.257 255.48 202.022C255.606 202.657 255.848 203.362 255.77 204.02C255.702 204.597 253.54 203.32 253.377 203.223C251.865 202.315 250.344 200.81 248.664 200.25" stroke="black" stroke-width="4.25" stroke-linecap="round"/>
<path d="M248.635 200.272C248.635 204.875 250.916 209.287 252.763 213.402C254.221 216.648 254.869 219.826 255.509 223.312C255.702 224.364 256 225.386 256 226.458C256 227.19 255.048 226.949 254.527 226.949C252.1 226.949 250.08 226.431 248.308 224.658" stroke="black" stroke-width="4.25" stroke-linecap="round"/>
<path d="M120.461 11.7324C120.525 11.1559 122.316 11.3604 122.749 11.3965C124.85 11.5715 126.776 12.8588 128.554 13.8365C128.984 14.0728 129.279 14.1882 129.663 13.8809C131.472 12.4342 133.453 11.3624 135.545 10.3634C138.952 8.73563 142.499 7.39412 145.951 5.8637C147.984 4.9623 150.042 4.35136 152.175 3.74692C155.738 2.73677 159.262 2.49206 162.949 2.49206C163.729 2.49206 164.513 2.47038 165.294 2.49206C165.541 2.49894 166.483 2.73745 166.542 3.00541C166.808 4.20298 165.931 5.74348 165.205 6.59887C164.701 7.19257 164.197 7.8097 163.646 8.36074C163.435 8.57195 163.4 8.81192 163.126 8.88043" stroke="black" stroke-width="4.25" stroke-linecap="round"/>
<path d="M163.5 10.3369C164.529 10.3369 165.557 10.3369 166.586 10.3369C168.249 10.3369 169.988 11.0747 171.493 11.7436C173.044 12.4328 174.705 13.0224 176.161 13.8959C177.679 14.8068 179.173 15.7822 180.718 16.6445C181.791 17.2437 182.73 17.9563 183.453 18.9458C183.64 19.2013 183.635 19.1895 183.22 19.2051C182.652 19.2265 182.095 19.396 181.561 19.5811C180.257 20.0322 178.638 21.1768 177.852 22.3557" stroke="black" stroke-width="4.25" stroke-linecap="round"/>
<path d="M181.004 21.6562C182.309 21.6562 183.484 21.8593 184.738 22.2397C186.436 22.7549 188.241 23.3298 189.866 24.0483C191.825 24.915 193.88 25.5842 195.706 26.7257C196.598 27.2827 197.586 27.6454 198.449 28.2555C199.292 28.8523 200.033 29.5892 200.867 30.2003C201.181 30.4307 202.241 31.1532 202.241 31.5746" stroke="black" stroke-width="4.25" stroke-linecap="round"/>
<path d="M195.352 34.4912C196.364 34.4912 197.284 34.2399 198.269 34.0244C199.638 33.7249 201.041 33.5736 202.444 33.5577C203.23 33.5487 204.017 33.5577 204.803 33.5577" stroke="black" stroke-width="4.25" stroke-linecap="round"/>
<path d="M103.62 76.6924C102.55 76.7293 101.524 77.3671 100.594 77.8501C99.5105 78.4124 98.5882 79.282 97.7636 80.1655C96.6301 81.3799 95.061 82.5122 94.5748 84.1531C94.4786 84.478 94.4375 84.8465 94.2973 85.1551C94.0615 85.6737 95.0654 85.4665 95.3399 85.4665C96.3938 85.4665 97.4476 85.4665 98.5015 85.4665" stroke="black" stroke-width="4.25" stroke-linecap="round"/>
<path d="M98.2663 87.0488C97.3099 88.8659 95.8562 90.5245 95.8832 92.6816C95.9042 94.3635 97.533 96.2691 99.1193 96.7979" stroke="black" stroke-width="4.25" stroke-linecap="round"/>
<path d="M99.119 96.7988C98.5031 96.7988 98.1 97.1912 97.6296 97.5571C96.7506 98.2407 96.0578 98.9937 95.348 99.8454C94.8711 100.418 93.8789 101.564 93.8789 102.35C93.8789 103.099 93.7054 104.151 94.5153 104.503C95.8715 105.094 97.5379 104.842 98.9971 104.842" stroke="black" stroke-width="4.25" stroke-linecap="round"/>
<path d="M98.9951 106.185C97.8707 108.229 95.6567 109.575 95.5829 112.156C95.5159 114.5 99.3173 113.232 100.403 112.521C101.185 112.01 101.968 111.059 102.956 111.059C103.926 111.059 104.33 113.197 104.506 113.835C104.806 114.923 105.057 116.145 106.124 116.719C106.643 116.998 107.198 116.719 107.661 116.468C109.195 115.64 110.426 114.414 111.615 113.158C112.377 112.352 113.148 111.597 113.957 110.842C114.116 110.694 114.317 110.652 114.533 110.7C114.826 110.765 115.219 111.236 115.386 111.445C116.149 112.407 116.701 113.568 117.247 114.661C117.691 115.547 118.09 116.477 119.299 116.211C120.386 115.973 121.513 114.925 122.264 114.16C123.173 113.235 123.725 112.319 124.343 111.208C124.906 110.194 125.51 110.342 126.55 110.903C128.544 111.98 130.193 113.847 131.627 115.568C131.832 115.813 132.046 116.194 132.291 116.394C132.68 116.712 133.976 115.337 134.18 115.175C136.329 113.468 137.667 111.14 139.575 109.231" stroke="black" stroke-width="4.25" stroke-linecap="round"/>
<path d="M139.578 109.229C141.801 109.229 144.294 109.728 146.375 110.475C148.227 111.139 150.245 112.037 151.521 113.589C151.717 113.828 152.659 115.122 152.766 114.781C153.106 113.706 153.851 112.73 154.445 111.788C155.033 110.856 155.619 110.188 156.463 109.5C157.494 108.66 158.113 109.614 158.981 110.353C160.676 111.795 162.226 113.248 163.558 115.024C163.869 115.439 163.85 115.124 163.978 114.754C164.395 113.547 165.1 112.474 165.535 111.274C165.906 110.249 166.166 109.2 166.483 108.159C166.638 107.649 166.634 107.152 166.875 106.67" stroke="black" stroke-width="4.25" stroke-linecap="round"/>
<path d="M150.539 68.2832C154.942 68.2832 159.087 69.7628 162.238 72.914" stroke="black" stroke-width="4.25" stroke-linecap="round"/>
<path d="M162.242 72.9141C160.698 72.9141 158.814 73.5124 158.098 74.9857C157.85 75.4974 157.545 76.0356 157.367 76.57" stroke="black" stroke-width="4.25" stroke-linecap="round"/>
<path d="M157.367 76.5693C160.516 76.5693 163.261 76.9021 165.776 79.0337C167.26 80.2918 168.522 81.7197 169.54 83.3734C169.869 83.9076 170.152 84.4764 170.528 84.9779" stroke="black" stroke-width="4.25" stroke-linecap="round"/>
<path d="M170.527 85.8317C168.894 85.8317 167.26 85.8317 165.626 85.8317C164.998 85.8317 164.25 85.7109 163.703 86.0754" stroke="black" stroke-width="4.25" stroke-linecap="round"/>
<path d="M166.75 87.7832C167.086 87.8137 167.335 88.037 167.576 88.2571C168.384 88.996 169.11 89.8358 169.769 90.7079C170.537 91.7242 171.273 92.8137 171.746 93.9982" stroke="black" stroke-width="4.25" stroke-linecap="round"/>
<path d="M167.842 106.4C168.985 106.4 170.233 106.284 171.335 106.658C171.618 106.754 171.883 106.924 171.665 106.39C171.029 104.835 170.299 103.289 169.584 101.768C169.163 100.874 168.632 99.7014 167.631 99.3374C166.97 99.097 168.746 98.8442 168.871 98.8206C170.07 98.5934 171.302 98.5101 172.521 98.5814C172.98 98.6082 173.526 98.648 173.871 98.9929C173.943 99.0652 173.957 99.1931 173.957 99.036C173.957 98.8388 173.794 98.5897 173.718 98.4283C173.418 97.7937 173.115 97.1604 172.789 96.5383C172.308 95.6183 171.814 94.685 171.201 93.8444C170.848 93.3605 170.426 92.9392 170.081 92.4473" stroke="black" stroke-width="4.25" stroke-linecap="round"/>
<path d="M177.629 133C177.629 134.003 177.883 134.921 177.883 135.913C177.883 137.188 177.905 137.612 176.317 137.612C172.863 137.612 169.648 137.284 166.256 136.695C164.393 136.371 163.64 139.806 163.024 141.118C159.987 147.592 152.68 137.326 148.815 136.654C147.081 136.353 145.373 138.825 144.356 139.796C142.76 141.321 141.159 144.165 138.641 144.165C136.232 144.165 134.54 141.64 132.404 140.781C129.53 139.624 125.711 140.276 123.077 141.738C121.838 142.426 120.63 145.115 118.929 144.745C115.473 143.995 113.558 139.686 109.813 139.554C107.315 139.465 106.477 142.396 105.002 144.017C102.673 146.577 99.1758 143.434 96.86 142.52C93.2518 141.097 88.7499 141.175 85.0777 142.345C83.615 142.811 83.9065 143.288 83.9065 144.651" stroke="black" stroke-width="4.25" stroke-linecap="round"/>
<path d="M94.7507 249.849V224.663H117.689L116.34 237.706L114.541 261.993C114.541 264.542 114.091 270.268 112.292 272.787C110.493 275.306 97.1501 277.435 90.7035 278.184L70.9136 276.385C62.9979 275.666 63.1178 268.29 64.1673 264.691C64.4671 261.843 66.7759 255.247 73.6122 251.648C80.4485 248.05 90.553 248.95 94.7507 249.849Z" fill="#6D89DD"/>
<path d="M128.48 271.438V225.562H146.471L145.121 248.5C145.571 247.601 148.54 245.622 156.815 244.902C165.091 244.182 173.456 247.601 176.604 249.4C179.453 251.049 185.15 255.606 185.15 260.644C185.15 265.681 183.051 269.939 182.002 271.438C179.603 273.087 170.938 276.565 155.466 277.285C139.994 278.004 131.029 273.686 128.48 271.438Z" fill="#6D89DD"/>
<path d="M12.7773 223.933C41.2116 223.933 69.6458 223.933 98.0801 223.933C106.383 223.933 114.686 223.933 122.989 223.933C124.451 223.933 127.381 224.495 128.505 223.933" stroke="black" stroke-width="4.25" stroke-linecap="round"/>
<path d="M112.695 225.197H247.395" stroke="black" stroke-width="4.25" stroke-linecap="round"/>
<path d="M94.3571 223.933C94.3571 231.393 94.3571 238.852 94.3571 246.312C94.3571 247.052 94.8915 249.802 93.7247 249.861C91.2903 249.982 88.8187 249.861 86.3819 249.861C79.4886 249.861 74.2861 249.863 69.2019 255.06C66.2832 258.044 64.0965 261.567 64.0022 265.811C63.938 268.703 63.2686 272.889 65.9697 274.84C71.0244 278.491 79.5768 277.686 85.5036 277.686C91.7371 277.686 97.7741 277.263 103.843 275.789C106.152 275.228 110.942 274.84 113.641 270.988" stroke="black" stroke-width="4.25" stroke-linecap="round"/>
<path d="M116.746 227.119C115.277 237.278 115.002 247.156 114.289 257.363C113.99 261.65 114.966 265.94 114.352 270.187" stroke="black" stroke-width="4.25" stroke-linecap="round"/>
<path d="M128.406 225.197V271.994" stroke="black" stroke-width="4.25" stroke-linecap="round"/>
<path d="M145.579 227.727C145.579 234.214 145.579 240.702 145.579 247.19C145.579 248.652 145.123 249.122 146 248.244C148.301 245.944 152.268 245.19 155.346 244.942C167.557 243.957 184.787 248.3 184.787 263.492C184.787 275.617 165.28 277.285 157.265 277.285C152.202 277.285 131.393 276.813 128.48 270.988" stroke="black" stroke-width="4.25" stroke-linecap="round"/>
</svg>
