<svg width="177" height="235" viewBox="0 0 177 235" fill="none" xmlns="http://www.w3.org/2000/svg">
<path d="M120.631 192.651C106.531 194.685 98.9067 188.412 96.8572 185.022L98.4975 152.386C106.286 152.386 122.271 151.962 132.519 160.439C140.717 167.221 142.493 177.393 142.356 181.631C140.99 184.456 134.732 190.616 120.631 192.651Z" fill="#A37BFA"/>
<path d="M99.7514 154.132C107.201 154.132 114.735 151.78 121.937 154.132C128.6 156.307 135.287 160.123 138.941 166.188C140.929 169.485 141.577 174.244 141.844 178.291C140.849 185.317 135.67 189.262 133.13 190.878C126.155 195.315 120.173 192.758 112.225 193.04C106.567 193.24 99.7759 190.408 97.8263 184.284" stroke="black" stroke-width="4" stroke-linecap="round"/>
<path d="M24.3222 208.8L21.1996 196.831L26.6306 167.686L39.4144 160.921L59.7109 167.686L70.6397 168.728H84.1707L102.385 176.534L108.244 171.401V185.204L127.886 188.504L148.703 198.392C148.703 198.392 155.401 202.678 156.394 206.62C157.293 210.189 155.927 212.841 153.907 216.086C150.589 221.415 145.327 222.33 139.448 224.532C130.242 227.981 114.876 227.015 114.876 227.015L96.1404 223.892C96.1404 223.892 88.681 233.26 78.4461 232.74C68.2111 232.219 49.0191 230.346 40.6924 227.015C32.3656 223.684 25.1896 213.484 24.3222 208.8Z" fill="#A37BFA"/>
<path d="M109.201 177.447L23.2554 167.415C29.2209 158.315 32.3902 141.458 33.1507 138.134C33.5105 126.761 38.6176 99.4674 56.1681 81.2812C73.7186 63.0951 106.87 58.5071 121.252 58.4864C132.01 62.5199 159.873 72.7485 164.614 86.5708C168.551 98.0496 161.705 111.065 148.635 111.749C130.242 112.712 117.41 110.576 107.321 110.413C102.276 110.332 92.2937 111.019 92.7234 114.417C93.6097 121.426 103.887 123.074 109.201 125.279C118.562 126.792 140.185 131.825 144.281 136.917C149.402 143.282 142.753 147.467 139.568 147.87C137.019 148.193 121.445 150.44 113.028 155.542C104.611 160.644 109.201 177.447 109.201 177.447Z" fill="#A37BFA"/>
<path d="M22.3928 197.252C21.5414 190.52 28.5435 150.419 30.6658 144.021C31.5865 141.246 32.9245 138.691 33.737 135.856C34.662 132.628 35.1446 129.221 36.1137 126.056C36.9554 123.306 37.2045 120.427 37.892 117.652C38.7695 114.111 40.4635 110.861 41.232 107.3C42.1595 103.002 43.2291 98.5731 44.7732 94.4543C46.0474 91.0556 51.8193 84.1446 55.6922 81.24" stroke="black" stroke-width="4" stroke-linecap="round"/>
<path d="M46.9796 90.9209C49.1048 87.5796 51.6818 85.164 53.4344 83.2551C56.1811 80.2635 59.1978 78.8605 62.0765 76.2503C68.1121 70.7776 76.3734 67.0565 83.7949 63.9472C93.0064 60.0879 103.66 59.1104 113.503 57.8655C125.394 56.3618 134.935 63.5262 145.016 68.3157C158.343 74.6474 173.367 91.0921 159.77 105.106C155.191 109.827 150.526 111.039 144.093 111.853C136.728 112.784 129.423 110.409 122.033 109.879C118.057 109.594 114.475 109.175 110.488 109.359C106.019 109.564 101.649 109.989 97.1793 110.554C91.9504 111.215 92.4438 111.914 93.085 116.984C93.5304 120.505 96.3202 120.235 99.1309 121.901C103.468 124.473 108.113 125.014 112.645 126.42C119.008 128.394 125.576 129.541 132.072 131.166C133.938 131.633 135.621 131.777 137.399 132.444C139.296 133.155 140.663 134.667 142.425 135.424C144.316 136.237 145.915 138.512 146.169 140.518C146.509 143.213 143.439 145.362 141.729 147.164C140.116 148.863 135.101 149.036 132.883 149.832C129.377 151.09 125.23 150.216 121.725 151.473C119.921 152.12 111.371 153.368 107.732 155.194" stroke="black" stroke-width="4" stroke-linecap="round"/>
<path d="M105.541 67.213C104.86 61.8267 104.86 56.2902 111.602 53.3903C114.339 52.2127 115.699 49.1596 115.228 45.4352C114.531 39.9285 109.605 40.5106 108.906 34.9791" stroke="black" stroke-width="4" stroke-linecap="round"/>
<path d="M94.2637 32.8874C97.3428 36.4424 104.584 35.7337 108.924 35.1848C114.081 34.4182 119.733 32.8906 121.041 26.9991C122.316 21.2559 118.891 5.76369 110.677 6.23189C102.785 6.68174 94.1868 11.3902 91.2933 19.1082C89.296 24.4357 90.6967 28.7692 94.2637 32.8874Z" fill="white"/>
<path d="M108.924 35.1848C104.584 35.7337 97.3429 36.4424 94.2637 32.8874C90.6967 28.7692 89.296 24.4357 91.2933 19.1082C94.1868 11.3902 102.785 6.68174 110.677 6.23189C118.891 5.76369 122.316 21.2559 121.041 26.9991C119.54 33.7614 112.316 34.7745 106.685 35.4865" stroke="black" stroke-width="4" stroke-linecap="round"/>
<path d="M132.845 60.9513C135.234 60.1974 137.851 56.9283 137.955 54.467C138.101 51.0301 137.408 47.5732 136.977 44.1658" stroke="black" stroke-width="4" stroke-linecap="round"/>
<path d="M125.618 31.6552C124.64 38.2501 130.43 44.993 136.977 44.1651C143.204 43.3775 150.301 42.4556 154.916 37.6338C159.079 33.2826 158.728 26.1271 156.115 20.918C153.445 15.5972 148.796 15.9824 143.665 16.6313C140.598 17.0192 137.702 18.2756 134.734 19.1044C132.731 19.6637 132.065 20.9025 130.811 22.5195C128.147 25.954 126.223 27.5748 125.618 31.6552Z" fill="white" stroke="black" stroke-width="4" stroke-linecap="round"/>
<path d="M142.348 41.4196C138.318 41.9292 143.68 28.6156 145.973 32.8466C146.712 34.21 146.6 36.373 146.792 37.8872C146.954 39.1722 146.529 39.3074 145.283 39.4183C142.907 39.6297 143.329 36.297 144.505 35.2782" stroke="black" stroke-width="5.91219" stroke-linecap="round"/>
<path d="M105.918 25.2569L106.009 25.9758C106.474 26.0822 106.821 26.4375 106.915 27.1809C107.143 28.9854 107.987 30.9688 110.002 31.4134C113.857 32.2643 110.864 25.7311 109.413 24.6057C108.308 23.7485 105.68 23.3715 105.918 25.2569Z" fill="#A37BFA"/>
<path d="M106.572 30.4247C106.354 28.7021 106.136 26.9795 105.918 25.2569C105.68 23.3715 108.308 23.7485 109.413 24.6057C110.864 25.7311 113.857 32.2643 110.002 31.4134C107.987 30.9688 107.143 28.9854 106.915 27.1809C106.685 25.3644 104.95 25.8648 103.647 26.6527C102.541 27.3221 101.722 31.908 103.053 32.3758" stroke="black" stroke-width="6.63264" stroke-linecap="round"/>
<path d="M143.843 33.5399C143.104 33.0339 140.929 33.7444 140.111 33.8479C138.189 34.0909 138.171 34.8845 137.44 36.4992C137.056 37.3488 137.317 38.8694 137.44 39.8364C137.489 40.2286 136.765 38.5712 136.824 38.1802C136.982 37.1232 137.512 36.0654 138.014 35.1332C139.303 32.7428 141.862 30.1367 144.841 31.3551C146.013 31.8342 148.179 33.0816 148.388 34.4771C148.506 35.2697 148.756 36.0892 148.851 36.8414" stroke="black" stroke-width="5.91219" stroke-linecap="round"/>
<path d="M108.68 188.529C111.782 188.529 114.901 188.44 117.998 188.613C126.32 189.079 134.582 192.443 142.14 195.771C147.348 198.064 155.422 201.78 155.422 210.977C152.01 224.049 138.349 226.014 126.172 227.367C115.285 228.576 106.799 227.988 96.8449 223.564" stroke="black" stroke-width="4" stroke-linecap="round"/>
<path d="M73.5875 199.591C89.3956 198.439 94.6341 208.224 96.278 215.995C96.7244 218.105 97.4847 221.198 96.4051 223.237C95.0802 225.74 91.8862 228.074 89.3956 229.294C83.5334 232.165 77.314 232.746 70.9083 232.746C63.0168 232.746 54.0392 232.117 46.7245 229.019C40.4304 226.352 34.5857 222.44 29.1902 218.261C23.3461 213.734 22.1595 205.237 22.1595 198.439" stroke="black" stroke-width="4" stroke-linecap="round"/>
<path d="M31.3186 197.435C47.2193 199.76 55.8167 192.591 58.1279 188.716L56.2781 151.419C47.4958 151.419 29.4697 150.935 17.914 160.622C8.66945 168.372 6.66646 179.998 6.82054 184.841C8.3613 188.071 15.418 195.11 31.3186 197.435Z" fill="#A37BFA"/>
<path d="M55.2522 151.527C46.8307 151.527 38.0456 150.724 29.904 153.412C22.3719 155.898 16.8258 161.647 12.6944 168.578C10.4481 172.347 7.12497 177.773 6.82367 182.398C6.55798 186.476 11.0947 190.041 13.9661 191.888C21.8508 196.959 31.898 197.556 40.8826 197.878C47.2793 198.107 54.9558 194.871 57.1597 187.872" stroke="black" stroke-width="4" stroke-linecap="round"/>
</svg>
