<svg width="166" height="194" viewBox="0 0 166 194" fill="none" xmlns="http://www.w3.org/2000/svg">
<path d="M150.846 187.329C163.029 184.092 164.948 165.902 164.385 157.212C162.473 155.694 156.892 151.972 149.871 149.227C142.849 146.482 138.155 150.746 136.685 153.221C137.439 150.694 134.716 142.825 133.26 139.207C129.457 137.041 120.105 132.44 113.127 131.365C106.148 130.291 99.1253 136.773 96.4864 140.148L96.1524 127.099C96.0348 122.506 84.0434 119.923 78.0624 119.206L82.4454 110.737C83.2432 108.628 83.3606 102.566 77.4478 95.1965C70.0569 85.9846 61.5078 91.4263 64.0214 89.7951C66.5351 88.1639 68.7949 76.6157 68.1371 70.8874C67.611 66.3048 58.2236 62.9587 53.5957 61.8585C54.0441 59.4097 54.597 53.0585 53.2216 47.2442C51.8462 41.4298 41.8525 35.6967 37.0277 33.5569C33.7748 32.9438 24.1214 32.5294 11.5302 35.7765C-1.06092 39.0236 2.3202 55.3368 5.58465 63.0875L17.0081 70.1071L12.4923 73.3564C11.0224 75.8314 8.53128 82.3367 10.326 88.5581C12.1207 94.7796 21.5205 99.9359 25.9961 101.736C23.4958 103.89 17.7142 117.617 23.4794 123.215C28.0916 127.693 38.4648 129.621 43.0749 130.025C41.4434 132.852 38.1049 139.553 37.8032 143.739C37.4261 148.972 40.06 152.038 47.3039 155.509C53.0991 158.285 64.073 158.387 68.8355 158.091C68.929 161.745 72.2235 170.927 75.4082 175.546C78.593 180.165 89.8266 179.49 98.9933 178.211C106.327 177.187 110.517 175.826 111.695 175.274L114.396 180.95L129.905 187.865C131.809 189.035 138.663 190.566 150.846 187.329Z" fill="#2BD968"/>
<ellipse cx="41.1218" cy="53.819" rx="12.7729" ry="10.4423" transform="rotate(-1.46641 41.1218 53.819)" fill="white"/>
<path d="M35.1307 64.6294C32.0647 64.7079 30.6874 61.2307 29.4007 58.9339C28.548 57.4117 28.3165 55.4278 28.3638 53.7269C28.4175 51.7946 29.467 50.1998 30.4436 48.5551C32.0341 45.8763 34.8974 44.2723 38.047 43.6813C39.3248 43.4416 40.5874 43.4337 41.8859 43.4005C43.3398 43.3633 45.0413 43.1067 46.4443 43.5543C49.3655 44.486 52.3865 46.7957 53.2378 49.6823C53.708 51.2766 54.1486 53.1344 53.6863 54.7759C53.3152 56.0935 53.0043 57.8237 52.1668 58.9597C49.9997 61.899 46.3902 63.9014 42.685 64.7335C40.5919 65.2036 38.0869 65.6411 35.9379 65.2173C35.3625 65.1038 34.7639 64.9478 34.2607 64.6517C33.9658 64.4781 33.941 64.1563 33.6929 63.9359" stroke="black" stroke-width="4.8981" stroke-linecap="round"/>
<path d="M42.3989 54.7205C42.3614 55.0798 40.4259 54.8723 40.172 54.7127C38.9095 53.919 39.9739 51.9726 40.6577 51.1359C41.4017 50.2257 42.036 50.0637 43.2235 50.0333C44.7171 49.9951 44.7758 52.1333 44.7866 53.104C44.8012 54.4158 43.7092 55.5799 42.2869 55.6163C41.4996 55.6364 40.9255 55.0716 40.7998 54.3438C40.6143 53.2694 41.5686 52.3032 42.5215 51.8947C43.3194 51.5527 44.9587 51.2066 45.5471 52.0621C46.1674 52.964 46.0257 54.0382 45.2189 54.7635C44.2326 55.6502 41.5 56.5662 40.3918 55.3912C38.3716 53.2491 40.6292 50.2659 43.0795 49.677C45.9171 48.995 47.9078 52.7029 47.6384 54.9752C47.3937 57.0386 44.8424 58.1543 42.896 57.7393C40.9915 57.3333 40.8017 54.3826 41.0638 52.9401C41.3934 51.1257 43.1716 50.0698 44.9727 50.1254C45.8248 50.1517 46.2643 50.7773 46.4408 51.5351C46.7585 52.8994 46.6181 53.6383 45.4973 54.5116" stroke="black" stroke-width="4.8981" stroke-linecap="round"/>
<path d="M111.703 176.319C111.762 178.632 114.918 180.603 116.453 182.01C118.305 183.708 119.966 184.273 122.276 184.967C127.814 186.63 133.339 188.809 139.13 189.732C143.692 190.46 147.452 189.334 151.512 187.34C155.206 185.525 158.493 183.185 160.121 179.216C161.422 176.043 162.532 173.162 163.042 169.701C163.365 168.538 163.68 165.29 163.713 164.033C163.988 153.302 151.655 144.204 136.513 153.33" stroke="black" stroke-width="4" stroke-linecap="round"/>
<path d="M95.5972 140.45C97.4078 137.513 98.536 136.572 101.304 134.669C103.295 133.3 105.937 131.352 108.44 131.288C111.323 131.214 114.191 131.071 117.033 131.36C118.851 131.545 121.086 132.362 122.804 132.962C124.807 133.662 127.106 134.435 128.752 135.867C132.003 138.755 137.925 146.297 135.605 153.357" stroke="black" stroke-width="4" stroke-linecap="round"/>
<path d="M96.6427 138.231C96.5763 135.641 96.2196 132.842 96.6965 130.342C97.136 128.039 96.2559 125.348 94.3268 124.175C88.6826 120.745 82.4467 119.221 75.8477 119.39" stroke="black" stroke-width="4" stroke-linecap="round"/>
<path d="M79.3387 118.196C79.4043 117.405 89.0316 108.482 78.8864 95.2351C78.1845 94.4782 76.8455 93.791 75.9894 93.1566C74.1556 91.7977 72.1208 90.2192 69.8127 89.9166C67.7102 89.641 65.5875 89.7633 63.4455 89.8182C61.9838 89.8556 61.9429 90.3635 60.6417 90.8442" stroke="black" stroke-width="4" stroke-linecap="round"/>
<path d="M62.243 89.9389C63.8522 88.9605 65.3096 86.4766 66.0421 85.6006C66.954 84.5101 67.2041 83.342 67.7133 82.1135C69.0817 78.8119 69.5991 75.3194 68.3809 71.1639C66.5353 66.3634 62.265 64.1415 59.155 62.2512C56.9771 60.9274 49.0764 61.4021 51.6084 61.3373" stroke="black" stroke-width="4" stroke-linecap="round"/>
<path d="M68.8984 158.431C70.5278 176.895 86.4207 180.233 88.9701 180.213C94.885 180.166 98.5906 179.163 104.361 177.829C105.221 177.63 114.068 174.821 113.526 173.781" stroke="black" stroke-width="4" stroke-linecap="round"/>
<path d="M68.7132 158.045C64.1978 158.161 60.8764 158.988 56.4979 157.69C53.8239 156.897 50.0117 156.499 47.2998 155.137C45.2689 154.118 43.9056 153.143 42.4225 151.989C39.2658 149.531 38.5778 144.628 38.4803 140.821C38.4084 138.01 40.1017 135.102 41.5252 132.807C42.2055 131.711 43.3732 130.683 43.8791 129.541" stroke="black" stroke-width="4" stroke-linecap="round"/>
<path d="M42.2311 128.833C40.4712 128.878 38.5602 129.162 36.8163 128.91C34.5574 128.585 31.2541 128.11 29.3146 126.811C26.0318 124.613 23.3589 123.103 21.6768 119.396C20.1024 115.925 21.2201 111.653 22.7504 108.436C23.3945 107.081 26.5083 100.692 28.2537 101.237" stroke="black" stroke-width="4" stroke-linecap="round"/>
<path d="M28.2612 101.236C24.0565 101.344 21.4813 99.5436 18.1371 97.2051C16.2611 95.8934 14.2877 94.2563 13.1342 92.2129C12.2381 90.6254 10.6986 89.4503 10.0405 87.7407C8.40487 83.4916 9.8987 79.0094 11.5595 75.3701C12.6347 73.0142 13.7201 71.7509 15.9822 71.693" stroke="black" stroke-width="4" stroke-linecap="round"/>
<path d="M16.319 70.4356C13.8104 69.7393 12.3767 67.9117 10.9089 66.8052C9.93057 66.0676 8.96046 65.243 8.07843 64.3867C7.28063 63.6121 6.73149 62.5041 5.8463 61.8298C4.48784 60.7951 3.78559 58.528 3.40282 56.8951C2.84374 54.5101 2.08281 52.3521 2.01934 49.8728C1.89959 45.195 4.56045 41.4869 7.56008 38.2603C10.3769 35.2303 14.2426 33.7839 18.3364 33.6791C20.9728 33.6116 23.6092 33.5441 26.2457 33.4766C29.3542 33.397 32.6426 32.9654 35.7107 33.5111C40.5954 34.3798 44.5749 37.8852 48.1107 41.22C49.5267 42.5555 50.8563 44.6447 51.7638 46.3852C52.7433 48.2637 53.983 50.7414 54.3511 52.8231C54.5301 53.8354 55.506 59.6347 54.5538 60.1524" stroke="black" stroke-width="4" stroke-linecap="round"/>
<path d="M5.12977 58.4312C6.05954 58.4074 7.02896 58.2995 7.95619 58.3703C9.48485 58.4871 10.9298 59.1052 12.4786 59.0655C13.4179 59.0415 16.1177 59.1706 16.5907 58.1378" stroke="black" stroke-width="4" stroke-linecap="round"/>
<path d="M19.5302 28.976L18.5971 32.4565L23.0236 32.3432L27.5632 23.3386L31.0184 18.5591L34.3978 10.8187L31.1818 4.97549L26.0743 5.10623C24.4399 5.14807 18.8835 8.1518 19.0307 9.46483C19.0855 11.6032 22.6609 14.5947 21.8883 14.6145C16.4404 14.754 19.7401 19.4271 19.3113 20.4256L18.3697 23.574L19.5302 28.976Z" fill="#E8D821"/>
<path d="M18.305 31.9581C18.2289 28.9867 18.1528 26.0153 18.0768 23.0439C18.0239 20.9775 19.1776 19.5131 19.7147 17.7105" stroke="black" stroke-width="4" stroke-linecap="round"/>
<path d="M20.8474 15.8658C20.7746 13.0194 17.9927 7.56606 20.8923 5.416C24.9864 2.38013 30.7853 2.88032 33.0714 7.92636C33.6763 9.26155 35.6155 12.3465 34.8503 13.8443C34.2058 15.1056 32.2279 16.0441 31.2354 17.1117C29.3379 19.1527 27.22 21.9005 26.7634 24.7855C26.4401 26.8279 25.3288 29.1081 25.3816 31.1707" stroke="black" stroke-width="4" stroke-linecap="round"/>
<path d="M34.3767 29.9701L32.938 33.6629L39.5777 33.493L46.4877 23.9149L54.5394 19.0082L56.8793 10.5918L52.1223 4.44614L44.4611 4.64226C42.0095 4.70502 41.8083 7.49569 42.0142 8.88318L42.2146 16.7123C42.236 17.5474 40.9328 19.8788 40.2785 20.9402L38.3157 24.1241L34.3767 29.9701Z" fill="#E8D821" stroke="black"/>
<path d="M33.3999 31.8724C33.3583 30.2442 35.2733 27.9379 36.2094 26.6769C37.0516 25.5423 37.8427 24.299 38.8015 23.2677C40.3336 21.6197 41.6693 19.7095 41.6114 17.4506C41.5471 14.9381 41.4828 12.4256 41.4185 9.91308C41.3757 8.24164 41.1388 7.033 42.4985 5.8706C45.1472 3.60631 49.879 3.5767 52.8296 5.53893C55.2338 7.13774 55.9317 10.4897 56.0002 13.1683C56.066 15.7368 53.5461 17.9298 51.9897 19.6039C49.5061 22.2755 46.0898 23.6214 43.9172 26.614C42.6869 28.3087 40.1729 30.6058 40.2318 32.907" stroke="black" stroke-width="4" stroke-linecap="round"/>
</svg>
