<svg width="172" height="146" viewBox="0 0 172 146" fill="none" xmlns="http://www.w3.org/2000/svg">
<path d="M119.377 10.1827C121.954 14.3705 121.793 24.8132 121.391 29.511L126.625 24.6786L134.276 22.6652C137.766 21.5914 147.242 20.8935 157.229 26.692C167.215 32.4904 169.443 40.9197 169.308 44.4096C169.577 47.6309 169.791 55.2012 168.503 59.7111C166.892 65.3486 166.087 66.9592 160.449 74.61C155.939 80.7307 137.9 79.5763 129.443 78.2341L131.054 117.696V129.374C130.517 132.192 129.443 137.991 129.443 138.635C129.443 139.44 124.611 142.259 121.391 143.467C118.814 144.434 106.089 143.87 100.048 143.467L75.0826 139.843H58.1703C52.6672 140.111 40.4527 140.648 35.6207 140.648C29.5806 140.648 17.5004 141.051 12.2656 137.83C8.07784 135.253 5.68866 127.36 5.01753 123.736C3.94374 119.173 1.95721 108.596 2.60149 102.797C3.24577 96.9986 5.28598 95.0121 6.22554 94.7437L11.4603 89.1063C11.7287 87.6298 13.3126 84.1131 17.5004 81.8581C22.7351 79.0394 27.1645 81.8581 34.01 85.4822C39.4863 88.3814 40.8554 95.549 40.8554 98.7704H45.6875L44.0768 87.0929L45.6875 70.1806L41.6608 71.7913C32.6409 73.402 21.5271 70.3149 17.0977 68.5699C14.4132 65.8855 7.9973 58.5031 3.80951 50.4497C-0.378296 42.3962 3.67528 32.0609 6.22554 27.9L17.5004 19.0412L28.7752 17.4305L40.8554 19.0412L52.9356 23.8732C51.8618 21.9941 49.7142 17.1889 49.7142 13.0011C49.7142 8.81328 51.8618 5.35029 52.9356 4.14227L58.9757 2.12891C60.4522 2.12891 64.5326 3.01486 69.0425 6.55867C73.5525 10.1025 73.0693 18.2361 72.2639 21.8599L104.791 21.2732C104.791 21.2732 103.832 13.5691 106.626 10.1827C108.264 8.19795 112.129 6.55867 112.129 6.55867C113.471 6.02177 116.8 5.99493 119.377 10.1827Z" fill="#6DDDD9" stroke="black"/>
<path d="M94.6951 33.6634C95.369 32.7777 95.6128 31.8279 96.9895 30.4512C98.2209 29.8355 98.4648 29.476 99.8938 29.2275C101.826 28.8914 103.629 29.2275 105.549 29.2275C107.768 29.2275 110.753 29.7416 112.712 30.8297C114.243 31.6807 115.536 33.068 116.764 34.296C117.996 35.5282 119.367 36.8259 119.927 38.5057C120.493 40.205 120.723 41.7281 120.723 43.5114C120.723 45.0546 120.622 46.5762 120.534 48.0772C120.464 49.2666 118.876 51.7001 118.098 52.4779C115.844 54.7325 112.52 56.748 109.036 56.748C105.019 56.748 101.787 56.0449 98.1135 54.3918C95.9921 53.4372 94.4446 51.3655 93.5791 49.25C92.7525 47.2293 91.8827 44.7993 91.8827 42.6108C91.8827 41.4601 91.7313 40.1781 92.113 39.0712C92.405 38.2244 92.465 37.6867 92.8595 36.8756C93.4677 35.6255 93.8462 34.779 94.6951 33.6634Z" fill="white" stroke="black" stroke-width="3.38967" stroke-linecap="round"/>
<path d="M83.5623 46.056C83.2263 47.5058 83.1187 48.0699 81.845 48.8074C81.7345 49.3045 81.014 50.0289 80.6595 50.3833C79.657 51.3859 78.5722 51.557 77.2796 52.0094C75.4778 52.6401 73.679 52.3521 71.8302 52.3185C70.7506 52.2989 69.7057 52.0364 68.6318 51.9624C67.7266 51.9 66.723 51.8306 65.8365 51.6533C64.4529 51.3766 63.0883 51.0074 61.7848 50.4371C61.1554 50.1617 60.5687 49.6088 60.0713 49.147C59.6087 48.7174 59.1227 48.3865 58.6737 47.9375C57.8639 47.1277 57.1661 45.8692 56.6444 44.8734C55.8472 43.3513 55.1393 41.8625 55.1393 40.1027C55.1393 38.1742 55.1109 36.3939 55.529 34.5122C55.8821 32.9233 57.1737 30.8235 58.5326 29.8892C59.2525 29.3943 60.1647 29.1236 60.9448 28.7335C61.6076 28.4021 62.1707 28.141 62.9069 27.9809C65.0412 27.517 67.193 27.3388 69.3575 27.0402C71.1983 26.7863 72.6672 26.3221 74.5028 26.782C75.0347 26.9771 76.3195 27.3918 76.7972 27.6989C77.1133 27.9021 77.8917 28.4837 78.1739 28.7335C79.489 29.8977 80.34 30.1467 81.6002 31.3675C82.5998 32.3358 83.9058 33.0077 84.4156 34.3778C85.0641 36.1206 84.8689 38.424 84.7128 40.2658L84.7113 40.2841C84.5451 42.245 84.0062 44.1402 83.5623 46.056Z" fill="white"/>
<path d="M81.845 48.8074C83.1187 48.0699 83.2263 47.5058 83.5623 46.056C84.0062 44.1402 84.5451 42.245 84.7113 40.2841C84.8676 38.4393 85.0663 36.1264 84.4156 34.3778C83.9058 33.0077 82.5998 32.3358 81.6002 31.3675C80.34 30.1467 79.489 29.8977 78.1739 28.7335C77.8917 28.4837 77.1133 27.9021 76.7972 27.6989C76.3195 27.3918 75.0347 26.9771 74.5028 26.782C72.6672 26.3221 71.1983 26.7863 69.3575 27.0402C67.193 27.3388 65.0412 27.517 62.9069 27.9809C62.1707 28.141 61.6076 28.4021 60.9448 28.7335C60.1647 29.1236 59.2525 29.3943 58.5326 29.8892C57.1737 30.8235 55.8821 32.9233 55.529 34.5122C55.1109 36.3939 55.1393 38.1742 55.1393 40.1027C55.1393 41.8625 55.8472 43.3513 56.6444 44.8734C57.1661 45.8692 57.8639 47.1277 58.6737 47.9375C59.1227 48.3865 59.6087 48.7174 60.0713 49.147C60.5687 49.6088 61.1554 50.1617 61.7848 50.4371C63.0883 51.0074 64.4529 51.3766 65.8365 51.6533C66.723 51.8306 67.7266 51.8999 68.6318 51.9624C69.7057 52.0364 70.7505 52.2989 71.8302 52.3185C73.679 52.3521 75.4778 52.6401 77.2796 52.0094C78.5722 51.557 79.657 51.3859 80.6595 50.3833C81.014 50.0289 81.7345 49.3045 81.845 48.8074ZM81.845 48.8074C81.973 48.2311 83.2216 47.5489 83.2216 46.9718" stroke="black" stroke-width="3.38967" stroke-linecap="round"/>
<path d="M73.8633 45.3361C74.6476 45.3361 75.0123 44.8413 75.576 44.4294C75.8787 44.2082 76.3508 43.7323 76.4827 43.3761C76.6325 42.9716 76.9009 42.6219 77.0139 42.2038C77.2368 41.3792 77.3253 40.5744 77.3253 39.7126C77.3253 38.9219 77.3253 38.1312 77.3253 37.3405C77.3253 36.7809 77.4023 36.1299 77.1421 35.6095C76.8823 35.0898 76.2696 34.391 75.7591 34.1074C75.3285 33.8682 75.0667 33.4045 74.6372 33.1732C73.9965 32.8283 73.1997 32.3989 72.462 32.3169C71.8838 32.2527 71.2672 32.3123 70.6852 32.3123C69.7431 32.3123 68.8267 32.5461 67.8917 32.642C67.0527 32.7281 66.1883 33.0241 65.4509 33.4297C64.3881 34.0143 63.3005 34.4689 62.3598 35.2386C61.9312 35.5893 61.7532 36.1917 61.5309 36.6856C61.2622 37.2828 60.9536 37.8654 60.8211 38.5128C60.6836 39.185 60.6635 39.8506 60.6746 40.5369C60.6865 41.2729 61.2816 41.9208 61.6638 42.5152C62.1497 43.2712 62.5264 44.1035 63.1475 44.7591C63.8481 45.4987 65.0558 45.8788 66.0325 46.0597C66.7245 46.1878 67.4193 46.3056 68.1115 46.426C68.8961 46.5625 69.7293 46.4901 70.5249 46.4901C71.5549 46.4901 73.0981 46.2426 73.9457 45.5834C75.3368 44.5014 75.9803 43.0105 76.3728 41.3337C76.8077 39.4756 76.9435 37.407 75.7088 35.8522C75.2189 35.2354 74.423 34.0335 73.6022 33.8693C73.0411 33.7571 72.4534 33.4597 71.9033 33.2832C71.4228 33.1289 70.9861 33.1295 70.4837 33.1366C68.3383 33.1668 65.8747 33.6787 64.1549 35.0325C63.5561 35.5039 62.9226 35.9072 62.488 36.5528C61.9564 37.3427 61.9179 38.308 62.0118 39.2364C62.1204 40.3104 62.5602 41.4955 63.0467 42.4511C63.4214 43.187 64.0234 43.9606 64.7136 44.4294C65.7289 45.119 67.1548 45.102 68.3405 45.0888C69.3134 45.078 70.402 44.776 71.3446 44.5485C72.0911 44.3683 72.9538 44.125 73.5335 43.6097C74.0309 43.1676 74.2515 42.7969 74.4815 42.158C74.7775 41.3359 74.6876 40.3425 74.6876 39.4837C74.6876 38.3103 74.6496 37.1866 73.8083 36.2689C73.3037 35.7184 72.5566 35.4035 71.9216 35.0325C71.4538 34.7592 70.9706 34.5258 70.4379 34.4143C69.4476 34.207 68.2949 34.2072 67.3056 34.4143C65.5548 34.7807 63.6293 36.2981 63.349 38.2884C63.1912 39.4088 62.5001 40.1185 63.349 40.9674C64.2543 41.8727 65.5081 42.7116 66.6919 43.193C67.9038 43.6857 69.4104 43.828 70.7126 43.6692C71.7693 43.5404 72.858 42.2263 73.1855 41.2788C73.4916 40.3933 73.7256 38.9159 73.1855 38.0824C72.772 37.4441 71.9912 37.0975 71.3538 36.7269C70.846 36.4316 70.3669 36.3387 69.7876 36.2872C68.9293 36.2109 67.3977 35.9762 66.756 36.7177C66.0616 37.5202 65.7852 38.1492 65.7852 39.1952C65.7852 40.6937 67.4125 41.5762 68.7206 41.6634C69.9793 41.7474 71.3095 41.0223 71.3858 39.6485C71.4405 38.6641 70.9785 38.2268 70.1127 37.9633C69.6175 37.8126 68.5007 37.7698 68.2214 38.2884C68.1194 38.478 68.1043 39.0868 68.2993 39.1952C68.5252 39.3206 69.2472 39.3405 69.2472 39.0349C69.2472 38.7182 69.1037 38.4945 68.7527 38.4945" stroke="black" stroke-width="3.18528" stroke-linecap="round"/>
<path d="M110.948 49.1717C111.743 49.1717 112.112 48.6706 112.683 48.2535C112.989 48.0295 113.467 47.5476 113.601 47.187C113.753 46.7773 114.024 46.4232 114.139 45.9998C114.364 45.1648 114.454 44.3499 114.454 43.4772C114.454 42.6765 114.454 41.8758 114.454 41.0752C114.454 40.5085 114.532 39.8493 114.269 39.3223C114.005 38.796 113.385 38.0885 112.868 37.8013C112.432 37.5591 112.167 37.0895 111.732 36.8553C111.083 36.506 110.276 36.0712 109.529 35.9882C108.944 35.9231 108.32 35.9835 107.73 35.9835C106.776 35.9835 105.848 36.2203 104.901 36.3174C104.052 36.4045 103.177 36.7043 102.43 37.115C101.354 37.707 100.252 38.1673 99.2998 38.9467C98.8657 39.3018 98.6855 39.9118 98.4604 40.412C98.1883 41.0167 97.8758 41.6067 97.7417 42.2623C97.6024 42.9429 97.5821 43.617 97.5933 44.3119C97.6053 45.0572 98.2079 45.7132 98.5949 46.3152C99.087 47.0807 99.4684 47.9235 100.097 48.5874C100.807 49.3363 102.03 49.7212 103.019 49.9043C103.72 50.0341 104.423 50.1534 105.124 50.2753C105.919 50.4135 106.762 50.3402 107.568 50.3402C108.611 50.3402 110.174 50.0896 111.032 49.4221C112.44 48.3265 113.092 46.8167 113.49 45.1188C113.93 43.2372 114.067 41.1425 112.817 39.5681C112.321 38.9435 111.515 37.7264 110.684 37.5602C110.116 37.4465 109.521 37.1454 108.964 36.9666C108.477 36.8104 108.035 36.8111 107.526 36.8182C105.354 36.8488 102.859 37.3671 101.118 38.738C100.511 39.2154 99.8697 39.6237 99.4296 40.2776C98.8912 41.0774 98.8523 42.0549 98.9473 42.995C99.0573 44.0826 99.5027 45.2826 99.9953 46.2503C100.375 46.9954 100.984 47.7788 101.683 48.2535C102.711 48.9518 104.155 48.9346 105.356 48.9213C106.341 48.9103 107.443 48.6045 108.398 48.3741C109.154 48.1916 110.027 47.9453 110.614 47.4235C111.118 46.9758 111.341 46.6004 111.574 45.9535C111.874 45.1209 111.783 44.115 111.783 43.2454C111.783 42.0572 111.745 40.9194 110.893 39.9901C110.382 39.4326 109.625 39.1137 108.982 38.738C108.508 38.4613 108.019 38.2249 107.48 38.112C106.477 37.9021 105.31 37.9023 104.308 38.112C102.535 38.4831 100.279 39.7391 99.9953 41.7545C99.8355 42.8891 100.089 43.6559 100.949 44.5155C101.866 45.4322 102.488 46.5141 103.687 47.0015C104.914 47.5004 106.439 47.6446 107.758 47.4837C108.828 47.3533 109.93 46.0226 110.262 45.0631C110.572 44.1665 110.809 42.6705 110.262 41.8264C109.843 41.18 109.053 40.8291 108.407 40.4538C107.893 40.1548 107.408 40.0608 106.821 40.0086C105.952 39.9313 104.401 39.6936 103.751 40.4445C103.048 41.2571 102.768 41.894 102.768 42.9532C102.768 44.4707 104.416 45.3644 105.741 45.4527C107.015 45.5376 108.362 44.8034 108.44 43.4123C108.495 42.4155 108.027 41.9726 107.151 41.7058C106.649 41.5532 105.518 41.5099 105.235 42.0351C105.132 42.227 105.117 42.8435 105.314 42.9532C105.543 43.0803 106.274 43.1004 106.274 42.7909C106.274 42.4703 106.129 42.2437 105.773 42.2437" stroke="black" stroke-width="3.22547" stroke-linecap="round"/>
<path d="M121.625 29.2501C122.306 28.3652 122.558 27.3415 123.384 26.515C124.464 25.4354 125.741 24.5708 127.132 23.9458C129.244 22.9975 131.704 22.459 133.993 22.2145C137.29 21.8623 140.874 21.6737 144.169 22.104C150.31 22.906 156.857 25.1782 161.647 29.1948C165.919 32.777 168.421 37.4921 169.162 43.0082C169.674 46.8189 169.364 50.8053 169.364 54.6391C169.364 58.3681 169.235 61.5591 167.283 64.8517C165.639 67.6258 163.748 70.3009 161.795 72.8635C160.207 74.9465 158.396 77.3987 155.91 78.4809C153.982 79.3203 151.495 79.299 149.436 79.3097C145.953 79.3279 142.468 79.3097 138.984 79.3097C135.501 79.3097 132.03 78.658 128.652 77.7162C125.338 76.7924 122.336 75.1564 119.609 73.1214C118.779 72.5024 118.25 71.8261 117.647 71.0217" stroke="black" stroke-width="4" stroke-linecap="round"/>
<path d="M121.792 27.5929C121.792 23.9592 122.275 20.251 121.857 16.6251C121.549 13.9613 120.459 11.2445 118.993 9.00008C118.081 7.60395 114.353 6.86974 112.783 6.48605C109.81 5.7593 106.821 8.07572 105.572 10.5932C104.037 13.6888 104.375 17.1184 104.375 20.4652" stroke="black" stroke-width="4" stroke-linecap="round"/>
<path d="M104.043 21.294C95.708 21.294 89.138 20.9789 80.8119 21.4229C77.8465 21.5811 74.8669 21.7913 71.8976 21.7913" stroke="black" stroke-width="4" stroke-linecap="round"/>
<path d="M71.9008 21.7916C71.9008 18.9136 72.1557 15.867 71.4956 13.0432C70.8355 10.2195 69.4841 8.38451 67.6279 6.24698C66.2031 4.60637 64.5442 3.22325 62.5261 2.39766C60.3519 1.50819 58.0964 2.29316 55.9233 2.97782C53.7526 3.66175 52.7024 4.61695 51.5123 6.55088C50.1591 8.7498 50.0204 10.8031 50.0204 13.3286C50.0204 16.5084 51.4996 19.3565 51.8438 22.4547" stroke="black" stroke-width="4" stroke-linecap="round"/>
<path d="M52.4763 24.0266C49.6759 24.0266 48.67 22.8142 46.2244 21.6647C43.7464 20.5001 41.3888 19.2722 38.7375 18.5584C32.7628 16.9498 25.8299 17.0407 19.8445 18.5098C17.1125 19.1804 14.9509 20.2913 12.5882 21.7861C9.92894 23.4684 8.13658 25.7764 6.22983 28.2658C4.82698 30.0973 3.44228 32.323 3.09919 34.6484C2.80308 36.6553 2.92931 38.7166 2.92931 40.7398C2.92931 43.78 3.07231 46.4525 3.80298 49.4158C4.70111 53.0582 6.18555 56.6079 8.17131 59.7906C9.8332 62.4542 11.9075 65.0473 14.3355 67.0469C17.5396 69.6855 22.4962 71.2466 26.494 72.0462C30.0041 72.7482 33.648 72.5073 37.2086 72.5073C40.3301 72.5073 43.4 71.8032 46.3942 70.9298C49.0571 70.1532 51.8632 69.6601 54.4635 68.685C55.0995 68.4465 55.6885 68.0799 56.4414 67.7021" stroke="black" stroke-width="4" stroke-linecap="round"/>
<path d="M44.6172 73.5869C44.6172 77.7504 44.5989 83.5454 44.6172 87.7088C44.6279 90.1348 44.7747 92.5555 44.9382 94.9755C45.0016 95.9139 45.7513 98.0573 45.3906 98.9591C45.3522 99.055 41.6289 98.857 40.9401 98.857" stroke="black" stroke-width="4" stroke-linecap="round"/>
<path d="M40.9414 98.856C40.9414 96.4904 40.8222 94.7281 39.8762 92.5523C38.9593 90.4434 37.4544 88.7326 35.8051 87.1679C33.0298 84.535 29.5539 82.8819 25.9118 81.7835C22.7016 80.8154 18.788 80.4283 15.8725 82.2942C14.8242 82.9652 14.0437 83.6775 13.3044 84.6727C12.9234 85.1855 11.6407 87.1679 11.1818 90.1068" stroke="black" stroke-width="4" stroke-linecap="round"/>
<path d="M74.9297 109.464C74.7091 109.611 74.5465 109.611 74.266 109.62C72.4967 109.679 70.7176 109.63 68.9477 109.63C65.7678 109.63 62.5879 109.63 59.4079 109.63C55.6676 109.63 51.9579 109.298 48.2182 109.298C44.1715 109.298 40.1501 109.464 36.1068 109.464" stroke="black" stroke-width="4" stroke-linecap="round"/>
<path d="M33.4534 117.76C33.4534 114.765 33.7302 111.663 32.9649 108.746C32.2007 105.832 31.3224 103.017 30.3103 100.183C29.3829 97.5859 27.6765 95.3686 25.6188 93.5372C23.7274 91.8539 21.1978 89.8511 18.6874 89.2235C14.7223 88.2323 10.4162 89.7155 7.58069 92.551C6.24647 93.8852 4.92697 95.3421 4.07816 97.0397C2.94229 99.3115 2.76113 101.656 2.51123 104.155C1.91218 110.146 2.8501 116.194 4.08737 122.037C4.71416 124.997 5.28603 127.932 6.65898 130.627C7.81282 132.892 9.26128 135.091 11.1385 136.83C15.5842 140.951 22.0692 141.38 27.7756 140.692C30.0268 140.421 36.4416 139.952 38.7109 140.125" stroke="black" stroke-width="4" stroke-linecap="round"/>
<path d="M129.111 79.5518C129.73 81.7193 130.815 123.367 130.969 125.594C131.159 128.346 131.163 131.314 130.637 134.018C129.99 137.346 128.572 140.627 125.162 141.816C118.805 144.032 111.748 143.955 105.124 143.77C99.0635 143.6 93.013 142.157 87.0397 141.152C82.2878 140.353 77.3047 139.707 72.4765 139.659C71.2802 139.647 69.801 139.454 68.6237 139.696C67.5777 139.911 66.4783 140 65.4161 140.12C65.0997 140.156 64.6215 140.032 64.4759 140.323" stroke="black" stroke-width="4" stroke-linecap="round"/>
<path d="M64.4805 140.324C55.7783 140.324 47.1329 139.826 38.4327 139.826" stroke="black" stroke-width="4" stroke-linecap="round"/>
<path d="M89.8215 62.7933C90.2737 62.6237 90.0599 61.1444 90.0424 60.7808C89.983 59.55 89.1798 60.7808 88.2717 60.7808C87.4129 60.7808 86.9284 60.2758 86.9623 61.0876C87.0452 63.0781 87.8254 64.6836 89.7724 65.4684C91.1562 66.0262 92.5118 65.7136 92.6439 64.0695C92.7994 62.1346 91.4683 60.8097 89.8092 60.069C89.2524 59.8205 87.1364 58.9445 86.5082 59.3082C85.854 59.687 87.205 61.9982 87.4286 62.327C88.7488 64.2685 91.4371 65.0111 91.6622 61.8606C91.8058 59.85 88.9185 57.3187 86.8396 57.9584C86.2446 58.1414 86.0243 59.2015 85.8578 59.7009C85.4516 60.9196 85.9865 61.7604 86.68 62.7442C87.4789 63.8774 88.6699 64.3866 89.8215 63.235" stroke="black" stroke-width="3" stroke-linecap="round"/>
<path d="M117.303 70.2322C117.303 72.5102 123.84 75.1676 125.442 75.8798C129.708 77.7757 132.798 78.1318 137.373 79.092C143.339 79.5509 150.681 80.0112 155.727 78.1756C160.773 76.3401 165.414 68.8663 168.117 63.4912" stroke="black" stroke-width="4" stroke-linecap="round"/>
</svg>
