<svg width="162" height="185" viewBox="0 0 162 185" fill="none" xmlns="http://www.w3.org/2000/svg">
<path d="M9.85486 149.297C3.87313 140.325 3.87313 120.136 4.62085 111.164L20.3221 110.042L71.5407 112.285L157.528 105.93C162.014 110.79 157.528 127.987 154.163 136.212C151.472 142.792 142.075 157.148 137.714 163.504C133.601 167.242 122.012 175.617 108.553 179.206C91.729 183.692 79.0179 183.692 62.942 180.701C50.0812 178.309 35.4011 171.23 29.6686 167.99C25.5564 165.498 15.8366 158.27 9.85486 149.297Z" fill="#CBA2A3"/>
<circle cx="61.7281" cy="58.8208" r="16.1929" fill="white" stroke="black" stroke-width="5"/>
<path d="M52.5246 50.899C49.3438 54.5119 50.7174 62.1316 51.8017 65.4898C57.2239 59.3524 67.6345 47.0775 65.8995 47.0775C63.7308 47.0775 56.5006 46.3827 52.5246 50.899Z" fill="black"/>
<path d="M32.5692 107.049L33.3169 121.256L43.4107 116.396L57.6173 107.049L69.5807 101.068L84.1612 98.8246L71.0762 114.9L69.5807 122.004L71.0762 125.742L75.1886 121.256C75.8117 123.748 77.0579 128.958 77.0579 129.855C77.0579 130.976 80.4226 133.593 81.9181 133.593C83.1144 133.593 86.9028 126.864 88.6475 123.499L95.377 118.265L104.35 116.396L123.79 112.657L143.231 111.91C146.222 111.162 152.652 109.517 154.447 108.919C156.69 108.171 157.437 105.928 157.064 101.068C156.764 97.1796 151.705 94.2137 149.213 93.2167C145.723 91.9705 137.847 89.179 134.258 87.9827C130.669 86.7864 122.793 87.4842 119.304 87.9827L108.462 90.2258L113.696 83.8703L132.015 75.2715C135.006 74.5238 141.586 72.8041 143.979 71.9068C146.969 70.7852 151.456 62.1865 141.735 61.8126C133.959 61.5135 129.024 56.9525 127.529 54.7093C125.535 50.223 121.098 38.8577 119.304 29.2869C117.509 19.7162 122.295 9.09859 124.912 4.98615C124.538 4.11381 123.342 2.36914 121.547 2.36914C119.753 2.36914 112.076 5.60925 108.462 7.2293L84.9089 25.5484L70.7023 39.3811L53.131 64.8035C51.6355 66.6728 48.4951 70.5609 47.897 71.1591C47.2988 71.7572 40.9183 84.618 37.8028 90.9736L28.0825 89.4781L14.2497 94.3383C10.8851 98.3261 3.85691 106.451 2.66056 107.049C1.46422 107.648 2.16209 111.536 2.66056 113.405L6.77301 112.657V118.265L9.76387 120.135C10.5116 119.138 12.007 116.845 12.007 115.648C12.007 114.452 16.7426 110.414 19.1103 108.545L32.5692 107.049Z" fill="#A2C6CB"/>
<path d="M32.7188 121.823C32.7188 118.332 32.7188 114.841 32.7188 111.35C32.7188 108.814 32.8605 106.486 33.2034 104C33.6731 100.594 35.4233 97.1545 36.6496 93.9572C39.0642 87.662 41.856 81.5381 45.2652 75.7298C46.84 73.0467 48.5861 70.4518 50.4076 67.9219C51.3863 66.5627 52.1313 64.8521 53.3154 63.668" stroke="black" stroke-width="4" stroke-linecap="round"/>
<path d="M52.757 64.4286C59.4865 54.3344 73.0195 37.0496 80.2858 30.0278C83.5827 26.8417 86.9692 23.6033 90.8771 21.1108C95.9201 17.8944 99.9879 14.6696 104.349 10.593C107.254 7.87815 110.826 5.00641 114.815 3.86874C116.926 3.26689 118.196 2.90039 120.425 2.90039C121.761 2.90039 122.454 2.90039 123.79 2.90039C125.149 2.90039 124.538 5.52382 123.79 6.85438C120.438 12.82 119.837 15.5251 119.366 21.6623C118.576 31.9733 121.998 42.7049 126.158 52.152C127.307 54.7612 129.048 57.2262 131.461 58.8767C134.695 61.0881 139.977 60.3877 143.621 61.8733C145.951 62.823 148.731 65.8358 147.128 68.5173C144.066 73.639 136.454 73.3694 131.266 75.4681C127.493 76.9943 124.011 79.0287 120.382 80.8209C117.947 82.0237 115.425 83.2215 113.117 84.6405C111.079 85.8943 109.628 89.1425 108.163 90.9777C107.19 92.1965 105.869 93.4752 104.405 94.1463C102.822 94.8719 102.314 94.9643 100.341 95.5854C98.3678 96.2065 95.7871 96.9542 93.5076 96.9542C90.6421 96.9542 89.0213 97.3281 85.167 97.842C80.7964 98.4248 78.9956 98.8075 75.1885 99.9451C67.8709 102.132 60.8024 104.88 54.6263 109.292C49.9838 112.608 44.074 115.399 39.672 119.012C38.524 119.954 34.7649 121.536 33.3164 122.003" stroke="black" stroke-width="4" stroke-linecap="round"/>
<path d="M86.4937 98.4502C85.4454 98.5054 82.83 100.93 82.0943 101.589C80.8742 102.683 79.5611 103.657 78.46 104.877C76.6731 106.857 74.7323 108.728 73.4316 111.069C71.7043 114.178 69.807 116.567 69.807 120.241C69.807 121.093 69.2539 126.03 71.2011 125.154C73.5184 124.111 74.4466 121.785 75.8641 119.895" stroke="black" stroke-width="4" stroke-linecap="round"/>
<path d="M75.8632 119.897C75.8632 122.991 75.3464 127.076 77.2862 129.762C78.1208 130.917 80.2753 133.786 81.9204 132.781C85.0399 130.874 87.2853 127.126 89.1024 124.051C90.4813 121.717 93.0829 119.945 95.5056 118.869C97.5335 117.967 99.8904 116.782 102.168 116.782" stroke="black" stroke-width="4" stroke-linecap="round"/>
<path d="M102.168 116.78C103.25 116.583 104.211 115.903 105.35 115.751C106.518 115.596 107.654 115.569 108.831 115.569C110.969 115.569 113.244 115.136 115.321 114.617C118.337 113.863 121.561 112.865 124.656 112.627C127.068 112.441 129.418 112.281 131.838 112.281C135.176 112.281 138.433 111.837 141.76 111.55C145.315 111.243 148.791 110.432 152.183 109.377C154.183 108.754 156.043 107.568 157.163 105.743C158.178 104.088 157.639 101.936 156.942 100.272C156.274 98.6806 155.066 96.5173 153.644 95.4936C152.123 94.3985 150.434 93.6069 148.712 92.8977C145.584 91.6099 142.459 90.4982 139.203 89.6C135.965 88.7066 132.686 87.9985 129.338 87.6674C126.534 87.3901 123.36 87.2553 120.551 87.5713C118.16 87.8403 115.782 88.6219 113.417 89.0519C112.42 89.2331 111.16 89.5564 110.302 90.1288" stroke="black" stroke-width="4" stroke-linecap="round"/>
<path d="M36.5793 89.6101C32.8563 89.6101 28.9797 89.2802 25.3303 90.1389C22.3127 90.8489 19.1057 91.8562 16.5042 93.5905C12.9431 95.9646 9.50519 98.3974 6.81282 101.763C4.35715 104.832 2.83243 108.391 2.83243 112.32C2.83243 113.397 2.77756 113.666 3.95732 113.666C4.25644 113.666 6.0887 112.126 6.11097 112.204C6.45575 113.411 5.88999 114.817 6.25518 116.05C6.53756 117.003 6.8768 117.842 7.41854 118.684C7.71683 119.148 8.26864 120.242 8.88955 120.242C10.3152 120.242 11.4741 118.177 12.1873 117.108C13.6473 114.918 14.9535 112.398 16.8888 110.589C17.5865 109.937 18.7851 109.578 19.6578 109.204C20.7227 108.748 21.8489 108.287 23.0036 108.128C24.672 107.898 26.4117 107.774 28.0608 107.474C28.763 107.346 29.7449 107.665 30.3491 107.262" stroke="black" stroke-width="4" stroke-linecap="round"/>
<circle cx="84.1617" cy="68.5415" r="16.1929" fill="white" stroke="black" stroke-width="5"/>
<path d="M100.611 67.4203C100.611 74.234 95.5897 79.7577 89.3954 79.7577C83.2011 79.7577 78.1797 76.3929 78.1797 67.4203C78.1797 60.6066 83.2011 55.083 89.3954 55.083C95.5897 55.083 100.611 60.6066 100.611 67.4203Z" fill="black"/>
<path d="M4.43645 111.877C4.43645 117.07 4.43645 120.019 4.43645 125.211C4.43645 131.493 3.86684 137.342 6.74422 143.097C9.23773 148.084 12.0135 152.818 15.4304 157.232C19.3067 162.239 24.3058 164.874 29.6937 167.905C38.245 172.715 47.6883 176.307 57.2588 178.547C69.1532 181.33 81.6114 183.439 93.8626 182.201C100.921 181.487 108.034 178.687 114.761 176.559C122.471 174.121 129.486 169.612 135.659 164.444C139.927 160.87 143.434 156.152 146.364 151.43C147.659 149.345 148.247 147.057 149.281 144.86C150.342 142.605 151.937 140.751 152.711 138.353C155.26 130.451 158.503 122.741 159.923 114.506C160.241 112.657 159.647 106.677 157.153 106.677" stroke="black" stroke-width="4" stroke-linecap="round"/>
<path d="M21.3789 109.634H31.21" stroke="black" stroke-width="4" stroke-linecap="round"/>
<path d="M52.1953 111.365H71.2344" stroke="black" stroke-width="4" stroke-linecap="round"/>
<path d="M58.717 109.823C58.3863 109.823 56.267 109.554 57.1247 109.1C57.8078 108.738 58.4104 108.465 59.0869 108.086C60.8839 107.08 62.8298 106.256 64.5797 105.191C66.4081 104.078 68.5863 103.244 70.6514 102.666C73.5886 101.844 76.4764 100.538 79.4896 100.052C79.9719 99.9745 80.4505 99.9799 80.9372 99.9799C81.2693 99.9799 80.782 100.104 80.6477 100.197C79.8466 100.752 78.9204 101.189 78.0822 101.685C76.6676 102.521 75.8459 103.676 74.8172 104.934C74.3706 105.48 74.1658 106.278 73.6993 106.848C73.2036 107.454 72.6374 108.219 72.0346 108.697C70.4297 109.972 69.3116 110.547 67.2255 110.547C65.9202 110.547 64.7877 110.473 63.494 110.258C62.4957 110.091 61.4788 109.985 60.4863 109.791C59.9736 109.691 59.9797 109.534 60.245 109.1C61.5157 107.02 64.556 107.168 66.6867 106.711C68.4324 106.337 69.8719 105.552 71.4556 104.789C72.1458 104.457 74.3403 103.814 73.6752 104.194C72.2901 104.985 71.3406 106.466 70.008 107.362C69.4598 107.731 68.8434 107.996 68.3031 108.376C68.0856 108.529 68.0331 108.709 67.7563 108.81C67.1754 109.021 66.9361 109.327 66.3167 109.461C65.3136 109.68 64.2747 109.427 63.2688 109.389C62.3124 109.353 63.4907 108.779 63.7835 108.633C65.0905 107.98 66.4381 107.318 67.7723 106.727C68.8482 106.251 69.9492 105.864 71.0052 105.336C71.7781 104.949 72.3461 104.319 73.0801 103.888C74.5674 103.015 76.0052 102.234 77.2378 101.001C77.8758 100.363 78.4602 99.8982 79.2725 99.5134C79.629 99.3446 80.25 99.2561 80.6396 99.2561C80.8834 99.2561 82.0463 99.1113 81.5886 99.1113" stroke="black" stroke-width="4" stroke-linecap="round"/>
</svg>
