<svg width="262" height="275" viewBox="0 0 262 275" fill="none" xmlns="http://www.w3.org/2000/svg">
<path d="M167.815 198.472C169.027 199.078 170.536 200.367 170.699 201.836C169.821 206.483 164.774 213.017 151.5 213.017C152.811 215.171 153.862 219.93 155.637 221.705C157.153 223.221 161.282 222.178 163.506 222.987C165.953 223.877 164.955 227.902 163.809 229.557C162.729 231.117 161.294 232.534 159.803 233.705C157.938 235.17 156.927 237.004 155.637 238.939C152.548 243.573 150.787 249.434 149.085 254.695C147.932 258.261 146.991 258.576 144.5 261.5C143.475 262.703 141.965 262.373 140 261.5C138.451 260.812 137.132 262.044 135.5 261.5C133.337 260.779 133.525 261.799 133.525 259.912C133.525 256.503 134.255 253.529 134.878 250.226C135.386 247.537 137.473 244.701 138.635 242.233C141.22 236.739 141.862 230.772 141.537 224.91C141.311 220.845 138.723 216.689 137.193 213.017C135.775 209.615 134.283 206.246 132.813 202.869C131.477 199.801 130 196.949 130 193.504C130 188.386 133.703 184.98 138.653 184.14C143.043 183.394 146.666 185.807 150.688 187.255C155.016 188.814 159.893 191.733 163.257 194.857C164.574 196.08 166.204 197.666 167.815 198.472Z" fill="#6DDDD9"/>
<path d="M170.699 201.836C170.536 200.367 169.027 199.078 167.815 198.472C166.204 197.666 164.574 196.08 163.257 194.857C159.893 191.733 155.016 188.814 150.688 187.255C146.666 185.807 143.043 183.394 138.653 184.14C133.703 184.98 130 188.386 130 193.504C130 196.949 131.477 199.801 132.813 202.869C134.283 206.246 135.775 209.615 137.193 213.017C138.723 216.689 141.311 220.845 141.537 224.91C141.862 230.772 141.22 236.739 138.635 242.233C137.473 244.701 135.386 247.537 134.878 250.226C129.623 265.224 145 264.5 149.085 254.695C150.787 249.434 152.548 243.573 155.637 238.939C156.927 237.004 157.635 235.466 159.5 234C160.991 232.829 162.48 233.039 163.56 231.479C164.705 229.825 163.947 224.89 161.5 224C159.276 223.191 157.153 223.221 155.637 221.705C153.862 219.93 152.782 217.93 151.471 215.777C150.433 214.072 150.424 211.967 149.37 210.311C147.921 208.033 148.657 205.146 147.305 203.118" stroke="black" stroke-width="4" stroke-linecap="round"/>
<path d="M150.211 210.143C151.132 210.235 152.073 210.837 152.969 211.08C154.938 211.614 156.954 211.805 158.987 211.805C160.659 211.805 163.418 212.328 164.938 211.568" stroke="black" stroke-width="4" stroke-linecap="round"/>
<path d="M193.459 204.379C181.07 183.412 182.34 175.787 184.524 174.596C187.861 177.455 198.621 176.581 203.585 175.787L207.754 188.892L223.242 216.292C223.639 218.278 225.624 222.249 230.39 222.249C235.155 222.249 235.949 227.808 235.751 230.588L229.794 240.119L228.007 251.437L230.39 257.989C230.588 260.173 230.866 265.137 230.39 267.52C229.913 269.902 222.249 271.689 218.476 272.285H203.585C201.202 271.292 196.079 268.711 194.65 266.328C192.863 263.35 192.863 259.776 201.798 259.18C208.946 258.704 213.909 257.79 215.498 257.393C212.162 251.198 210.931 235.751 210.733 228.801C210.137 229.397 205.849 225.346 193.459 204.379Z" fill="#6DDDD9"/>
<path d="M211.329 229.311C210.751 229.963 211.158 232.173 211.158 232.947C211.158 234.504 211.402 236.274 211.073 237.792C210.25 241.587 212.036 245.375 212.696 249.015C212.957 250.453 213.498 251.993 214.149 253.299C214.757 254.518 215.59 255.659 215.982 256.935C216.318 258.03 216.103 258.376 215.08 258.696C214.026 259.026 212.586 258.782 211.5 258.782C208.76 258.782 206.048 258.611 203.296 258.611C201.813 258.611 200.263 259.022 198.852 259.467C197.541 259.881 195.041 260.355 194.409 261.78C193.974 262.761 194.067 264.058 194.067 265.122C194.067 266.692 195.023 267.527 196.08 268.587C197.646 270.157 199.636 270.44 201.673 271.033C203.844 271.665 206.335 272.147 208.595 272.147C211.082 272.147 213.647 272.327 216.115 272.014C217.667 271.816 219.286 272.031 220.815 271.795C222.812 271.487 224.608 270.392 226.626 270.081C228.388 269.809 229.816 268.584 230.813 267.14C231.437 266.236 231.668 265.516 231.668 264.436C231.668 263.765 231.825 262.94 231.459 262.342C230.796 261.259 231.08 260.321 230.333 259.296C228.918 257.351 228.942 255.167 228.33 252.956C227.991 251.734 227.903 250.116 227.903 248.844C227.903 247.499 227.903 238.925 233.373 234.16" stroke="black" stroke-width="4" stroke-linecap="round"/>
<path d="M231.585 235.949C233.274 233.287 236.35 232.375 235.158 227.015C234.496 224.035 231.585 221.653 228.011 222.25" stroke="black" stroke-width="4" stroke-linecap="round"/>
<path d="M211.14 229.86C210.834 227.413 205.962 223.655 204.585 221.055C200.305 212.97 194.607 205.292 189.811 197.475C187.321 193.417 183.521 187.305 183.33 182.339C183.235 179.877 182.149 175.185 184.52 174" stroke="black" stroke-width="4" stroke-linecap="round"/>
<path d="M228.002 222.25C220.186 213.566 217.159 203.811 211.012 194.151C209.855 192.333 206.678 188.551 206.558 186.51C206.433 184.371 204.314 179.57 202.984 177.575" stroke="black" stroke-width="4" stroke-linecap="round"/>
<path d="M94.3992 99.3038C131.467 83.0489 131.467 117.049 137.467 124.049L139.967 134.549L124.426 138.215L111.245 135.892L105 139L95 135.5C94.6202 132.194 90.3475 122.372 91.0004 121C95.9976 110.5 80.9561 105.199 94.3992 99.3038Z" fill="#6DDDD9"/>
<path d="M185.965 218.406C170.331 220.143 140.076 187.572 126.903 171.069C118.999 155.718 157.087 149.289 140.282 134.731L139.12 127.762C136.216 102.79 132.944 86.549 136.216 71.6173C143.901 36.549 175.452 44.1803 187.467 45.0488C201.467 48.5488 207.967 62.0488 217.668 71.618C228.289 82.095 244.704 81.8825 256.319 85.367C267.934 88.8515 246.331 103.37 246.331 103.37L221.142 118.955C221.142 118.955 239.01 134.36 248.883 146.927C256.966 157.216 250.675 170.157 248.883 173.642C247.091 177.126 231.217 181.926 221.142 185.4C208.548 189.743 205.508 216.234 185.965 218.406Z" fill="#A37BFA"/>
<path d="M155.383 123.117C149.369 116.728 147.348 110.065 147.348 102.875C147.348 95.8137 147.915 88.8365 149.369 81.9093C150.064 78.5976 151.314 76.0031 153.001 73.1486C154.194 71.1288 155.549 68.4862 157.793 67.3643C161.735 65.3932 166.174 65.8445 169.923 68.1879C174.458 71.0221 178.794 75.4949 181.38 80.1122C182.938 82.8958 183.862 86.1291 184.562 89.2286C185.503 93.3947 184.703 97.6925 185.254 101.883C185.83 106.261 185.423 110.911 185.423 115.342" stroke="black" stroke-width="15.7036" stroke-linecap="round"/>
<path d="M157.121 123.09C158.584 123.09 159.627 121.828 161.164 121.742C161.683 121.713 172.157 120.379 172.621 120.057C173.444 119.487 174.131 118.61 174.979 118.111C178.21 116.21 171.349 113.855 174.979 112.645" stroke="black" stroke-width="15.7036" stroke-linecap="round"/>
<path d="M159.481 117.028C159.481 108.33 159.481 99.6317 159.481 90.9334C159.481 88.7439 158.633 78.8026 162.177 78.6161C163.69 78.5364 165.146 77.9422 166.688 77.9422C168.668 77.9422 170.389 80.1949 171.424 81.6861C172.894 83.802 172.962 86.5182 173.296 88.9866C173.649 91.5935 174.058 94.1953 174.476 96.7926C174.984 99.9572 175.655 103.547 175.655 106.751C175.655 108.633 175.69 103.304 175.73 102.802C176.112 97.97 176.536 92.5865 175.655 87.7886C174.997 84.2071 172.797 82.3295 170.451 79.7954C168.959 78.184 166.825 75.4787 164.33 75.6397C162.279 75.772 160.361 77.5584 158.845 78.7658C157.24 80.0437 155.033 81.4621 154.165 83.4082C152.587 86.9457 153.275 91.9405 154.427 95.4635C155.638 99.1655 157.24 102.724 157.871 106.583C158.254 108.922 158.134 111.294 158.134 113.659" stroke="black" stroke-width="15.7036" stroke-linecap="round"/>
<path d="M128.086 171.319C133.893 177.707 137.656 182.654 140.529 186.419C144.254 191.3 148.339 192.845 152.396 197.448C158.749 204.656 166.017 214.86 175.965 217.049C185.68 219.186 196.299 215.091 202.434 206.912C205.347 203.027 208.555 199.347 211.129 195.228C213.348 191.678 216.112 189.123 219.465 186.419C224.164 182.629 228.176 181.532 233.965 180.549C241.223 179.316 249.674 175.147 251.787 167.322C252.553 164.486 252.368 161.574 252.605 158.676C252.836 155.859 252.672 152.279 251.787 149.549C248.965 143.549 244.624 140.191 240.137 136.612C236.877 134.011 232.925 131.646 230.223 128.433C229.182 127.195 223.346 120.426 222.465 119.049C222.048 118.397 246.201 104.614 245.796 104.007" stroke="black" stroke-width="4" stroke-linecap="round"/>
<path d="M245.401 104.532C247.856 102.35 255.323 97.6662 257.849 95.4567C259.774 93.7721 259.968 91.3028 259.968 88.9141C259.968 83.5476 252.153 82.8388 248.185 82.8388C246.54 82.8388 244.942 83.1392 243.278 83.1392C239.259 83.1392 235.276 81.6857 231.561 80.2851C223.164 77.1189 216.036 72.1112 210.097 65.3472C205.586 60.2098 204.1 54.1681 198.969 49.5498C194.565 45.5862 183.969 43.5498 175.469 43.5498" stroke="black" stroke-width="4" stroke-linecap="round"/>
<path d="M181.555 43.7832C175.847 43.7832 170.139 43.7832 164.431 43.7832C159.32 43.7832 157.271 44.8795 152.467 46.0498C151.847 46.2007 149.747 46.9307 147.607 48.7403C145.467 50.5498 144.28 52.4531 143.268 53.5471C139.871 57.2153 138.385 62.1954 136.658 66.7492C133.065 76.223 132.836 87.4702 134.278 97.276C134.992 102.132 135.322 107.035 135.864 111.913C136.201 114.946 137.06 117.894 137.366 120.926C137.685 124.09 139.121 134.151 145.509 142.281" stroke="black" stroke-width="4" stroke-linecap="round"/>
<path d="M146.176 94.1255C146.176 95.6324 146.176 97.1394 146.176 98.6464C146.176 100.715 146.918 102.854 147.652 104.773C148.381 106.677 149.262 108.51 150.201 110.318C151.037 111.927 152.274 113.114 153.45 114.451C154.074 115.16 154.683 116.015 155.606 116.283C156.667 116.591 157.542 116.725 158.645 116.725C159.322 116.725 162.197 116.346 161.651 115.054C161.353 114.347 160.559 113.861 159.943 113.47C158.77 112.725 158.965 111.281 157.969 110.318C156.804 109.191 154.719 108.654 153.967 107.209C153.119 105.577 152.323 103.861 151.316 102.316C150.852 101.603 150.53 100.905 150.152 100.15C149.938 99.7216 149.591 99.3545 149.474 98.8835C149.372 98.4779 149.462 99.1675 149.533 99.3145C149.856 99.9852 150.44 100.792 150.982 101.292C152.19 102.407 153.993 102.581 155.562 102.736C157.075 102.886 158.559 103.205 160.051 103.48C166.266 104.625 171.425 100.155 176.491 97.3262C178.566 96.1681 180.603 94.9593 182.639 93.7375C182.785 93.6499 184.185 92.655 184.197 92.9831C184.294 95.8088 183.68 98.6675 182.984 101.389C182.358 103.84 181.577 106.242 180.705 108.615C180.165 110.085 179.615 111.684 178.862 113.06C178.291 114.105 177.83 115.028 176.777 115.652C173.443 117.628 169.507 115.969 166.372 114.494C165.341 114.009 164.413 113.348 163.392 112.845C162.503 112.407 161.581 111.961 160.735 111.444C159.177 110.491 162.9 108.952 163.311 108.771C165.582 107.774 167.864 106.956 170.057 105.781C171.019 105.265 172.016 104.719 173.086 104.461C173.506 104.359 178.339 101.764 178.469 102.049C178.557 102.242 176 104.454 175.92 104.59C175.454 105.38 174.878 106.101 174.325 106.831C173.381 108.078 174.137 109.702 173.086 110.857C172.659 111.325 170.299 111.382 169.696 111.627C169.199 111.83 168.689 111.993 168.198 112.214C167.903 112.347 167.72 112.36 167.395 112.36C166.776 112.36 166.037 112.485 165.434 112.338C164.462 112.102 163.542 111.789 162.567 111.584" stroke="white" stroke-width="6.93372" stroke-linecap="round"/>
<path d="M169.89 97.5819C169.89 98.3162 169.89 99.0505 169.89 99.7849C169.89 100.773 169.775 101.855 169.991 102.828C170.281 104.133 172.433 104.171 173.377 103.632C174.997 102.706 175.671 100.364 175.737 98.6256C175.79 97.2281 174.633 96.3596 174.379 95.0879" stroke="black" stroke-width="6.93372" stroke-linecap="round"/>
<path d="M150.853 96.4902C150.584 96.9276 150.77 98.0539 150.77 98.587C150.77 99.7567 151.011 101.105 152.021 101.848C152.772 102.4 154.171 102.821 155.042 102.305C155.384 102.102 155.504 101.717 155.508 101.34C155.518 100.555 155.508 99.7692 155.508 98.9842" stroke="black" stroke-width="6.93372" stroke-linecap="round"/>
<path d="M194.086 163.103C194.086 167.228 195.302 170.33 198.32 173.28C199.836 174.761 201.409 174.632 203.373 174.632C205.834 174.632 206.511 173.038 208.017 171.27C211.667 166.984 212.34 159.554 212.34 154.101C212.34 150.712 212.389 147.154 211.38 143.888C210.97 142.563 210.349 141.826 209.778 140.686" stroke="black" stroke-width="4.55906" stroke-linecap="round"/>
<path d="M196.039 162.996C197.867 162.996 199.679 163.474 201.544 163.474C204.167 163.474 206.777 163.712 209.411 163.712" stroke="black" stroke-width="4.55906" stroke-linecap="round"/>
<path d="M205.351 171.115C203.743 171.115 202 171.378 200.967 170.05C200.013 168.823 199.496 167.664 198.559 166.459C198.048 165.802 199.967 166.535 200.098 166.578C201.522 167.053 203.127 167.505 204.635 167.534C206.311 167.565 207.332 167.86 208.967 167.534C208.89 163.206 208.059 153.95 205.351 151.55C202.644 149.15 206.633 148.216 208.967 148.05L211.467 158.05L206.967 140.05" stroke="black" stroke-width="4.55906" stroke-linecap="round"/>
<path d="M6.81161 64.7406C49.0042 25.9083 90.4004 20.1852 105.335 22.6961L111.425 65.9847C111.659 66.5403 111.702 66.9114 111.572 67.0299L111.425 65.9847C109.803 62.1292 99.005 49.3884 73.2023 50.5141C43.6814 51.8021 20.3539 55.9252 6.81161 64.7406Z" fill="black"/>
<path d="M106.44 22.6207C103.36 21.8432 100.026 21.7646 96.84 22.0323C79.9654 23.4502 63.7728 29.1025 48.5829 36.4149C33.2226 43.8093 18.4734 53.3129 5.83456 64.7499" stroke="black" stroke-width="3" stroke-linecap="round"/>
<path d="M110.225 63.398C94.4852 51.2115 85.4381 46.9871 45.8898 52.7827C28.6092 55.6019 8.90545 65.237 5.93658 64.9101" stroke="black" stroke-width="3" stroke-linecap="round"/>
<path d="M108.969 257.549C109.986 223.154 112.737 114.4 110.702 80.0182C109.579 61.0509 115 41.499 106.5 23.499" stroke="black" stroke-width="4" stroke-linecap="round"/>
<path d="M171.645 127.762C197.663 116.147 205.329 138.022 205.91 150.411L208.813 167.253H190.81L173.968 164.349L160.03 160.284C159.449 156.993 157.707 150.411 155.384 150.411C152.48 150.411 139.123 142.281 171.645 127.762Z" fill="#6DDDD9"/>
<path d="M204.389 150.237C204.389 146.84 204.571 143.498 203.841 140.17C203.437 138.332 203.035 136.545 202.218 134.841C201.69 133.74 201.379 132.448 200.595 131.486C197.879 128.153 194.056 125.267 189.871 124.095C187.855 123.531 185.349 123.591 183.27 123.591C180.53 123.591 177.602 124.032 175.024 124.972C171.737 126.171 168.938 128.157 165.944 129.907C164.674 130.65 162.393 132.116 161.953 133.657C161.156 136.447 162.402 139.255 164.607 141.059C165.939 142.149 167.455 142.737 169.168 143.032C172.149 143.546 174.633 142.428 177.392 141.552C179.363 140.926 180.978 140.368 183.072 140.368C184.042 140.368 186.123 140.329 186.417 141.651C187.052 144.511 184.651 146.855 184.651 149.644" stroke="black" stroke-width="4" stroke-linecap="round"/>
<path d="M132.326 120.726C132.326 117.33 132.509 113.988 131.778 110.66C131.375 108.821 130.972 107.034 130.155 105.33C129.627 104.229 129.317 102.937 128.532 101.975C125.817 98.6421 121.993 95.7562 117.808 94.5844C115.793 94.02 113.287 94.08 111.207 94.08C108.468 94.08 105.54 94.5215 102.961 95.4616C99.6746 96.6598 96.875 98.6462 93.8818 100.396C92.6113 101.139 90.3308 102.605 89.8904 104.146C89.0932 106.936 90.3397 109.744 92.544 111.548C93.8766 112.638 95.3921 113.226 97.1057 113.522C100.087 114.036 102.57 112.917 105.33 112.041C107.3 111.416 108.916 110.857 111.01 110.857C111.98 110.857 114.061 110.819 114.354 112.14C114.99 115 112.589 117.344 112.589 120.134" stroke="black" stroke-width="4" stroke-linecap="round"/>
<path d="M161.165 135.434C159.948 135.434 158.805 135.232 157.799 136.037C155.974 137.497 154.753 139.439 153.424 141.311C151.639 143.826 150.226 146.786 152.283 149.601C153.057 150.659 155.31 150.632 156.428 150.632C158.574 150.632 160.217 150.426 162.152 149.404C164.82 147.994 167.154 145.63 169.258 143.526" stroke="black" stroke-width="4" stroke-linecap="round"/>
<path d="M158.601 152.21C158.601 153.174 158.736 154.245 158.502 155.182C158.363 155.739 158.115 157.718 158.513 158.23C160.064 160.224 162.371 160.728 164.522 161.684C165.847 162.273 167.347 162.276 168.765 162.276C170.375 162.276 172.367 162.618 173.886 163.164C175.849 163.871 177.275 165.149 179.128 165.982C180.095 166.418 181.206 166.816 182.275 166.816C183.225 166.816 184.863 166.972 185.74 167.309C187.555 168.008 189.956 166.881 191.76 166.816C195.189 166.691 198.579 166.224 202.024 166.224C203.285 166.224 204.741 165.957 205.971 165.675C206.717 165.505 207.474 165.682 208.142 165.237" stroke="black" stroke-width="4" stroke-linecap="round"/>
<path d="M173.864 150.619C170.718 149.854 167.291 150.152 164.073 150.152C163.658 150.152 163.059 150.042 162.669 150.186C162.165 150.373 161.744 151.465 161.543 151.867" stroke="black" stroke-width="4" stroke-linecap="round"/>
<path d="M92.0273 114.582C91.2524 115.727 90.4343 116.835 90.3492 118.266C90.2108 120.594 91.157 122.649 93.1628 123.906C95.3229 125.26 104.56 125.813 107 125" stroke="black" stroke-width="4" stroke-linecap="round"/>
<path d="M95.5483 124.803C94.3486 125.146 93.2806 126.786 93.0754 127.944C92.6864 130.14 93.3357 132.748 94.8418 134.404C96.2274 135.929 101.695 138.602 103.5 138" stroke="black" stroke-width="4" stroke-linecap="round"/>
<path d="M113.25 138.889C120.812 138.889 130.89 138.933 137.467 134.549" stroke="black" stroke-width="4" stroke-linecap="round"/>
<path d="M144.577 142.75C144.577 143.366 144.601 143.987 144.577 144.602C144.509 146.394 143.328 147.484 142.188 148.74C140.039 151.108 137.623 153.202 135.364 155.461C132.496 158.329 128.929 160.649 127.042 164.355C125.908 166.583 126.777 169.599 128.528 171.351C130.792 173.615 133.006 175.733 134.907 178.347" stroke="black" stroke-width="4" stroke-linecap="round"/>
<path d="M208.902 139.305C209.431 138.92 210.357 139.103 210.963 139.103C212.41 139.103 213.874 139.038 215.32 139.114C217.119 139.209 218.365 140.815 219.385 142.127" stroke="black" stroke-width="3" stroke-linecap="round"/>
<path d="M109.488 93.0059C109.488 105.088 109.488 117.171 109.488 129.253C109.488 134.47 109.488 139.688 109.488 144.905C109.488 148.595 109.548 152.855 108.649 156.453C107.55 160.847 108.145 245.95 108.145 250.5" stroke="black" stroke-width="3" stroke-linecap="round"/>
<path d="M109.488 98.7143C109.488 92.5032 109.152 86.3541 109.152 80.1709V63.499C108.319 50.1084 108.704 33.199 105.504 23.999" stroke="black" stroke-width="3" stroke-linecap="round"/>
<path d="M108.585 160.841C108.585 153.91 108.438 146.972 108.438 140.053C108.438 138.29 108.443 136.137 109.026 134.46C109.877 132.013 109.67 129.425 110.645 126.985" stroke="black" stroke-width="3" stroke-linecap="round"/>
<path d="M107.617 114.774C108.318 115.146 108.133 116.47 108.322 117.13C108.555 117.948 108.642 118.822 108.642 119.672C108.642 120.188 108.597 120.674 108.386 121.148C108.295 121.352 108.051 121.733 107.873 121.821" stroke="#6DDDD9" stroke-width="3" stroke-linecap="round"/>
<path d="M106.578 130.854C106.219 130.899 106.882 131.904 106.983 132.011C107.088 132.122 107.321 132.369 107.478 132.268C107.89 132.006 107.909 131.406 107.909 130.97C107.909 130.435 107.993 129.791 107.607 129.362C107.511 129.256 107.349 129.127 107.273 129.031C107.157 128.886 106.9 128.986 106.752 128.887" stroke="#6DDDD9" stroke-width="3" stroke-linecap="round"/>
<path d="M108.566 116.097C108.566 116.942 108.687 117.887 108.548 118.721C108.46 119.247 108.169 119.792 107.951 120.275C107.775 120.666 107.714 120.955 107.336 121.182" stroke="#6DDDD9" stroke-width="3" stroke-linecap="round"/>
<path d="M107.91 128.892C107.923 128.774 107.981 128.692 108.074 128.646" stroke="#6DDDD9" stroke-width="3" stroke-linecap="round"/>
<path d="M105.586 55.6094V94.3556" stroke="black" stroke-width="4" stroke-linecap="round"/>
<path d="M104.322 152.471C104.322 150.236 104.446 147.964 104.322 145.733C104.275 144.883 103.901 144.137 103.901 143.206C103.901 141.495 103.48 145.609 103.48 146.131C103.48 153.315 103.781 160.489 104.416 167.632C104.952 173.662 104.835 179.993 105.796 185.952C106.666 191.347 107.27 196.617 107.27 202.072C107.27 204.421 106.021 200.815 106.007 199.966C105.972 197.823 106.007 195.676 106.007 193.532C106.007 187.932 105.551 182.136 106.1 176.57C106.492 172.601 106.849 168.582 106.849 164.591C106.849 160.766 106.306 156.474 107.06 152.705C107.277 151.616 107.363 149.861 107.902 148.892C108.247 148.269 107.726 152.842 107.691 153.641C107.193 165.104 106.854 176.605 106.451 188.081C106.27 193.255 105.989 191.501 105.586 205.501C105.412 210.78 104.935 214.263 103.901 219.432C102.619 225.841 102 232.438 102 239.001C102 243.853 100.332 249.399 103.48 253.334C104.161 254.185 106.849 255.275 106.849 253.45C106.849 252.237 107.305 251.247 107.27 249.988C107.21 247.827 105.902 245.712 105.398 243.624C104.76 240.981 104.743 238.346 104.743 235.646C104.743 232.873 104.223 229.518 104.977 226.825C105.409 225.283 106.059 223.724 106.404 222.169C106.561 221.467 106.76 219.836 106.334 221.538C105.614 224.419 105.586 227.338 105.586 230.288C105.586 234.616 104.723 238.894 104.322 243.203C103.957 247.125 103.48 250.869 103.48 254.807C103.48 256.461 108.502 259.654 108.502 258.001C108.502 255.256 103.558 255.277 102.731 252.795C100.452 245.957 103.595 238.206 103.901 231.317C104.265 223.13 106.428 214.987 106.428 206.798C106.428 195.91 102.638 185.727 102.638 174.791C102.638 165.086 101.847 154.615 105.258 145.405C105.923 143.61 107.27 142.414 107.27 140.469C107.27 139.665 106.788 138.97 106.428 138.34C105.61 136.908 105.191 138.323 104.743 138.995" stroke="black" stroke-width="4" stroke-linecap="round"/>
<path d="M106.482 110.5C106.482 107.679 105.749 99.7555 106.362 97C106.662 95.6502 104.982 94.3019 105.416 93C105.738 92.0343 104.34 86.8471 104.452 85.84C104.726 83.3677 105.414 80.9658 105.414 78.4339C105.414 75.354 106.121 72.4783 106.705 69.4728C107.045 67.7234 106.837 65.7922 106.837 64.0171C106.837 62.8204 107.094 61.2058 106.481 60.1032C106.189 59.5778 106.363 62.441 106.363 62.8047C106.363 69.4025 106.363 76.0004 106.363 82.5982C106.363 88.7513 106.363 103.284 106.363 109.431" stroke="black" stroke-width="4" stroke-linecap="round"/>
</svg>
