<svg width="196" height="218" viewBox="0 0 196 218" fill="none" xmlns="http://www.w3.org/2000/svg">
<path d="M133 178C147.467 190.814 167 195.5 188.945 195.5L156.328 206.512L105.373 215.319H63.8548C63.8548 215.319 37.2242 202.318 35.5466 199.592C33.8691 196.866 22.5087 180.957 14.9453 168.5C6.44531 154.5 3.67372 144.443 3.46404 141.088V91.3917C3.46404 91.3917 10.4453 58.5 24.9453 49C39.4453 39.5 59.5771 38.5498 70.1455 38.5498C83.356 38.5498 97.1956 52.3894 108.519 61.8254C117.577 69.3743 119.048 84.6817 118 91.3917C118.629 116.974 115.5 162.5 133 178Z" fill="#A2C6CB"/>
<path d="M190.945 195.5C184.743 198.178 166.76 203.907 159.92 205.427C148.76 207.907 138.122 211.413 126.566 211.664C111.428 211.994 96.325 215.563 81.2126 215.563C77.0253 215.563 72.838 215.563 68.6507 215.563C64.4628 215.563 59.7813 213.776 56 212.5" stroke="black" stroke-width="4" stroke-linecap="round"/>
<path d="M61 214C55 213 54.7294 211.504 50 209C45.8688 206.813 42 203.5 37.8943 200.747C35 198.807 31.994 195.723 30.1406 193.34C28.4687 191.191 26.5 188.5 24 185" stroke="black" stroke-width="4" stroke-linecap="round"/>
<path d="M24.4453 185.5C24.4453 185.5 16.4347 172.846 12.9453 168C10.2183 164.213 9.27504 159.846 7.44531 155.5C5.9857 152.033 4.39213 146.02 4.02135 142.313C3.51649 137.264 2.41862 131.901 2.41862 126.848C2.41862 117.923 1.14968 108.059 3.02506 99.3854C4.5 90 3.07975 81 9 70.5" stroke="black" stroke-width="4" stroke-linecap="round"/>
<path d="M56.4473 3L53.9473 39.5C53.9473 39.5 65.1593 38.1614 71.9473 39.5C78.7352 40.8386 88.7106 46.3555 88.7106 46.3555L112.43 19.9701L94.4473 21L95.4473 8.5L90.4473 10.5L73.4626 18.5814L63.2973 4L56.4473 3Z" fill="#E8D821"/>
<path d="M4.5 88.5C5 71 16.678 54.9892 31.311 46.7581C39.8762 41.9402 53.0996 39.3509 62.8459 39.3509C67.2256 39.3509 71.4311 39.1795 75.711 40.1306C80.3838 41.169 84.7132 44.6317 88.966 46.7581C96.3601 50.4552 102.547 53.7112 108.459 59.6233C113.59 64.7541 114.654 71.1706 117.209 77.5565C120.442 85.6389 118.595 97.0272 118.595 105.626C118.595 115.67 118.595 128.5 119.5 141.5" stroke="black" stroke-width="4" stroke-linecap="round"/>
<path d="M119 127.5C119 137.314 120.321 153.624 123 163C123.601 165.102 126.184 169.832 127.603 171.509C130.353 174.759 133.542 178.384 137.306 180.476C140.822 182.429 143.896 186.817 147.616 188.099C153.454 190.113 160.13 192.557 166.156 193.687C172.268 194.833 177.868 195.29 184.089 195.29C186.881 195.29 191.058 196.102 193.445 194.51" stroke="black" stroke-width="4" stroke-linecap="round"/>
<path d="M54.5345 37.6786C54.5345 29.3231 54.5345 18.9676 54.5345 10.6121C54.5345 7.70915 53.6412 4.72297 56.2153 3.08488C63.2616 -1.39909 67.4737 9.16111 70.2833 13.9373C71.0586 15.2554 72.0423 18.6926 73.0968 19.7472C74.3257 20.976 80.533 15.64 81.5376 14.9604C85.196 12.4856 89.3805 10.0341 93.34 8.05433C95.8797 6.78448 95.3132 8.65795 95.3132 10.6852C95.3132 13.0941 95.1196 15.2029 94.692 17.5547C94.5485 18.3442 93.4077 20.3263 94.1439 21.0626C95.3763 22.295 100.809 20.0828 102.183 19.8933C105.142 19.4851 107.953 19.1202 110.952 19.2356C113.541 19.3351 105.283 28.9617 104.667 29.7591C100.216 35.53 94.675 39.5859 91.3669 46.2022" stroke="black" stroke-width="4" stroke-linecap="round"/>
<path d="M7.7346 83C7.7346 83.3842 7.96052 84.0543 9.06784 84.9444C10.1569 85.8198 11.8552 86.6965 14.1315 87.4704C18.664 89.0115 25.054 90 32.2052 90C39.3563 90 45.7464 89.0115 50.2789 87.4704C52.5551 86.6965 54.2535 85.8198 55.3425 84.9444C56.4499 84.0543 56.6758 83.3842 56.6758 83C56.6758 82.6158 56.4499 81.9457 55.3425 81.0556C54.2535 80.1802 52.5551 79.3035 50.2789 78.5296C45.7464 76.9885 39.3563 76 32.2052 76C25.054 76 18.664 76.9885 14.1315 78.5296C11.8552 79.3035 10.1569 80.1802 9.06784 81.0556C7.96052 81.9457 7.7346 82.6158 7.7346 83Z" fill="white" stroke="black" stroke-width="4"/>
<ellipse cx="6.5" cy="9" rx="6.5" ry="9" transform="matrix(-1 0 0 1 38 74)" fill="black"/>
<path d="M67.3833 83C67.3833 83.4014 67.6135 84.0737 68.6903 84.9569C69.7527 85.8283 71.411 86.7022 73.6368 87.4744C78.0695 89.0123 84.323 90 91.3244 90C98.3259 90 104.579 89.0123 109.012 87.4744C111.238 86.7022 112.896 85.8283 113.959 84.9569C115.035 84.0737 115.266 83.4014 115.266 83C115.266 82.5986 115.035 81.9263 113.959 81.0431C112.896 80.1717 111.238 79.2978 109.012 78.5256C104.579 76.9877 98.3259 76 91.3244 76C84.323 76 78.0695 76.9877 73.6368 78.5256C71.411 79.2978 69.7527 80.1717 68.6903 81.0431C67.6135 81.9263 67.3833 82.5986 67.3833 83Z" fill="white" stroke="black" stroke-width="4"/>
<ellipse cx="6.5" cy="9" rx="6.5" ry="9" transform="matrix(-1 0 0 1 100 74)" fill="black"/>
<path d="M62.625 124.966H52.9719" stroke="black" stroke-width="5" stroke-linecap="round"/>
</svg>
