<svg width="175" height="296" viewBox="0 0 175 296" fill="none" xmlns="http://www.w3.org/2000/svg">
<path d="M151.516 158.7C152.709 171.827 143.063 187.538 138.091 193.754C138.091 193.754 118.066 208.426 103.038 211.653C90.7927 214.282 70.9678 211.653 70.9678 211.653C70.9678 211.653 53.6475 207.238 44.8645 200.466C35.1305 192.96 26.2192 175.108 26.2192 175.108C23.9818 165.164 19.507 143.486 19.507 136.326C19.507 129.166 10.06 120.913 5.33658 117.681L11.3031 113.952C17.0209 116.438 28.0092 120.664 26.2192 117.681C24.4293 114.698 20.9986 101.522 19.507 95.3067C18.0153 89.0916 23.498 75.9156 23.498 75.9156L32.998 86L41.998 91.5C41.998 91.5 45.6629 76.9134 44.998 67C44.3977 58.0477 41.3221 52.9737 39.6438 43.8458C37.5207 32.2985 31.7187 24.0167 36.998 13.5C38.8174 9.8758 41.8812 5.80957 41.8812 5.80957L50.831 28.1839L82.9008 64.7285C86.6298 71.6894 94.3862 83.6721 95.5795 75.9156C96.7728 68.1592 93.5907 55.7788 91.8505 50.5581C99.998 56 113.515 69.9201 116.498 73.5C119.481 77.0799 126.998 100.5 128.395 113.952C132.572 114.549 136.599 104.754 138.091 99.7816C142.069 113.952 150.323 145.574 151.516 158.7Z" fill="#F35415"/>
<path d="M155.294 213.892C152.42 204.788 140.899 191.443 132.012 197.5C113.659 210.007 91.1073 213.892 88.1241 213.892C85.7375 213.892 55.5117 208 55.5117 208C55.5117 208 47.5117 202 43.5117 205.5C39.0894 209.37 28.5117 215 32.1884 234C35.8651 252.999 38.3165 258.4 46.5117 262.5C59.5 268.999 50.8336 274.302 50.8336 274.302C50.8336 274.302 52.8308 284.009 58.0117 289C66.6123 297.284 88.1241 291.456 88.1241 291.456L100.803 286.981L106.012 290C110.487 290.745 120.94 293.693 126.906 293.693C132.873 293.693 138.229 284.743 134.364 279.523C130.5 274.302 122.911 273.67 121 268.999C122.5 265.499 122.928 258.002 126.012 258.5C141.512 261 146.099 253.944 146.099 253.944C155.794 251.707 161.012 232 155.294 213.892Z" fill="#E8D821"/>
<path d="M103.238 245.989H90.1149" stroke="black" stroke-width="4" stroke-linecap="round"/>
<path d="M96.4648 233.713V257.843" stroke="black" stroke-width="4" stroke-linecap="round"/>
<path d="M102.156 233.512H90.0478" stroke="black" stroke-width="4" stroke-linecap="round"/>
<path d="M112.109 229.159C109.825 230.95 105.091 232.039 102.5 233.499" stroke="black" stroke-width="4" stroke-linecap="round"/>
<path d="M89 233.5C86.5104 233.5 82.8943 233.24 80.4047 233.24C79.3189 233.24 78.3193 234.278 77.5 230" stroke="black" stroke-width="4" stroke-linecap="round"/>
<path d="M139.498 100C139.498 106.672 142.406 110.329 142.51 117C142.592 122.278 143.675 126.138 145.498 131C149.18 140.817 150.753 152.373 150.87 163.006C150.962 171.372 149.724 177.535 144.822 184.504C139.831 191.602 132.416 196.672 125.815 202.139C120.929 206.185 113.083 208.195 107.163 210.017C105.137 210.64 103.498 211.5 100.498 212" stroke="black" stroke-width="4" stroke-linecap="round"/>
<path d="M101 212C86 213 75.412 213.217 63.9369 209.611C58.0025 207.746 52.1172 204.549 46.6825 201.53C44.7849 200.476 42.6578 198.901 40.6346 198.227" stroke="black" stroke-width="4" stroke-linecap="round"/>
<path d="M40.6328 198.226C37.7606 195.354 35.5892 191.708 33.3143 188.367C30.3224 183.972 27.2722 178.697 25.818 173.526C23.7677 166.236 23.8381 160.36 21.998 153C20.9646 148.866 20.4334 144.657 19.498 140.5C18.7521 137.185 17.9697 133.944 15.998 129C14.5796 125.444 5.55971 116 1.99805 116" stroke="black" stroke-width="4" stroke-linecap="round"/>
<path d="M2.49876 115.032C8.53669 115.032 14.4445 114.702 20.3376 116.175C25.3366 117.425 28.0953 122.192 32.6875 123.722" stroke="black" stroke-width="4" stroke-linecap="round"/>
<path d="M32 122.5C30.5 120 27 117 24.5 112.5C23 110.5 21.3286 106.272 21 104C20.533 100.772 20 97.2018 20 94C20 87.2334 18.5 81 24.5 76" stroke="black" stroke-width="4" stroke-linecap="round"/>
<path d="M42.9882 91.4262C39.0282 91.0177 34.1301 86.5922 31.7323 83.956C29.6189 81.6327 27.147 79.1466 25.5012 76.5113" stroke="black" stroke-width="4" stroke-linecap="round"/>
<path d="M42.3602 91C43.3112 88.0282 42.7848 85.826 44.0628 82.9861C44.998 79.5 46.1211 77.022 46.1211 74.2192C46.1211 65.8927 45.5878 57.95 42.3602 50.1292C40.3869 45.3477 39.314 40.234 37.4304 35.3906C35.6471 30.8049 35.6008 26.0538 35.6008 21.211C35.6008 16.0716 36.3895 11.5655 39.7174 7.59051C40.7613 6.3437 41.7549 5.40988 42.6906 4.05832C43.3155 3.1556 43.6911 2.3526 44.7489 2" stroke="black" stroke-width="4" stroke-linecap="round"/>
<path d="M93.2366 92.1076C95.8052 83.7598 90.7102 73.9927 85.9182 67.5093C83.0576 63.6392 80.4309 60.0908 76.9988 56.6587C73.7418 53.4017 70.5429 50.0217 67.7236 46.367C65.0775 42.9369 61.4589 40.2777 58.6771 36.9902C55.7947 33.5838 53.2392 29.671 50.7996 25.8854C48.3281 22.0503 45.653 18.8435 44.523 14.3233C43.8029 11.443 42.867 5.48401 44.523 3" stroke="black" stroke-width="4" stroke-linecap="round"/>
<path d="M94.0015 82C98.5021 72.5 97.4108 56.4874 90.4927 49.5693" stroke="black" stroke-width="4" stroke-linecap="round"/>
<path d="M128.914 112.69C128.914 106.108 126.912 100.649 125.001 94.3942C124.145 91.5933 123.108 88.8643 122.053 85.9322C120.998 83 118.97 78.0381 117.498 76C113.541 70.5206 111.338 66.8058 106.501 61.9692C102.507 57.9749 96.0292 52.0156 90.998 49.5" stroke="black" stroke-width="4" stroke-linecap="round"/>
<path d="M136.287 195.096C146.095 199.387 153.74 205.267 158.021 218.696C160.285 225.796 159.176 240.602 154.065 246.588C146.096 264.365 109.926 264.978 128.32 240.458" stroke="black" stroke-width="4" stroke-linecap="round"/>
<path d="M128.768 239.958C130.912 237.554 132.903 235.739 133.366 232.464C133.649 230.462 133.42 228.267 132.414 226.512" stroke="black" stroke-width="4" stroke-linecap="round"/>
<path d="M61.6173 246.709C62.0448 248.749 61.4923 250.297 62.0285 251.595C61.9175 254.458 61.656 257.751 61.0332 259.893C60.3897 262.105 57.8874 263.645 56.0096 264.677C52.9585 266.353 51.8206 266.191 48.5223 264.347C36.0775 257.389 32.1788 247.018 31.5078 233.5C31.2527 228.36 32.1519 221.653 32.5078 216.5C32.8479 211.576 41.5114 202.001 50.0106 203.5" stroke="black" stroke-width="4" stroke-linecap="round"/>
<path d="M61.5068 246.001C59.3529 242.427 59.0232 236.557 58.7874 234.117C58.4271 230.388 61.1739 226.334 63.0089 223" stroke="black" stroke-width="4" stroke-linecap="round"/>
<path d="M123.418 254.698C123.418 259.123 124.472 267.411 119.524 269.885" stroke="black" stroke-width="4" stroke-linecap="round"/>
<path d="M112.342 271.225C114.881 271.225 117.419 271.225 119.957 271.225C123.382 271.225 125.293 271.665 128.308 273.258C133.433 275.966 135.923 279.989 135.296 285.633C133.789 299.19 108.998 291.5 101.498 287.5" stroke="black" stroke-width="4" stroke-linecap="round"/>
<path d="M77.6896 271.222C81.9051 271.222 86.8597 270.541 90.9077 271.806C94.1234 272.811 99.5348 273.674 101.14 277.063C101.867 278.597 102.165 282.008 101.746 283.683C100.972 286.78 98.1272 287.931 95.6238 289.308C91.3731 291.646 85.1235 292.64 80.3289 292.64C70.6258 292.64 58.6875 294.069 53.5465 284.073C50.6392 278.419 52.6154 272.726 53.1355 266.744" stroke="black" stroke-width="4" stroke-linecap="round"/>
<path d="M99.6759 129.286L71.9977 131.848C70.6617 123.874 73.35 109.136 87.9273 111.667C100.682 113.883 101.262 124.275 99.6759 129.286Z" fill="#F35415" stroke="black"/>
<path d="M113.198 111.858C123.945 113.575 126.592 122.704 126.572 127.054L100.189 131.24C99.8373 124.587 102.452 110.142 113.198 111.858Z" fill="#F35415"/>
<path d="M98.4686 130.662L72.7179 133.279C72.7497 149.329 83.5025 156.513 93.682 152.218C101.826 148.781 100.266 136.415 98.4686 130.662Z" fill="white"/>
<path d="M125.502 128.5L100.445 132.219C100.631 147.057 109.921 152.888 119.502 149C127.167 145.889 127.257 133.834 125.502 128.5Z" fill="white"/>
<path d="M71.2859 130.331C72.099 128.313 72.1118 126.061 72.6373 123.963C73.4553 120.696 74.7262 117.1 76.5919 114.2C77.9267 112.125 79.5307 110.752 82.1551 110.417C85.028 110.051 87.5072 111.007 90.1491 111.912C92.8741 112.847 96.1188 114.404 97.7745 116.719C98.5385 117.788 98.84 119.23 99.2351 120.438C99.7772 122.095 100.282 123.76 100.592 125.469C101.395 129.889 101.023 134.814 99.7783 139.136C98.7699 142.639 97.4833 146.016 96.1144 149.414C95.6706 150.515 93.9875 151.24 92.8471 151.673C90.7886 152.456 88.4875 152.431 86.3337 152.043C84.7318 151.754 83.1965 151.252 81.6683 150.738C80.1113 150.214 78.2049 149.833 77.0731 148.64C75.2865 146.758 74.397 143.925 73.6639 141.59C72.658 138.385 71.7748 135.068 71.5526 131.73C71.4748 130.563 71.6151 129.367 71.5802 128.209" stroke="black" stroke-width="3.5" stroke-linecap="round"/>
<path d="M100.565 123.983C101.813 120.887 103.032 117.782 104.307 114.696C104.549 114.111 104.912 112.927 105.498 112.515C106.54 111.781 108.299 111.759 109.562 111.652C115.098 111.187 121.198 114.074 124.249 118.183C125.277 119.568 125.833 121.189 126.581 122.701C127.21 123.974 127.663 125.151 127.756 126.536C127.848 127.917 127.685 129.416 127.44 130.772C127.196 132.129 127.118 133.556 126.777 134.891C125.561 139.658 124.691 145.017 120.562 148.563C119.241 149.697 118.347 150.006 116.536 150.102C114.025 150.236 112.041 149.799 109.706 148.965C108.203 148.427 106.349 147.629 105.337 146.461C103.871 144.768 102.831 142.288 102.121 140.271C101.571 138.709 101.429 137.251 101.288 135.639C101.113 133.643 100.25 131.719 100.726 129.716C101.677 125.718 101.445 122.042 103 118.183" stroke="black" stroke-width="3.5" stroke-linecap="round"/>
<path d="M72.5836 131.28C74.3618 131.812 76.1492 131.703 77.988 131.524C80.4837 131.282 83.0207 131.161 85.492 130.757C88.8086 130.215 92.3871 129.834 95.7684 129.861C97.3466 129.874 98.8559 129.072 100.506 129.235" stroke="black" stroke-width="4" stroke-linecap="round"/>
<path d="M100.634 130.304C103.936 131.415 107.944 130.466 111.283 129.874C112.757 129.613 114.256 129.42 115.738 129.201C117.589 128.928 119.347 128.403 121.177 128.071C123.03 127.736 125.016 127.487 126.824 126.992" stroke="black" stroke-width="4" stroke-linecap="round"/>
<path d="M110.204 132.32C109.739 133.472 109.351 134.685 108.775 135.795C108.16 136.981 107.088 137.911 106.077 138.816C105.489 139.343 104.462 140.008 103.588 139.905C102.701 139.799 102.762 137.41 102.688 136.804C102.583 135.942 102.58 135.115 102.642 134.25C102.665 133.927 102.627 133.473 102.818 133.178C103.005 132.888 103.799 132.725 104.113 132.631C104.658 132.468 105.183 132.426 105.736 132.579C106.996 132.928 106.767 133.818 106.372 134.797C105.979 135.773 104.971 137.776 103.484 137.618C102.674 137.532 103.138 136.322 103.292 135.94C103.749 134.807 104.556 133.917 105.597 133.189C106.516 132.546 107.238 132.284 108.366 132.43C108.834 132.49 109.497 132.712 109.724 133.121C109.956 133.538 110.24 134.285 110.115 134.749C109.759 136.064 109.351 137.804 108.033 138.59C106.617 139.434 105.347 140.387 104.105 141.432C103.613 141.846 103.118 142.028 102.456 142.009" stroke="black" stroke-width="3" stroke-linecap="round"/>
<path d="M82.1701 132.252C81.6493 133.544 81.1991 134.885 80.5751 136.14C80.27 136.753 79.8378 137.285 79.4101 137.829C78.9747 138.383 78.6148 139.105 78.0617 139.568C77.6189 139.939 76.9381 139.922 76.407 140.124C75.5909 140.434 75.5248 138.317 75.458 137.956C75.2935 137.069 73.6947 135.215 74.2279 134.381C74.6957 133.65 77.2494 133.579 78.2214 133.642C79.8468 133.748 77.0803 139.342 77.9889 138.106C78.3037 137.677 81.2466 132.892 81.5846 133.246C82.1202 133.805 81.7818 135.105 81.5495 135.7C81.0678 136.934 80.5802 138 79.6923 139.037C78.6033 140.309 77.6118 141.548 75.7519 140.866C75.0585 140.612 75.6205 139.302 75.7273 138.86C76.0576 137.494 76.6067 136.201 77.1349 134.89" stroke="black" stroke-width="3" stroke-linecap="round"/>
<path d="M99.6547 142.512C118 151 111.799 170.895 94.4018 168.103" stroke="black" stroke-width="4" stroke-linecap="round"/>
<path d="M103.805 178.08C105.692 178.08 107.667 177.883 109.543 178.106C111.102 178.292 111.07 180.267 110.739 181.565C110.131 183.944 108.311 185.173 106.269 185.855C105.95 185.961 105.675 186.036 105.387 186.215C105.241 186.306 106.261 186.333 106.354 186.333C108.948 186.333 112.627 186.555 112.497 190.243C112.391 193.233 109.22 195.156 106.819 195.574C105.382 195.824 103.954 196 102.5 196" stroke="black" stroke-width="3.5" stroke-linecap="round"/>
<path d="M129.5 112.976C129.988 112.976 130.864 113.08 131.28 112.855C131.858 112.543 132.413 112.083 132.885 111.634C133.788 110.774 134.473 109.946 135.05 108.851C135.888 107.257 136.763 105.503 137.184 103.751C137.341 103.1 137.413 102.259 137.722 101.659C138.464 100.213 139.392 100.21 139.5 100" stroke="black" stroke-width="4" stroke-linecap="round"/>
</svg>
