<svg width="528" height="475" viewBox="0 0 528 475" fill="none" xmlns="http://www.w3.org/2000/svg">
<path d="M192.163 329.219C210.838 337.519 224.006 348.441 220.184 366.118L200.808 350.832L175.735 344.78C171.7 340.745 162.074 332.33 155.849 330.946C149.624 329.563 140.575 306.738 136.828 295.498L138.557 267.831L155.849 240.164L192.162 222.008C192.162 222.008 213.033 222.571 225.016 217.685C229.274 215.949 235.473 212.276 235.473 212.276L237.121 196.07L246.631 181.372L257.871 170.132C257.871 170.132 244.668 150.154 246.631 136.413C247.492 130.388 248.089 126.526 251.819 121.715C256.142 116.139 251.819 107.017 251.819 107.017L250.822 81.0794L256.142 67.246L267.382 67.246L288.506 88.0556L303.256 82.8953L317.528 81.0794L331.361 55.1417C331.361 55.1417 340.868 42.9781 347.789 45.6329C358.74 49.8337 365.945 93.1837 365.945 93.1837L373.073 104.777C373.073 104.777 388.517 113.553 390.865 134.951C392.193 147.052 389.112 153.201 382.504 162.124C378.891 167.002 371.134 172.726 371.134 172.726C371.134 172.726 386.499 195.82 386.697 212.497C386.864 226.597 383.596 240.071 372.576 248.867C366.398 253.798 357.301 253.998 357.301 253.998L351.249 260.05C343.179 271.29 319.777 295.844 290.727 304.144C254.414 314.519 244.904 294.634 229.341 291.175C213.778 287.717 192.163 293.769 183.517 302.415C174.871 311.061 168.82 318.844 192.163 329.219Z" fill="#6DDDD9"/>
<path d="M218.776 368.382C221.255 366.259 220.557 359.873 220.891 357.175C221.364 353.36 218.952 348.41 216.698 345.305C211.017 337.478 200.131 332.77 191.181 330.069C183.054 327.615 171.076 319.586 177.278 309.913C180.392 305.056 185.699 301.53 190.534 298.476C196.586 294.653 202.825 290.931 210.057 290.26C224.749 288.896 238.771 298.788 252.736 301.704C263.282 303.905 275.338 307.412 286.068 304.431C299.85 300.602 314.322 295.899 325.304 286.379C331.645 280.882 337.542 275.195 343.526 269.362C346.011 266.939 352.719 261.929 354.81 256.703" stroke="black" stroke-width="4" stroke-linecap="round"/>
<path d="M234.103 211.764C226.302 216.136 216.684 222.921 207.453 222.206C202.663 221.835 198.569 221.17 192.347 222.206C185.516 224.279 179.05 226.417 172.868 230.096C158.993 238.35 143.349 250.736 138.786 266.929C135.143 279.857 132.916 294.879 139.103 307.517C142.77 315.008 146.841 323.357 153.111 328.939C159.17 334.334 167.008 340.522 174.569 343.614C181.849 346.59 190.331 346.16 197.718 349.022C205.896 352.19 214.579 358.461 218.942 366.248" stroke="black" stroke-width="4" stroke-linecap="round"/>
<path d="M260.277 171.549C255.939 173.979 251.031 176.071 247.434 179.539C242.201 184.586 238.238 193.165 236.278 200.123C232.182 214.66 238.869 231.563 247.835 242.885C251.992 248.135 255.155 249.926 261.673 246.93C268.698 243.7 270.84 237.918 272.31 230.683C273.617 224.251 273.542 217.609 272.908 211.099C272.438 206.264 271.284 201.657 273.174 196.996" stroke="black" stroke-width="4" stroke-linecap="round"/>
<path d="M362.736 207.398C361.394 205.002 355.296 203.387 352.83 202.474C348.14 200.738 344.942 201.581 340.23 202.462C333.409 203.737 325.558 209.512 320.37 213.855C312.359 220.561 306.168 230.28 303.332 240.344C301.904 245.412 304.039 250.106 307.701 253.741C312.874 258.877 320.723 254.528 326.025 251.755C333.391 247.904 339.349 242.008 346.125 237.278C349.805 234.71 354.508 231.448 359.074 231.233" stroke="black" stroke-width="4" stroke-linecap="round"/>
<path d="M336.69 247.176C340.601 254.156 352.383 255.245 359.321 254.765C370.127 254.016 378.242 244.36 381.985 235.281C384.195 229.918 387.479 222.206 387.046 216.237C386.665 210.98 386.434 205.959 384.613 200.961C382.811 196.016 380.896 190.746 378.327 186.161C376.22 182.401 373.624 176.755 370.489 172.574" stroke="black" stroke-width="4" stroke-linecap="round"/>
<path d="M366.611 172.085C369.079 171.03 371.607 170.069 374.03 168.913C377.853 167.09 381.56 163.126 383.743 159.48C387.461 153.271 390.024 146.793 390.242 138.935C390.468 130.779 386.976 121.47 381.675 113.979C379.791 111.506 373.626 105.687 371.013 102.029" stroke="black" stroke-width="4" stroke-linecap="round"/>
<path d="M371.344 102.507C367.61 95.8435 363.982 89.3206 363.062 81.5838C361.955 72.281 357.572 61.1168 353.117 52.9698C351.65 50.2884 350.449 46.705 347.16 45.9836C343.142 45.1023 338.537 48.3925 336.124 51.2597C328.342 60.5092 324.455 71.2371 318.781 81.588" stroke="black" stroke-width="4" stroke-linecap="round"/>
<path d="M288.574 87.7451C293.151 85.1804 301.534 82.343 306.848 82.1498C309.316 82.0601 315.27 82.0771 317.718 82.1498" stroke="black" stroke-width="4" stroke-linecap="round"/>
<path d="M287.946 87.2942C283.063 78.5792 275.655 72.6929 266.397 68.8131C263.995 67.8066 260.389 65.6529 257.653 66.3006C255.351 66.8456 253.829 72.2776 253.032 74.1842C248.121 85.9303 249.178 103.143 255.456 114.348" stroke="black" stroke-width="4" stroke-linecap="round"/>
<path d="M257.851 170.864C253.737 163.521 247.778 155.706 246.662 147.183C245.73 140.072 246.708 133.606 249.1 126.833C250.585 122.629 251.951 118.533 255.516 115.674" stroke="black" stroke-width="4" stroke-linecap="round"/>
<path d="M255.004 165.781C256.39 168.255 259.159 170.802 261.46 172.573C264.193 174.676 267.51 176.191 270.526 177.85C276.383 181.072 282.663 183.52 289.038 185.474C293.133 186.728 297.231 187.794 301.345 188.953C304.685 189.894 308.012 189.966 311.418 190.529" stroke="black" stroke-width="4" stroke-linecap="round"/>
<path d="M285.211 163.356C291.183 162.678 297.235 163.076 303.234 162.794" stroke="black" stroke-width="5.42891" stroke-linecap="round"/>
<path d="M293.214 148.712C286.776 149.483 280.444 148.862 274.008 148.472" stroke="black" stroke-width="6" stroke-linecap="round"/>
<path d="M294.473 148.893C308.575 146.574 322.782 149.994 336.894 149.329" stroke="black" stroke-width="6" stroke-linecap="round"/>
<path d="M302.136 132.856C302.679 133.943 304.774 135.11 306.132 135.11C307.328 135.774 308.438 135.36 309.721 135.36C312.425 135.36 315.339 134.776 317.891 133.95C319.285 133.5 320.631 133.091 322.036 132.689C323.181 132.362 323.935 132.017 324.828 131.261C326.004 130.266 327.242 128.954 328.045 127.645C328.606 126.732 329.302 125.978 329.761 125.002C330.332 123.789 330.825 122.53 331.421 121.339C331.963 120.254 332.526 119.091 332.831 117.917C333.105 116.859 332.78 115.761 332.756 114.699C332.737 113.824 332.294 113.033 332.005 112.232C331.579 111.048 331.31 110.01 330.549 108.986C329.878 108.083 328.943 107.237 328.083 106.52C327.048 105.657 325.896 104.608 324.744 103.905C322.829 102.734 319.813 103.311 317.65 103.311C315.779 103.311 313.459 104.124 311.808 104.98C310.098 105.867 308.265 106.771 306.884 108.152C304.876 110.159 303.163 112.428 301.208 114.495C300.359 115.393 299.327 116.451 299.214 117.75C299.116 118.887 299.205 120.068 299.205 121.209C299.205 123.914 299.139 126.734 300.411 129.184C301.038 130.391 301.531 131.647 302.136 132.856Z" fill="white"/>
<path d="M306.132 135.11C304.774 135.11 302.679 133.943 302.136 132.856C301.531 131.647 301.038 130.391 300.411 129.184C299.139 126.734 299.205 123.914 299.205 121.209C299.205 120.068 299.116 118.887 299.214 117.75C299.327 116.451 300.359 115.393 301.208 114.495C303.163 112.428 304.876 110.159 306.884 108.152C308.265 106.771 310.098 105.867 311.808 104.98C313.459 104.124 315.779 103.311 317.65 103.311C319.813 103.311 322.829 102.734 324.744 103.905C325.896 104.608 327.048 105.657 328.083 106.52C328.943 107.237 329.878 108.083 330.549 108.986C331.31 110.01 331.579 111.048 332.005 112.232C332.294 113.033 332.737 113.824 332.756 114.699C332.78 115.761 333.105 116.859 332.831 117.917C332.526 119.091 331.963 120.254 331.421 121.339C330.825 122.53 330.332 123.789 329.761 125.002C329.302 125.978 328.606 126.732 328.045 127.645C327.242 128.954 326.004 130.266 324.828 131.261C323.935 132.017 323.181 132.362 322.036 132.689C320.631 133.091 319.285 133.5 317.891 133.95C315.339 134.776 312.425 135.36 309.721 135.36C308.438 135.36 307.328 135.774 306.132 135.11ZM306.132 135.11C305.204 134.594 304.493 133.759 303.545 133.19" stroke="black" stroke-width="4" stroke-linecap="round"/>
<path d="M271.63 126.846C271.986 128.095 273.308 130.185 274.838 130.185C276.141 130.836 277.069 131.186 278.603 131.186C280.077 131.186 282.963 130.567 284.375 130.185C286.721 129.551 287.803 128.847 290.179 128.319C292.114 127.674 292.821 126.724 293.96 125.585C294.413 125.132 295.333 124.373 295.369 123.675C295.388 123.323 295.815 122.636 296.074 122.377C297.067 121.384 297.921 120.227 298.875 119.168C299.858 118.075 300.054 115.712 299.459 114.401C298.998 113.388 298.876 112.315 298.281 111.341C297.777 110.516 297.064 109.75 296.464 108.986C295.878 108.24 295.055 107.61 294.164 107.28C293.379 106.989 292.825 106.171 291.994 105.851C290.587 105.31 289.037 105.48 287.515 105.48C283.449 105.48 280.103 107.879 276.878 109.987C276.103 110.494 275.252 110.909 274.588 111.573C274.125 112.035 273.551 112.393 273.243 112.992C273.045 113.377 273.06 113.772 272.909 114.16C272.217 115.941 270.832 117.706 270.832 119.678C270.832 122.211 270.939 124.428 271.63 126.846Z" fill="white" stroke="black" stroke-width="4" stroke-linecap="round"/>
<path d="M313.653 121.501C312.462 121.501 312.612 119.533 312.612 118.783C312.612 117.656 312.893 116.505 314 115.923C314.856 115.472 317.355 115.089 317.355 116.591C317.355 117.775 317.177 118.324 316.314 119.188C315.793 119.708 314.975 121.039 314.173 121.039C313.678 121.039 313.653 120.406 313.653 120.049C313.653 119.291 313.656 118.633 314.321 118.146C314.892 117.729 315.441 117.487 316.082 117.915" stroke="black" stroke-width="4.04952" stroke-linecap="round"/>
<path d="M285.655 119.768C285.655 119.219 285.661 118.728 285.777 118.206C285.939 117.475 287.086 117.569 287.647 117.569C288.302 117.569 289.125 117.437 289.125 118.321C289.125 119.256 288.35 119.579 287.448 119.645C286.381 119.724 285.305 119.714 285.05 118.469C284.847 117.476 284.952 116.921 285.957 116.586C286.383 116.444 286.947 116.099 287.396 116.239C287.89 116.393 288.197 116.736 288.547 117.107C289.032 117.621 288.43 118.265 288.084 118.611" stroke="black" stroke-width="4.04952" stroke-linecap="round"/>
</svg>
