<svg width="159" height="308" viewBox="0 0 159 308" fill="none" xmlns="http://www.w3.org/2000/svg">
<path d="M3.54734 156.273C5.77521 198.602 32.7882 215.219 46.0162 218.235C71.6372 226.59 95.679 224.037 104.497 221.717C146.966 207.097 162.979 154.185 142.093 121.463C121.206 88.7408 120.51 78.9932 114.244 35.1319C107.978 -8.72937 36.9656 -13.6024 36.9655 48.3599C36.9654 115.2 0.762491 103.361 3.54734 156.273Z" fill="#EB1B72"/>
<path d="M44.625 282.29L46.7136 218.238L105.195 222.416V269.758L133.74 280.201L140.702 292.733L136.194 298.539C136.194 298.539 110.983 308.459 103.844 298.539C100.096 293.332 94.8578 283.562 94.8578 283.562L85.0052 278.77V226.593L64.8151 225.2L67.6 274.631C67.6 274.631 85.6544 277.865 93.0606 285.36C98.0515 290.41 102.646 295.544 101.448 299.695C100.605 302.613 96.8408 305.961 96.8408 305.961H72.4734C63.005 305.961 55.5323 299.927 52.9795 296.91L44.625 282.29Z" fill="#EB1B72"/>
<path d="M47.4009 218.264C47.4009 228.911 47.9919 241.746 47.4009 252.384C47.0584 258.549 47.0134 264.768 46.0496 270.872C45.3519 275.291 44.8428 279.955 45.2511 284.447C45.6045 288.334 49.7478 292.782 52.4375 295.472C55.9028 298.937 58.8547 300.836 63.4629 302.628C68.5401 304.602 74.1098 305.392 79.525 305.392C84.7146 305.392 90.1793 306.929 95.2185 305.115C102.949 302.332 104.528 293.459 98.1667 288.255C91.3787 282.701 81.8796 279.227 73.2906 277.629C71.2531 277.25 67.4546 276.443 66.3498 274.435C65.7105 273.272 66.1131 270.698 65.9505 269.398C65.4385 265.302 65.6741 261.11 65.6741 256.991C65.6741 250.091 65.6741 243.191 65.6741 236.291C65.6741 232.975 64.9758 228.916 66.2269 225.788" stroke="black" stroke-width="4" stroke-linecap="round"/>
<path d="M85.5762 226.342C85.5762 242.747 85.0234 259.177 85.0234 275.541" stroke="black" stroke-width="4" stroke-linecap="round"/>
<path d="M104.629 300.337C113.067 300.337 124.883 302.176 133.139 299.99C135.55 299.352 138.774 297.944 140.897 296.579C142.167 295.763 141.526 290.694 141.281 289.542C140.722 286.915 137.391 284.537 135.421 282.961C132.15 280.344 127.991 278.968 124.084 277.557C117.612 275.219 111.034 273.418 104.629 270.855" stroke="black" stroke-width="4" stroke-linecap="round"/>
<path d="M104.632 270.853C104.632 255.276 104.199 237.318 104.199 221.765" stroke="black" stroke-width="4" stroke-linecap="round"/>
<path d="M66.582 225.026C72.1218 225.026 78.3893 227.472 84.072 226.051" stroke="black" stroke-width="4" stroke-linecap="round"/>
<path d="M46.0162 218.236C32.7882 215.219 5.77521 198.602 3.54734 156.273C0.762491 103.361 36.9654 115.2 36.9655 48.36C36.9656 -13.6025 107.978 -8.72938 114.244 35.132C120.51 78.9933 121.206 88.7409 142.093 121.463C162.979 154.185 146.966 207.097 104.497 221.717" stroke="black" stroke-width="4"/>
<circle cx="71.6231" cy="39.5968" r="16.7091" fill="white"/>
<path d="M117.573 37.508C117.573 46.3516 110.403 53.5208 101.56 53.5208C90.2173 53.5208 85.5469 46.3516 85.5469 37.508C85.5469 28.6643 92.7161 21.4951 101.56 21.4951C110.403 21.4951 117.573 28.6643 117.573 37.508Z" fill="white"/>
<path d="M156.522 76.7795C157.417 101.929 143.464 114.453 136.376 117.572L125.93 109.339C128.168 108.715 133.69 105.521 137.868 97.7371C143.091 88.0067 141.599 72.2884 141.599 68.1717C141.599 64.055 137.868 42.3489 137.868 37.4837C137.868 32.6185 139.733 27.3791 147.941 31.1215C156.149 34.864 155.403 45.3429 156.522 76.7795Z" fill="#EB1B72"/>
<path d="M2.04064 82.3517C1.14526 107.501 15.0983 120.026 22.1867 123.144L32.6328 114.911C30.3944 114.287 24.8728 111.094 20.6944 103.309C15.4713 93.579 16.9636 77.8607 16.9636 73.744C16.9636 69.6273 20.6944 47.9212 20.6944 43.056C20.6944 38.1908 18.829 32.9514 10.6214 36.6938C2.41371 40.4363 3.15986 50.9151 2.04064 82.3517Z" fill="#EB1B72"/>
<path d="M79.9179 54.4742C77.8568 54.4742 75.7958 54.4742 73.7347 54.4742C72.2223 54.4742 70.6326 54.6184 69.1385 54.3694C67.1141 54.032 64.5778 53.8712 62.8056 52.7225C61.1679 51.6611 59.796 49.8994 58.6436 48.3509C57.0865 46.2586 57.0117 43.9335 57.0117 41.4042C57.0117 37.7646 57.6559 34.5895 59.4371 31.3734C60.7493 29.0041 62.5214 27.288 64.954 26.1184C67.4266 24.9297 70.0554 24.3892 72.8065 24.756C75.3763 25.0987 77.9141 26.4605 80.1799 27.653C82.1704 28.7006 83.7405 30.5111 84.7686 32.5112C85.732 34.3855 86.8674 36.401 87.1191 38.5222C87.7254 43.6326 85.7298 48.3948 82.8897 52.5129C82.1304 53.6139 81.3876 54.4195 80.0526 54.7437C78.7805 55.0526 77.4212 54.8643 76.1451 55.1479" stroke="black" stroke-width="4" stroke-linecap="round"/>
<path d="M109.108 51.4828C107.114 51.4828 105.119 51.4828 103.125 51.4828C101.661 51.4828 100.123 51.621 98.6767 51.3823C96.7176 51.0589 94.2632 50.9047 92.5483 49.8037C90.9634 48.7863 89.6358 47.0976 88.5206 45.6133C87.0138 43.6077 86.9414 41.379 86.9414 38.9545C86.9414 35.4658 87.5648 32.4223 89.2885 29.3395C90.5583 27.0684 92.2732 25.4234 94.6273 24.3024C97.02 23.1629 99.564 22.6448 102.226 22.9965C104.713 23.3249 107.169 24.6303 109.362 25.7733C111.288 26.7775 112.807 28.513 113.802 30.4302C114.735 32.2268 115.833 34.1587 116.077 36.192C116.664 41.0906 114.732 45.6554 111.984 49.6028C111.249 50.6581 110.53 51.4303 109.239 51.7411C108.007 52.0372 106.692 51.8567 105.457 52.1286" stroke="black" stroke-width="4" stroke-linecap="round"/>
<path d="M130.109 107.322C133.703 106.211 138.202 99.5545 139.16 96.1328C141.845 86.5444 142.494 77.2615 142.151 67.2796C141.922 60.5925 139.997 54.3228 139.031 47.7506C138.433 43.6789 138.353 39.665 138.464 35.5256C138.616 29.8588 144.369 28.2358 148.417 31.5628C152.804 35.1684 155.637 39.4931 155.637 45.316C155.637 50.4105 156.565 55.3984 156.565 60.4678C156.565 66.209 156.565 71.9503 156.565 77.6916C156.565 84.273 154.827 90.2941 153.213 96.599C152.478 99.4727 151.881 102.054 150.299 104.525C148.929 106.666 146.639 108.247 145.426 110.378C143.885 113.087 139.793 114.813 137.071 116.18" stroke="black" stroke-width="4" stroke-linecap="round"/>
<path d="M28.457 112.894C24.8631 111.783 20.3644 105.127 19.4063 101.705C16.7215 92.1166 16.0725 82.8338 16.4152 72.8519C16.6447 66.1648 18.5699 59.895 19.5352 53.3229C20.1333 49.2511 20.2139 45.2373 20.1025 41.0978C19.95 35.431 14.1975 33.8081 10.1493 37.135C5.76193 40.7407 2.92929 45.0654 2.92929 50.8882C2.92929 55.9827 2.00101 60.9707 2.00101 66.04C2.00101 71.7813 2.00101 77.5226 2.00101 83.2639C2.00101 89.8453 3.73909 95.8664 5.35314 102.171C6.08883 105.045 6.68552 107.626 8.26691 110.097C9.63764 112.239 11.9278 113.819 13.1404 115.95C14.6812 118.659 18.7735 120.385 21.4949 121.752" stroke="black" stroke-width="4" stroke-linecap="round"/>
<path d="M67.2031 69.0859C68.1856 69.1951 69.2382 71.1784 70.0478 71.77C70.9287 72.4137 71.3884 73.2106 71.9519 74.087C73.1652 75.9745 73.9939 77.8341 74.3836 80.0746C75.0064 83.656 73.9536 86.7284 73.0301 90.1455C72.4762 92.1947 70.7585 94.6038 68.6484 95.3072" stroke="black" stroke-width="4" stroke-linecap="round"/>
<path d="M109.941 67.6426C108.456 67.6426 107.423 67.7622 106.224 68.7208C105.012 69.6909 103.581 71.1441 102.818 72.4945C101.525 74.782 100.911 78.6879 102.256 81.1088C103.492 83.3348 104.85 85.5327 107.05 86.9472C108.244 87.7147 110.169 88.9086 111.593 88.9086" stroke="black" stroke-width="4" stroke-linecap="round"/>
<path d="M77.5195 81.2686H101.263" stroke="black" stroke-width="4" stroke-linecap="round"/>
<circle cx="102.259" cy="36.812" r="4.17727" fill="black"/>
<circle cx="71.6226" cy="39.5991" r="4.17727" fill="black"/>
</svg>
